<?xml version="1.0" encoding="UTF-8" standalone="no"?>
<!-- Created with Inkscape (http://www.inkscape.org/) -->

<svg
   xmlns:dc="http://purl.org/dc/elements/1.1/"
   xmlns:cc="http://creativecommons.org/ns#"
   xmlns:rdf="http://www.w3.org/1999/02/22-rdf-syntax-ns#"
   xmlns:svg="http://www.w3.org/2000/svg"
   xmlns="http://www.w3.org/2000/svg"
   xmlns:sodipodi="http://sodipodi.sourceforge.net/DTD/sodipodi-0.dtd"
   xmlns:inkscape="http://www.inkscape.org/namespaces/inkscape"
   width="210mm"
   height="297mm"
   viewBox="0 0 744.09448819 1052.3622047"
   id="svg2"
   version="1.1"
   inkscape:version="0.91 r13725"
   inkscape:export-filename="auto1"
   inkscape:export-xdpi="90"
   inkscape:export-ydpi="90"
   sodipodi:docname="auto1.svg">
  <defs
     id="defs4" />
  <sodipodi:namedview
     id="base"
     pagecolor="#ffffff"
     bordercolor="#666666"
     borderopacity="1.0"
     inkscape:pageopacity="0.0"
     inkscape:pageshadow="2"
     inkscape:zoom="1.4"
     inkscape:cx="310.93452"
     inkscape:cy="528.15031"
     inkscape:document-units="px"
     inkscape:current-layer="layer1"
     showgrid="false"
     inkscape:snap-nodes="false"
     inkscape:snap-others="false"
     inkscape:snap-global="false"
     inkscape:window-width="1600"
     inkscape:window-height="837"
     inkscape:window-x="-8"
     inkscape:window-y="-8"
     inkscape:window-maximized="1" />
  <metadata
     id="metadata7">
    <rdf:RDF>
      <cc:Work
         rdf:about="">
        <dc:format>image/svg+xml</dc:format>
        <dc:type
           rdf:resource="http://purl.org/dc/dcmitype/StillImage" />
        <dc:title></dc:title>
      </cc:Work>
    </rdf:RDF>
  </metadata>
  <g
     inkscape:label="Vrstva 1"
     inkscape:groupmode="layer"
     id="layer1">
    <path
       style="fill:#0079ff;fill-opacity:1"
       d="M 302.30273 432.92773 C 252.52444 432.61208 207.81143 438.32491 197.94336 460.21875 C 197.62153 460.9328 164.93949 535.94343 164.28516 536.01953 C 15.518363 553.32726 58.03056 628.88285 87.857422 677.27539 C 87.941243 677.41139 92.18096 677.54946 97.869141 677.68555 A 65 65 0 0 1 97.857422 677.36133 A 65 65 0 0 1 162.85742 612.36133 A 65 65 0 0 1 227.85742 677.36133 A 65 65 0 0 1 227.7832 678.85938 L 492.92578 679.2793 A 65 65 0 0 1 492.85742 677.36133 A 65 65 0 0 1 557.85742 612.36133 A 65 65 0 0 1 622.85742 677.36133 A 65 65 0 0 1 622.75195 679.48633 L 634.91406 679.50586 C 655.52521 679.53858 735.58391 578.61556 635.71484 560.13281 L 509.28516 536.73438 C 501.78153 535.34569 425.17396 440.85137 402.05664 438.79102 C 372.79185 436.18277 336.36157 433.14371 302.30273 432.92773 z "
       id="rect3339" />
    <ellipse
       style="fill:#ffe680;fill-opacity:1"
       id="path4164"
       cx="665.35712"
       cy="600.93365"
       rx="11.785714"
       ry="22.142859" />
    <path
       style="fill:#00ffff;fill-opacity:1"
       d="m 240.71428,446.64793 c 31.2247,-3.14463 29.54106,-7.15855 155,2.14286 13.02283,0.9655 57.57805,43.31166 65,53.57142 l 24.28571,33.57143 c 7.42196,10.25976 -44.80071,8.09382 -57.85714,7.85715 l -236.42857,-4.28571 c -13.05643,-0.23668 -12.60632,-7.86213 -7.14286,-19.28573 l 23.57143,-49.28571 c 5.46346,-11.4236 20.57858,-22.97721 33.57143,-24.28571 z"
       id="rect4166"
       inkscape:connector-curvature="0"
       sodipodi:nodetypes="sssssssss" />
    <path
       style="fill:#ff342c;fill-opacity:1"
       d="m 83.571437,596.29077 c 0,12.42641 -3.83756,22.5 -8.571429,22.5 -4.73387,0 -13.57143,-0.78788 -13.57143,-13.21429 0,-12.4264 8.83756,-31.78571 13.57143,-31.78571 4.733869,0 8.571429,10.07359 8.571429,22.5 z"
       id="path4169"
       inkscape:connector-curvature="0"
       sodipodi:nodetypes="sssss" />
  </g>
</svg>
