<?xml version="1.0" encoding="UTF-8" standalone="no"?>
<!-- Created with Inkscape (http://www.inkscape.org/) -->

<svg
   xmlns:dc="http://purl.org/dc/elements/1.1/"
   xmlns:cc="http://creativecommons.org/ns#"
   xmlns:rdf="http://www.w3.org/1999/02/22-rdf-syntax-ns#"
   xmlns:svg="http://www.w3.org/2000/svg"
   xmlns="http://www.w3.org/2000/svg"
   xmlns:sodipodi="http://sodipodi.sourceforge.net/DTD/sodipodi-0.dtd"
   xmlns:inkscape="http://www.inkscape.org/namespaces/inkscape"
   width="574.01575"
   height="811.4173"
   viewBox="0 0 574.01561 811.41726"
   id="svg2"
   version="1.1"
   inkscape:version="0.91 r13725"
   sodipodi:docname="balon.svg"
   inkscape:export-filename="C:\Users\Q7W5\Programovanie\Git\Race\Assets\Graphics\balon.png"
   inkscape:export-xdpi="78.395065"
   inkscape:export-ydpi="78.395065">
  <defs
     id="defs4" />
  <sodipodi:namedview
     id="base"
     pagecolor="#ffffff"
     bordercolor="#666666"
     borderopacity="1.0"
     inkscape:pageopacity="0.0"
     inkscape:pageshadow="2"
     inkscape:zoom="0.5"
     inkscape:cx="552.54696"
     inkscape:cy="424.19577"
     inkscape:document-units="px"
     inkscape:current-layer="layer1"
     showgrid="false"
     inkscape:window-width="1366"
     inkscape:window-height="706"
     inkscape:window-x="-8"
     inkscape:window-y="-8"
     inkscape:window-maximized="1"
     showguides="false"
     units="px" />
  <metadata
     id="metadata7">
    <rdf:RDF>
      <cc:Work
         rdf:about="">
        <dc:format>image/svg+xml</dc:format>
        <dc:type
           rdf:resource="http://purl.org/dc/dcmitype/StillImage" />
        <dc:title />
      </cc:Work>
    </rdf:RDF>
  </metadata>
  <g
     inkscape:label="Vrstva 1"
     inkscape:groupmode="layer"
     id="layer1"
     transform="translate(0,-240.945)">
    <path
       style="fill:#ffb234;fill-opacity:1;stroke:none;stroke-width:1.47500002;stroke-linejoin:miter;stroke-miterlimit:4;stroke-dasharray:none;stroke-dashoffset:0;stroke-opacity:1"
       d="m 547.44849,574.38624 c -14.50367,25.06473 9.15718,-22.13731 -1.121,1.99582 -30.85766,72.4537 -138.6252,219.14708 -246.10852,219.15671 -110.3015,0.01 -207.427682,-78.81156 -263.532542,-184.0941 -11.91479,-22.35847 -9.00917,-18.42499 -18.35777,-44.07253 -56.763555,-155.72873 81.30235,-328.25161 261.890312,-321.11913 201.08387,7.94198 348.78774,187.18717 267.22952,328.13323 z"
       id="path4134"
       inkscape:connector-curvature="0"
       sodipodi:nodetypes="sssssss" />
    <path
       style="fill:#ffb234;fill-opacity:1;stroke:none;stroke-width:1.47500002;stroke-linejoin:miter;stroke-miterlimit:4;stroke-dasharray:none;stroke-dashoffset:0;stroke-opacity:1"
       d="m 257.63253,783.90749 91.47572,-1.78571 C 359.17958,781.92517 498.9193,657.43892 492.74425,665.3975 L 353.00528,845.49706 c -6.17505,7.95858 -26.02336,6.40102 -36.03988,7.46846 -13.83089,1.47394 -32.27947,1.10079 -50.76144,0.71429 -10.07104,-0.21061 -23.47261,-1.87132 -30.32561,-9.25418 L 121.67437,721.3916 c -6.853,-7.38286 125.88684,62.7125 135.95816,62.51589 z"
       id="rect4137"
       inkscape:connector-curvature="0"
       sodipodi:nodetypes="sssssssss" />
    <g
       id="g4187"
       transform="translate(-236.88077,170.41273)">
      <path
         inkscape:connector-curvature="0"
         id="path4153"
         d="m 559.48384,776.17414 9.5625,-41.375"
         style="fill:none;fill-rule:evenodd;stroke:#8c8c6c;stroke-width:1.20000005;stroke-linecap:butt;stroke-linejoin:miter;stroke-miterlimit:4;stroke-dasharray:none;stroke-opacity:1" />
      <path
         inkscape:connector-curvature="0"
         id="path4155"
         d="m 558.54634,775.73664 0,-38.4375"
         style="fill:none;fill-rule:evenodd;stroke:#8c8c6c;stroke-width:1.20000005;stroke-linecap:butt;stroke-linejoin:miter;stroke-miterlimit:4;stroke-dasharray:none;stroke-opacity:1" />
      <path
         inkscape:connector-curvature="0"
         id="path4157"
         d="m 556.98384,775.48664 -7.875,-36.625"
         style="fill:none;fill-rule:evenodd;stroke:#8c8c6c;stroke-width:1.20000005;stroke-linecap:butt;stroke-linejoin:miter;stroke-miterlimit:4;stroke-dasharray:none;stroke-opacity:1" />
      <path
         inkscape:connector-curvature="0"
         id="path4149"
         d="m 511.54634,775.54914 8.25,-36.8125"
         style="fill:none;fill-rule:evenodd;stroke:#8c8c6c;stroke-width:1.20000005;stroke-linecap:butt;stroke-linejoin:miter;stroke-miterlimit:4;stroke-dasharray:none;stroke-opacity:1" />
      <path
         inkscape:connector-curvature="0"
         id="path4147"
         d="m 510.29634,775.48664 0.1875,-37.9375"
         style="fill:none;fill-rule:evenodd;stroke:#8c8c6c;stroke-width:1.20000005;stroke-linecap:butt;stroke-linejoin:miter;stroke-miterlimit:4;stroke-dasharray:none;stroke-opacity:1" />
      <path
         inkscape:connector-curvature="0"
         id="path4145"
         d="m 501.67134,820.79914 7.9375,-43.4375 49.0625,0 8.6875,43.375"
         style="fill:none;fill-rule:evenodd;stroke:#000000;stroke-width:4.5999999;stroke-linecap:butt;stroke-linejoin:miter;stroke-miterlimit:4;stroke-dasharray:none;stroke-opacity:1" />
      <path
         inkscape:connector-curvature="0"
         id="path4151"
         d="m 508.92134,775.23664 -8.6875,-39.9375"
         style="fill:none;fill-rule:evenodd;stroke:#8c8c6c;stroke-width:1.20000005;stroke-linecap:butt;stroke-linejoin:miter;stroke-miterlimit:4;stroke-dasharray:none;stroke-opacity:1" />
      <path
         sodipodi:nodetypes="sssssssss"
         inkscape:connector-curvature="0"
         id="rect4159"
         d="m 503.27444,821.67411 62.5331,0 c 2.2385,0 4.0406,2.32585 4.0406,5.2149 l 0,40.0702 c 0,2.88906 -1.8995,4.56163 -4.0406,5.2149 -19.3671,5.90923 -39.8414,7.38932 -62.5331,0 -2.1285,-0.69312 -4.0406,-2.32584 -4.0406,-5.2149 l 0,-40.0702 c 0,-2.88905 1.8021,-5.2149 4.0406,-5.2149 z"
         style="fill:#784421;fill-opacity:1;stroke:#000000;stroke-width:0;stroke-linejoin:miter;stroke-miterlimit:4;stroke-dasharray:none;stroke-dashoffset:0;stroke-opacity:1" />
      <rect
         ry="5.2149005"
         rx="4.0406003"
         y="819.67407"
         x="493.48395"
         height="7.25"
         width="81.5"
         id="rect4162"
         style="fill:#552200;fill-opacity:1;stroke:#000000;stroke-width:0;stroke-linejoin:miter;stroke-miterlimit:4;stroke-dasharray:none;stroke-dashoffset:0;stroke-opacity:1" />
    </g>
    <path
       style="fill:#ff8080;fill-opacity:1;stroke:#000000;stroke-width:0;stroke-linejoin:miter;stroke-miterlimit:4;stroke-dasharray:none;stroke-dashoffset:0;stroke-opacity:1"
       d="m 217.07392,251.17464 c 20.6674,-4.26587 43.18088,-5.77504 50.9645,-5.01202 0,0 -2.34057,6.82008 -4.6764,13.85983 -2.95974,8.92008 -4.6905,18.00026 -5.8953,24.38803 -7.5218,39.87949 -7.01713,64.49049 -7.90343,84.22906 -4.7042,104.76523 1.36713,209.49264 13.55613,314.23895 0.081,0.69562 0.7846,9.9929 2.8224,25.00303 6.3689,46.91274 18.8098,141.99609 17.132,142.24288 -6.2046,0.91268 -16.3253,-0.65743 -25.4849,-2.10876 -0.9036,-0.14317 -1.637,-2.01044 -4.7984,-9.29081 -3.8666,-8.90432 -9.4651,-25.89774 -15.8118,-43.8935 -18.0907,-51.296 -41.2926,-125.8241 -44.263,-136.59802 -12.0193,-43.59437 -23.35894,-87.42458 -25.6309,-133.27632 -1.82749,-36.88159 -4.12221,-74.20198 -0.4337,-112.85895 3.08285,-32.30939 8.5864,-61.06986 14.1019,-80.60495 0.5803,-2.05562 23.4918,-77.67045 36.3209,-80.31845 z"
       id="rect4201"
       inkscape:connector-curvature="0"
       sodipodi:nodetypes="ssssssssssssssss" />
    <path
       style="fill:#00ffff;fill-opacity:1;stroke:#000000;stroke-width:0;stroke-linejoin:miter;stroke-miterlimit:4;stroke-dasharray:none;stroke-dashoffset:0;stroke-opacity:1"
       d="m 366.23649,252.99019 c -20.6674,-4.26587 -43.18088,-5.77504 -50.9645,-5.01202 -0.59502,0.0583 2.34057,6.82008 4.6764,13.85983 2.95974,8.92008 4.6905,18.00026 5.8953,24.38802 7.5218,39.87949 7.01713,64.49049 7.90343,84.22906 4.7042,104.76523 -1.36713,209.49265 -13.55613,314.23896 -0.081,0.69562 -0.7846,9.9929 -2.8224,25.00303 -6.3689,46.91274 -18.8098,141.99609 -17.132,142.24288 6.2046,0.91268 16.3253,-0.65743 25.4849,-2.10876 0.9036,-0.14317 1.637,-2.01044 4.7984,-9.29081 3.8666,-8.90432 9.4651,-25.89774 15.8118,-43.8935 18.0907,-51.296 41.2926,-125.8241 44.263,-136.59802 12.0193,-43.59437 23.35894,-87.42458 25.6309,-133.27632 1.82749,-36.88159 4.12221,-74.20199 0.4337,-112.85896 -3.08285,-32.30939 -8.5864,-61.06986 -14.1019,-80.60495 -0.5803,-2.05562 -23.4918,-77.67044 -36.3209,-80.31844 z"
       id="rect4201-6"
       inkscape:connector-curvature="0"
       sodipodi:nodetypes="ssssssssssssssss" />
    <path
       style="fill:#ffcc00;fill-opacity:1;stroke:#000000;stroke-width:0;stroke-linejoin:miter;stroke-miterlimit:4;stroke-dasharray:none;stroke-dashoffset:0;stroke-opacity:1"
       d="m 147.25192,272.98455 c 21.7018,-9.24171 43.9756,-17.93256 71.0184,-22.03108 0,0 -15.9504,25.9996 -17.2132,28.61549 -7.6666,15.8815 -15.4509,35.58491 -20.2506,56.53378 -5.3147,23.19717 -7.8231,46.97543 -9.6731,56.74044 -3.6613,19.32622 -5.4072,52.71482 -5.5326,65.11508 -0.2836,28.03234 1.5061,58.93342 3.6737,79.04653 3.7028,34.35658 15.4091,83.76971 22.2743,114.88045 0.5166,2.34108 1.1942,4.65393 1.8633,6.94377 1.6891,5.78122 3.2219,11.41568 4.8806,16.98703 3.3021,11.0914 6.0257,21.86773 9.3319,32.49851 6.2192,19.9972 10.6779,37.96249 22.7401,68.50346 1.0674,2.70268 28.0536,73.31133 25.8727,72.80355 l -11.8252,-2.75324 c -0.117,-0.0273 -0.6921,-0.79803 -1.0514,-1.41867 -0.1838,-0.31752 -1.7363,-1.95324 -2.0809,-2.36407 -0.8509,-1.01445 -2.0042,-2.11169 -4.9551,-5.43856 -1.8482,-2.08359 -6.007,-5.72106 -7.7841,-8.62097 -27.219,-44.41661 -85.1454,-150.87235 -85.9646,-152.93307 -3.59261,-9.03731 -7.36056,-18.00688 -10.7774,-27.11209 -2.72442,-7.26004 -5.35945,-14.55758 -7.7501,-21.93427 -2.90922,-8.97681 -5.52404,-18.04924 -8.0181,-27.15013 -2.39271,-8.73104 -4.6457,-17.50357 -6.6612,-26.32932 -2.57523,-11.27677 -4.96784,-22.60258 -6.9361,-34.00097 -2.25418,-13.05421 -4.113831,-26.18266 -5.575202,-39.34921 -1.148009,-10.34324 -2.0332,-20.72355 -2.5052,-31.1196 -0.331925,-7.31083 -0.282495,-14.63573 -0.2286,-21.95389 0.05254,-7.13357 0.120643,-14.27298 0.538,-21.39452 0.407321,-6.9503 1.063691,-13.88879 1.9175,-20.79846 0.841149,-6.80722 1.907378,-13.58911 3.1554,-20.33361 0.968792,-5.23552 2.240602,-10.41041 3.360902,-15.61562 0.2394,-1.11231 3.4999,-15.7557 9.83,-32.98781 3.0137,-8.20399 7.3195,-16.65438 10.8396,-25.16154 7.9811,-19.28812 23.2791,-37.77916 23.4863,-37.86739 z"
       id="rect4219"
       inkscape:connector-curvature="0"
       sodipodi:nodetypes="ssssssssssssssssssssssssssssssssss" />
    <path
       style="fill:#ff0000;fill-opacity:1;stroke:#000000;stroke-width:0;stroke-linejoin:miter;stroke-miterlimit:4;stroke-dasharray:none;stroke-dashoffset:0;stroke-opacity:1"
       d="m 434.82661,274.59398 c -21.7018,-9.24171 -43.9756,-17.93256 -71.01841,-22.03108 -0.3055,-0.0463 15.9504,25.9996 17.2132,28.61549 7.66661,15.8815 15.45091,35.58491 20.25061,56.53378 5.3147,23.19717 7.8231,46.97543 9.6731,56.74044 3.6613,19.32622 5.4072,52.71482 5.5326,65.11508 0.2836,28.03234 -1.5061,58.93342 -3.6737,79.04653 -3.7028,34.35658 -15.4091,83.76971 -22.2743,114.88045 -0.5166,2.34108 -1.1942,4.65393 -1.8633,6.94377 -1.68911,5.78122 -3.22191,11.41568 -4.88061,16.98703 -3.3021,11.0914 -6.0257,21.86773 -9.3319,32.49851 -6.2192,19.9972 -10.6779,37.96249 -22.7401,68.50346 -1.0674,2.70268 -28.0536,73.31133 -25.8727,72.80355 l 11.8252,-2.75324 c 0.117,-0.0273 0.6921,-0.79803 1.0514,-1.41867 0.1838,-0.31752 1.7363,-1.95324 2.0809,-2.36407 0.8509,-1.01445 2.0042,-2.11169 4.9551,-5.43856 1.8482,-2.08359 6.007,-5.72106 7.7841,-8.62097 27.219,-44.41661 85.14541,-150.87235 85.96461,-152.93307 3.59261,-9.03731 7.36056,-18.00688 10.7774,-27.11209 2.72442,-7.26004 5.35945,-14.55758 7.7501,-21.93427 2.90922,-8.97681 5.52404,-18.04924 8.0181,-27.15013 2.39271,-8.73104 4.6457,-17.50357 6.6612,-26.32932 2.57523,-11.27677 4.96784,-22.60258 6.9361,-34.00097 2.25418,-13.05421 4.11383,-26.18266 5.5752,-39.34921 1.14801,-10.34324 2.0332,-20.72355 2.5052,-31.1196 0.33193,-7.31083 0.2825,-14.63573 0.2286,-21.95389 -0.0525,-7.13357 -0.12064,-14.27298 -0.538,-21.39452 -0.40732,-6.9503 -1.06369,-13.88879 -1.9175,-20.79846 -0.84115,-6.80722 -1.90738,-13.58911 -3.1554,-20.33361 -0.9688,-5.23552 -2.2406,-10.41041 -3.3609,-15.61562 -0.2394,-1.11231 -3.4999,-15.7557 -9.83,-32.98781 -3.0137,-8.20399 -7.3195,-16.65438 -10.8396,-25.16154 -7.9811,-19.28812 -23.2791,-37.77916 -23.4863,-37.86739 z"
       id="rect4219-4"
       inkscape:connector-curvature="0"
       sodipodi:nodetypes="ssssssssssssssssssssssssssssssssss" />
    <path
       style="fill:#668000;fill-opacity:1;stroke:#000000;stroke-width:0;stroke-linejoin:miter;stroke-miterlimit:4;stroke-dasharray:none;stroke-dashoffset:0;stroke-opacity:1"
       d="m 556.05587,404.83152 c -9.53,-21.47589 -18.18096,-34.19532 -27.25915,-47.99049 55.85961,112.98695 -127.38508,414.95704 -99.24085,399.18898 157.98247,-167.68294 156.63384,-264.86191 126.5,-351.19849 z"
       id="rect4266-5"
       inkscape:connector-curvature="0"
       sodipodi:nodetypes="cccc" />
    <path
       style="fill:#ffd42a;fill-opacity:1;stroke:#000000;stroke-width:0;stroke-linejoin:miter;stroke-miterlimit:4;stroke-dasharray:none;stroke-dashoffset:0;stroke-opacity:1"
       d="m 512.24103,336.06698 c -24.4305,-30.69123 -52.6046,-44.62999 -78.6126,-62.10927 -0.882,-0.59275 14.5978,17.47613 23.6174,36.55453 9.9805,21.11082 19.0443,55.7421 19.3646,57.22548 3.56536,16.51207 8.1883,32.33953 9.878,48.87424 2.42406,23.72081 2,47.74844 0.3041,71.5324 -1.63083,22.87147 -5.19937,45.63986 -10.0496,68.05055 -7.24111,33.45788 -16.03165,66.76725 -28.3471,98.70771 -9.10607,23.61683 -21.61225,45.79789 -33.4634,68.16361 -7.52546,14.2022 -15.92157,27.92569 -23.882,41.88874 -0.4893,0.85826 -7.2796,12.63821 -15.246,26.68003 -4.7151,8.31093 -9.1925,17.25179 -14.7843,25.63074 -12.5886,18.86297 -26.82074,33.63455 -25.8046,33.54647 l 14.05364,-1.21814 c 1.0765,-0.0933 24.54536,-30.81924 51.44496,-62.48444 8.0704,-9.50013 17.8272,-18.45932 25.1598,-27.73842 19.703,-28.55899 43.66008,-58.99969 60.3888,-85.58765 11.85299,-19.29965 21.30509,-39.342 29.1865,-58.84251 3.88989,-9.64915 7.23985,-19.50812 10.7123,-29.31523 8.41504,-18.90462 11.74085,-38.40714 14.81416,-57.24079 1.53381,-9.28436 3.16927,-18.55836 4.32554,-27.89726 1.29541,-10.46267 2.71245,-20.95189 2.92278,-31.49235 0.25379,-12.71858 -0.60828,-25.4666 -2.00803,-38.11046 -1.53601,-13.87471 -2.84737,-28.28809 -5.24725,-42.03973 -1.02881,-5.89523 -2.22885,-14.32953 -9.6921,-28.46872 -5.4582,-10.3405 -18.4467,-23.56974 -19.0356,-24.30953 z"
       id="rect4239-6"
       inkscape:connector-curvature="0"
       sodipodi:nodetypes="ssssssssssssssscccccssssss" />
    <path
       style="fill:#aad400;fill-opacity:1;stroke:#000000;stroke-width:0;stroke-linejoin:miter;stroke-miterlimit:4;stroke-dasharray:none;stroke-dashoffset:0;stroke-opacity:1"
       d="m 260.88458,245.92837 c 22.42795,-0.58291 41.71879,-0.12012 56.1553,1.96079 5.96641,0.86 15.7001,66.41119 16.7293,77.41453 7.8528,83.95659 -0.7,147.99357 -0.2929,209.19122 0.2858,42.96381 -30.1626,314.22056 -33.032,314.22056 l -17.3747,0 c -9.4744,0 -30.2471,-289.10863 -31.6178,-314.22056 -3.5648,-65.30951 -1.9949,-137.46521 0,-210.18754 0.5085,-18.53552 4.88953,-78.26092 9.4328,-78.379 z"
       id="rect4198"
       inkscape:connector-curvature="0"
       sodipodi:nodetypes="sssssssss" />
    <path
       style="fill:#00ff00;fill-opacity:1;stroke:#000000;stroke-width:0;stroke-linejoin:miter;stroke-miterlimit:4;stroke-dasharray:none;stroke-dashoffset:0;stroke-opacity:1"
       d="m 23.833478,405.99086 c 9.53,-21.47589 18.18096,-34.19532 27.25915,-47.99049 C -4.8159937,477.75583 175.85088,807.49364 185.30598,780.49964 l -48.4725,-38.31029 C -21.148997,574.50641 -8.6230627,492.32744 23.833478,405.99086 Z"
       id="rect4266"
       inkscape:connector-curvature="0"
       sodipodi:nodetypes="ccccc" />
    <path
       style="fill:#0000ff;fill-opacity:1;stroke:#000000;stroke-width:0;stroke-linejoin:miter;stroke-miterlimit:4;stroke-dasharray:none;stroke-dashoffset:0;stroke-opacity:1"
       d="m 69.383988,334.53489 c 24.4305,-30.69123 52.604602,-44.62999 78.612602,-62.10928 12.04023,-8.09192 -14.5978,17.47614 -23.6174,36.55454 -9.9805,21.11082 -18.93169,55.77097 -19.3646,57.22548 -5.05064,16.96918 -8.1883,32.33952 -9.878002,48.87423 -2.424059,23.72081 -1.999998,47.74844 -0.3041,71.5324 1.630833,22.87147 5.199372,45.63986 10.049602,68.05055 7.24111,33.45788 16.03165,66.76725 28.3471,98.70771 9.10607,23.61683 21.61225,45.79789 33.4634,68.16361 7.52546,14.2022 15.92157,27.92569 23.882,41.88874 0.4893,0.85826 7.2796,12.63821 15.246,26.68003 4.7151,8.31093 9.1925,17.25179 14.7843,25.63074 12.5886,18.86297 26.7475,33.93537 25.8046,33.54647 -3.27033,-1.34885 -7.25303,-1.60295 -9.811,-4.04657 -19.53834,-18.66493 -28.788,-27.99081 -55.6876,-59.65601 -8.0704,-9.50013 -17.8272,-18.45932 -25.1598,-27.73842 -18.8557,-23.86113 -24.8091,-35.18208 -25.427,-36.04087 -6.27169,-8.71673 -12.62943,-17.37219 -18.8153,-26.15004 -5.45849,-7.74569 -11.16377,-15.33677 -16.146502,-23.39674 -5.860897,-9.48048 -11.183415,-19.30179 -16.1286,-29.29052 -4.77819,-9.65142 -9.031263,-19.56364 -13.0579,-29.55199 -3.889893,-9.64915 -7.239849,-19.50812 -10.7123,-29.31523 -3.354206,-9.47316 -7.271541,-18.78691 -9.7767,-28.5191 -2.423041,-9.41318 -3.453146,-19.13164 -5.03746,-28.72169 -1.533813,-9.28436 -3.169266,-18.55836 -4.32554,-27.89726 -1.295412,-10.46267 -2.712454,-20.95189 -2.92278,-31.49235 -0.253789,-12.71858 2.00803,-38.11046 2.00803,-38.11046 0.753406,-14.29892 3.39417,-28.37359 6.99725,-41.28973 0.43875,-1.57281 0.289757,-15.7195 7.9421,-29.21871 5.817217,-10.26193 12.62592,-16.25726 19.0356,-24.30953 z"
       id="rect4239"
       inkscape:connector-curvature="0"
       sodipodi:nodetypes="ssssssssssssssssssssssssssssss" />
    <path
       style="fill:#800000;fill-opacity:1;stroke:none;stroke-width:1.47500002;stroke-linejoin:miter;stroke-miterlimit:4;stroke-dasharray:none;stroke-dashoffset:0;stroke-opacity:1"
       d="m 333.70469,905.3756 c -17.77542,11.58193 -70.69597,5.54972 -73.18555,0 -9.19038,-19.98249 -16.92595,-40.27492 -24.35229,-60.63322 55.62866,9.3482 120.26901,-1.82672 118.67347,-1.74201 -0.67056,0.0356 -11.12229,28.60003 -21.13563,62.37523 z"
       id="rect4140"
       inkscape:connector-curvature="0"
       sodipodi:nodetypes="cccsc" />
    <g
       id="g4180"
       transform="translate(-839.6893,121.62237)">
      <path
         transform="matrix(1.0191892,0,0,3.5011283,17.036757,-2034.8864)"
         inkscape:transform-center-y="-3.2823042"
         inkscape:transform-center-x="-0.11204744"
         d="m 1103.1875,813.86218 -7.155,0.38097 3.2475,-6.38694 z"
         inkscape:randomized="0"
         inkscape:rounded="0"
         inkscape:flatsided="true"
         sodipodi:arg2="1.5176018"
         sodipodi:arg1="0.47040426"
         sodipodi:r2="2.0684102"
         sodipodi:r1="4.1368203"
         sodipodi:cy="811.98718"
         sodipodi:cx="1099.5"
         sodipodi:sides="3"
         id="path4172"
         style="fill:#aa0000;fill-opacity:1;stroke:#000000;stroke-width:0;stroke-linejoin:miter;stroke-miterlimit:4;stroke-dasharray:none;stroke-dashoffset:0;stroke-opacity:1"
         sodipodi:type="star" />
      <path
         transform="matrix(0.39067646,0,0,1.3738437,713.96237,-290.09829)"
         inkscape:transform-center-y="-2.9123966"
         inkscape:transform-center-x="0.30932594"
         d="m 1101.2304,808.85231 -19.438,-2.74282 12.0944,-15.4624 z"
         inkscape:randomized="0"
         inkscape:rounded="0"
         inkscape:flatsided="true"
         sodipodi:arg2="1.7109767"
         sodipodi:arg1="0.66377914"
         sodipodi:r2="5.6668582"
         sodipodi:r1="11.333716"
         sodipodi:cy="801.86963"
         sodipodi:cx="1092.3032"
         sodipodi:sides="3"
         id="path4174"
         style="fill:#ffcc00;fill-opacity:1;stroke:#000000;stroke-width:0;stroke-linejoin:miter;stroke-miterlimit:4;stroke-dasharray:none;stroke-dashoffset:0;stroke-opacity:1"
         sodipodi:type="star" />
      <path
         transform="matrix(0.8425356,0,0,2.9406452,205.75672,-1534.6871)"
         inkscape:transform-center-y="-4.0284987"
         inkscape:transform-center-x="0.086046417"
         d="m 1107.4176,801.51608 -10.1037,-0.35378 5.3583,-8.57322 z"
         inkscape:randomized="0"
         inkscape:rounded="0"
         inkscape:flatsided="true"
         sodipodi:arg2="1.6057969"
         sodipodi:arg1="0.55859932"
         sodipodi:r2="2.918489"
         sodipodi:r1="5.836978"
         sodipodi:cy="798.42249"
         sodipodi:cx="1102.4679"
         sodipodi:sides="3"
         id="path4176"
         style="fill:#ffcc00;fill-opacity:1;stroke:#000000;stroke-width:0;stroke-linejoin:miter;stroke-miterlimit:4;stroke-dasharray:none;stroke-dashoffset:0;stroke-opacity:1"
         sodipodi:type="star" />
      <rect
         ry="5.2149019"
         rx="4.0406036"
         y="813.36011"
         x="1128.5424"
         height="27.930717"
         width="18.384777"
         id="rect4143"
         style="fill:#333333;fill-opacity:1;stroke:none;stroke-width:1.47500002;stroke-linejoin:miter;stroke-miterlimit:4;stroke-dasharray:none;stroke-dashoffset:0;stroke-opacity:1" />
      <path
         inkscape:connector-curvature="0"
         id="path4178"
         d="m 1128.5599,818.90908 18.3462,-0.0781"
         style="fill:none;fill-rule:evenodd;stroke:#000000;stroke-width:1px;stroke-linecap:butt;stroke-linejoin:miter;stroke-opacity:1" />
    </g>
  </g>
</svg>
