<?xml version="1.0" encoding="UTF-8" standalone="no"?>
<!-- Created with Inkscape (http://www.inkscape.org/) -->

<svg
   xmlns:dc="http://purl.org/dc/elements/1.1/"
   xmlns:cc="http://creativecommons.org/ns#"
   xmlns:rdf="http://www.w3.org/1999/02/22-rdf-syntax-ns#"
   xmlns:svg="http://www.w3.org/2000/svg"
   xmlns="http://www.w3.org/2000/svg"
   xmlns:sodipodi="http://sodipodi.sourceforge.net/DTD/sodipodi-0.dtd"
   xmlns:inkscape="http://www.inkscape.org/namespaces/inkscape"
   width="86mm"
   height="80mm"
   viewBox="0 0 304.72423 283.4644"
   id="svg2"
   version="1.1"
   inkscape:version="0.91 r13725"
   inkscape:export-filename="C:\Users\Matthess\Desktop\Game Project\vehicle\guma new1.png"
   inkscape:export-xdpi="235"
   inkscape:export-ydpi="235"
   sodipodi:docname="guma.svg">
  <defs
     id="defs4" />
  <sodipodi:namedview
     id="base"
     pagecolor="#ffffff"
     bordercolor="#666666"
     borderopacity="1.0"
     inkscape:pageopacity="0.0"
     inkscape:pageshadow="2"
     inkscape:zoom="1.4"
     inkscape:cx="155.48515"
     inkscape:cy="134.06719"
     inkscape:document-units="px"
     inkscape:current-layer="layer1"
     showgrid="false"
     inkscape:window-width="1600"
     inkscape:window-height="837"
     inkscape:window-x="-8"
     inkscape:window-y="-8"
     inkscape:window-maximized="1" />
  <metadata
     id="metadata7">
    <rdf:RDF>
      <cc:Work
         rdf:about="">
        <dc:format>image/svg+xml</dc:format>
        <dc:type
           rdf:resource="http://purl.org/dc/dcmitype/StillImage" />
        <dc:title></dc:title>
      </cc:Work>
    </rdf:RDF>
  </metadata>
  <g
     inkscape:label="Vrstva 1"
     inkscape:groupmode="layer"
     id="layer1"
     transform="translate(0,-768.89757)">
    <path
       style="fill:#d35f5f;fill-opacity:1;stroke:#000000;stroke-width:1;stroke-linejoin:miter;stroke-miterlimit:4;stroke-dasharray:none;stroke-dashoffset:0;stroke-opacity:1"
       d="M 42.674301,925.91889 142.97835,946.8975 c 7.6688,1.60394 4.49983,-3.80303 3.73422,3.99421 l -9.23187,94.02119 c -0.7656,7.7973 -4.45774,5.44 -12.08593,3.6529 L 6.9311812,1020.812 c -7.62818998,-1.7872 -5.7228,-5.764 -2.89522,-13.0708 L 34.585641,928.79834 c 2.82759,-7.30671 0.41986,-4.48338 8.08866,-2.87945 z"
       id="rect4147"
       inkscape:connector-curvature="0"
       sodipodi:nodetypes="sssssssss" />
    <path
       style="fill:#d35f5f;fill-opacity:1;stroke:#000000;stroke-width:1;stroke-linejoin:miter;stroke-miterlimit:4;stroke-dasharray:none;stroke-dashoffset:0;stroke-opacity:1"
       d="m 189.39897,771.61809 98.86864,25.25381 c 3.32107,0.8483 3.63534,4.14606 1.13642,6.69226 L 149.24536,946.3745 c -2.49892,2.5462 -1.94965,1.71878 -5.3033,1.01015 L 41.159081,925.66637 c -3.35364,-0.70864 -5.85369,-0.55816 -3.40927,-3.15673 L 177.90848,773.51212 c 2.44442,-2.59857 8.16942,-2.74232 11.49049,-1.89403 z"
       id="rect4150"
       inkscape:connector-curvature="0"
       sodipodi:nodetypes="sssssssss" />
    <path
       style="fill:#d35f5f;fill-opacity:1;stroke:#000000;stroke-width:1;stroke-linejoin:miter;stroke-miterlimit:4;stroke-dasharray:none;stroke-dashoffset:0;stroke-opacity:1"
       d="m 291.90149,802.06102 10.48278,45.53571 c 0.76898,3.34032 0.65493,8.0194 -1.66996,10.72544 L 137.61886,1048.1557 c -2.32489,2.706 -0.80016,1.8639 -0.46546,-1.5475 l 7.96238,-81.15432 c 0.3347,-3.41132 0.96075,-15.67531 3.45568,-18.22543 L 288.83931,803.85788 c 2.49493,-2.55012 2.29321,-5.13719 3.06218,-1.79686 z"
       id="rect4153"
       inkscape:connector-curvature="0"
       sodipodi:nodetypes="sssssssss" />
    <path
       style="fill:#cccccc;fill-opacity:1;stroke:#000000;stroke-width:1;stroke-linejoin:miter;stroke-miterlimit:4;stroke-dasharray:none;stroke-dashoffset:0;stroke-opacity:1"
       d="m 186.62104,770.98675 101.64662,26.01143 c 3.32068,0.84977 3.63309,4.01759 1.13641,6.56599 l -67.04887,68.43784 c -2.49669,2.54841 -2.75758,2.80893 -6.06091,1.89403 l -103.03558,-28.5368 c -3.30333,-0.9149 -1.55548,-1.68983 0.88389,-4.29315 l 61.99811,-66.165 c 2.43937,-2.60332 7.15964,-4.7641 10.48033,-3.91434 z"
       id="rect4158"
       inkscape:connector-curvature="0"
       sodipodi:nodetypes="sssssssss" />
    <path
       style="fill:#cccccc;fill-opacity:1;stroke:#000000;stroke-width:1;stroke-linejoin:miter;stroke-miterlimit:4;stroke-dasharray:none;stroke-dashoffset:0;stroke-opacity:1"
       d="m 222.10598,871.92091 67.24965,-68.20851 c 2.40653,-2.44084 1.44899,-7.08068 2.25155,-3.6045 l 11.25001,48.7277 c 0.80255,3.47616 0.34403,7.24283 -1.90147,9.83258 l -70.15358,80.90847 c -2.2455,2.58975 -1.38078,2.09508 -1.86339,-1.43972 l -8.40773,-61.57997 c -0.48262,-3.53481 -0.83157,-2.19521 1.57496,-4.63605 z"
       id="rect4163"
       inkscape:connector-curvature="0"
       sodipodi:nodetypes="sssssssss" />
    <path
       style="fill:#e6e6e6;fill-opacity:1;stroke:#000000;stroke-width:1;stroke-linejoin:miter;stroke-miterlimit:4;stroke-dasharray:none;stroke-dashoffset:0;stroke-opacity:1"
       inkscape:transform-center-x="2.0298196"
       inkscape:transform-center-y="-5.6363207"
       d="m 138.74342,1030.1738 c -0.74575,0.9616 8.22587,-82.11699 7.0202,-82.28201 -1.20567,-0.16503 -83.750259,-16.64709 -84.210179,-17.77375 -0.45992,-1.12665 84.198619,16.07917 84.944369,15.11754 0.74575,-0.96162 51.17201,-49.48705 52.37768,-49.32203 1.20567,0.16503 -51.22006,50.60105 -50.76014,51.7277 0.45992,1.12666 -8.62617,81.57095 -9.37193,82.53255 z"
       id="path4166"
       inkscape:connector-curvature="0"
       sodipodi:nodetypes="sssssss" />
  </g>
</svg>
