<?xml version="1.0" encoding="UTF-8" standalone="no"?>
<!-- Created with Inkscape (http://www.inkscape.org/) -->

<svg
   xmlns:dc="http://purl.org/dc/elements/1.1/"
   xmlns:cc="http://creativecommons.org/ns#"
   xmlns:rdf="http://www.w3.org/1999/02/22-rdf-syntax-ns#"
   xmlns:svg="http://www.w3.org/2000/svg"
   xmlns="http://www.w3.org/2000/svg"
   xmlns:xlink="http://www.w3.org/1999/xlink"
   xmlns:sodipodi="http://sodipodi.sourceforge.net/DTD/sodipodi-0.dtd"
   xmlns:inkscape="http://www.inkscape.org/namespaces/inkscape"
   width="210mm"
   height="297mm"
   viewBox="0 0 744.09448819 1052.3622047"
   id="svg2"
   version="1.1"
   inkscape:version="0.91 r13725"
   sodipodi:docname="papa.svg"
   inkscape:export-filename="C:\Users\Matthess\Desktop\papaMobil2.png"
   inkscape:export-xdpi="235"
   inkscape:export-ydpi="235">
  <defs
     id="defs4">
    <linearGradient
       inkscape:collect="always"
       id="linearGradient4201">
      <stop
         style="stop-color:#000000;stop-opacity:1;"
         offset="0"
         id="stop4203" />
      <stop
         style="stop-color:#000000;stop-opacity:0;"
         offset="1"
         id="stop4205" />
    </linearGradient>
    <linearGradient
       inkscape:collect="always"
       xlink:href="#linearGradient4201"
       id="linearGradient4207"
       x1="580.3239"
       y1="802.75351"
       x2="613.44912"
       y2="802.75351"
       gradientUnits="userSpaceOnUse"
       gradientTransform="translate(0,-32.526912)" />
    <linearGradient
       gradientTransform="translate(2.8e-6,-32.526902)"
       inkscape:collect="always"
       xlink:href="#linearGradient4201"
       id="linearGradient4207-4"
       x1="580.32391"
       y1="802.75354"
       x2="613.4491"
       y2="802.75354"
       gradientUnits="userSpaceOnUse" />
    <linearGradient
       gradientTransform="translate(5.9e-6,-32.526912)"
       inkscape:collect="always"
       xlink:href="#linearGradient4201"
       id="linearGradient4207-40"
       x1="580.32391"
       y1="802.75354"
       x2="613.4491"
       y2="802.75354"
       gradientUnits="userSpaceOnUse" />
    <linearGradient
       gradientTransform="translate(6.3e-6,-32.526902)"
       inkscape:collect="always"
       xlink:href="#linearGradient4201"
       id="linearGradient4207-1"
       x1="580.32391"
       y1="802.75354"
       x2="613.4491"
       y2="802.75354"
       gradientUnits="userSpaceOnUse" />
    <linearGradient
       gradientTransform="translate(2.7e-6,-32.526902)"
       inkscape:collect="always"
       xlink:href="#linearGradient4201"
       id="linearGradient4207-43"
       x1="580.32391"
       y1="802.75354"
       x2="613.4491"
       y2="802.75354"
       gradientUnits="userSpaceOnUse" />
    <linearGradient
       gradientTransform="translate(1.8e-6,-32.526902)"
       inkscape:collect="always"
       xlink:href="#linearGradient4201"
       id="linearGradient4207-0"
       x1="103.02684"
       y1="802.04645"
       x2="136.15202"
       y2="800.6322"
       gradientUnits="userSpaceOnUse" />
    <linearGradient
       gradientTransform="translate(1.6e-6,-32.526912)"
       inkscape:collect="always"
       xlink:href="#linearGradient4201"
       id="linearGradient4207-0-4"
       x1="103.02684"
       y1="802.04645"
       x2="136.15202"
       y2="800.6322"
       gradientUnits="userSpaceOnUse" />
    <linearGradient
       inkscape:collect="always"
       xlink:href="#linearGradient4201"
       id="linearGradient4207-0-2"
       x1="103.02684"
       y1="802.04645"
       x2="136.15202"
       y2="800.6322"
       gradientUnits="userSpaceOnUse"
       gradientTransform="translate(0,-32.526912)" />
    <linearGradient
       gradientTransform="translate(2e-6,-32.526902)"
       inkscape:collect="always"
       xlink:href="#linearGradient4201"
       id="linearGradient4207-0-21"
       x1="103.02684"
       y1="802.04645"
       x2="136.15202"
       y2="800.6322"
       gradientUnits="userSpaceOnUse" />
    <linearGradient
       gradientTransform="translate(4.2e-6,-32.526912)"
       inkscape:collect="always"
       xlink:href="#linearGradient4201"
       id="linearGradient4207-0-5"
       x1="103.02684"
       y1="802.04645"
       x2="136.15202"
       y2="800.6322"
       gradientUnits="userSpaceOnUse" />
  </defs>
  <sodipodi:namedview
     id="base"
     pagecolor="#ffffff"
     bordercolor="#666666"
     borderopacity="1.0"
     inkscape:pageopacity="0.0"
     inkscape:pageshadow="2"
     inkscape:zoom="0.70710678"
     inkscape:cx="557.46305"
     inkscape:cy="222.07343"
     inkscape:document-units="px"
     inkscape:current-layer="layer1"
     showgrid="false"
     inkscape:window-width="1600"
     inkscape:window-height="837"
     inkscape:window-x="-8"
     inkscape:window-y="-8"
     inkscape:window-maximized="1" />
  <metadata
     id="metadata7">
    <rdf:RDF>
      <cc:Work
         rdf:about="">
        <dc:format>image/svg+xml</dc:format>
        <dc:type
           rdf:resource="http://purl.org/dc/dcmitype/StillImage" />
        <dc:title />
      </cc:Work>
    </rdf:RDF>
  </metadata>
  <g
     inkscape:label="Vrstva 1"
     inkscape:groupmode="layer"
     id="layer1">
    <rect
       style="fill:#4894a1;fill-opacity:1;stroke:none;stroke-opacity:1"
       id="rect4160"
       width="600.03058"
       height="0"
       x="87.88327"
       y="530.11334"
       ry="0" />
    <g
       id="g4344"
       transform="translate(0,32.526912)">
      <path
         sodipodi:nodetypes="ccccc"
         inkscape:connector-curvature="0"
         id="rect4147"
         d="m 314.99429,773.2098 c 43.01605,-1.10361 81.63673,1.57364 111.67878,17.62691 l 107.59612,68.23607 -212.13204,141.42132 z"
         style="fill:#e6e6e6;fill-opacity:1;stroke:none;stroke-width:2;stroke-miterlimit:4;stroke-dasharray:none;stroke-opacity:1" />
      <rect
         transform="matrix(0.99772094,0.06747542,-0.08341774,0.99651467,0,0)"
         y="743.43262"
         x="79.111893"
         height="95.425697"
         width="46.376572"
         id="rect4269"
         style="opacity:1;fill:none;fill-opacity:1;stroke:#000000;stroke-width:10.40066433;stroke-linecap:round;stroke-linejoin:round;stroke-miterlimit:4;stroke-dasharray:none;stroke-dashoffset:0;stroke-opacity:1" />
      <path
         sodipodi:nodetypes="sssssssss"
         inkscape:connector-curvature="0"
         id="rect4152"
         d="m 64.252371,614.25871 c 55.274639,-2.19339 117.817789,-1.72091 218.488819,5.40791 17.30502,1.22542 31.41703,149.46792 41.41625,163.64471 34.84514,49.4031 6.95969,102.72686 3.03046,154.55335 -1.3115,17.29872 -13.96637,31.31473 -31.31473,31.31473 l -245.467069,0 c -17.34836,0 -33.307238,-14.08117 -31.314729,-31.31473 8.08122,-69.89591 -8.382344,78.06212 -0.301124,-4.28047 1.694451,-17.26541 28.127406,-318.63763 45.462123,-319.3255 z"
         style="fill:#e6e6e6;fill-opacity:1;stroke:none;stroke-width:1.70000005;stroke-miterlimit:4;stroke-dasharray:none;stroke-opacity:1" />
      <path
         sodipodi:nodetypes="sssssssss"
         inkscape:connector-curvature="0"
         id="rect4155"
         d="m 48.206251,921.70227 270.091909,0 c 22.27328,0 40.20448,18.47164 40.20448,41.41621 l 0,9e-5 c 0,22.94457 -17.9312,41.41623 -40.20448,41.41623 l -270.091909,0 c -22.273278,0 -42.6247213,-0.4631 -41.2353561,-23.363 L 9.0326645,947.18915 C 10.42203,924.28925 25.932973,921.70227 48.206251,921.70227 Z"
         style="fill:#e6e6e6;fill-opacity:1;stroke:none;stroke-width:2;stroke-miterlimit:4;stroke-dasharray:none;stroke-opacity:1" />
      <path
         sodipodi:nodetypes="sssssssss"
         inkscape:connector-curvature="0"
         id="rect4157"
         d="m 518.10668,850.99158 c 59.59903,11.73908 119.19807,14.6744 178.7971,38.38579 20.27932,8.0681 12.13031,24.64649 23.23346,43.43651 l 13.13198,22.22346 c 11.10315,18.79002 -21.6115,45.33946 -43.43651,45.45686 l -187.88847,1.0101 c -21.82501,0.1173 -7.37088,7.0172 -2.02026,-14.14208 l 22.22336,-87.88337 c 5.35062,-21.1593 -25.45455,-52.70512 -4.04066,-48.48727 z"
         style="fill:#e6e6e6;fill-opacity:1;stroke:none;stroke-width:2;stroke-miterlimit:4;stroke-dasharray:none;stroke-opacity:1" />
      <path
         sodipodi:nodetypes="ccccc"
         inkscape:connector-curvature="0"
         id="rect4165"
         d="m 25.222504,891.4679 674.641416,0 -12.12183,107.94587 C 2.9078618,1016.4833 77.129345,1001.8462 26.232657,994.36301 Z"
         style="fill:#e6e6e6;fill-opacity:1;stroke:none;stroke-width:2.1400001;stroke-miterlimit:4;stroke-dasharray:none;stroke-opacity:1" />
      <path
         sodipodi:nodetypes="sssssssss"
         inkscape:connector-curvature="0"
         id="rect4162"
         d="m 85.747298,638.63353 164.135002,2.89805 c 11.9057,0.21021 20.37876,9.53026 21.49387,21.25229 l 18.56289,195.13466 c 1.1151,11.72203 -10.61168,19.41489 -22.47087,18.35426 L 73.046378,858.88456 c -11.85919,-1.06064 -14.46133,-8.53803 -13.67792,-20.28629 l 11.72393,-175.8144 c 0.78342,-11.74826 2.74921,-24.36054 14.65491,-24.15034 z"
         style="fill:#00ffff;fill-opacity:1;stroke:#000000;stroke-width:6.25120735;stroke-miterlimit:4;stroke-dasharray:none;stroke-opacity:1" />
      <rect
         y="855.03217"
         x="313.04578"
         height="111.11678"
         width="217.1828"
         id="rect4167"
         style="fill:#e6e6e6;fill-opacity:1;stroke:none;stroke-width:2.1400001;stroke-miterlimit:4;stroke-dasharray:none;stroke-opacity:1" />
      <rect
         y="777.25043"
         x="320.11682"
         height="85.862968"
         width="22.223356"
         id="rect4169"
         style="fill:#e6e6e6;fill-opacity:1;stroke:none;stroke-width:2.1400001;stroke-miterlimit:4;stroke-dasharray:none;stroke-opacity:1" />
      <path
         sodipodi:nodetypes="cccc"
         inkscape:connector-curvature="0"
         id="rect4163"
         d="m 23.658198,882.57975 c 23.80484,1.81962 27.84174,16.94955 38.32389,44.01098 l -42.046961,-0.0433 c 0.355083,-14.65589 2.056957,-29.31177 3.723071,-43.96766 z"
         style="opacity:1;fill:#b31821;fill-opacity:1;stroke:none;stroke-width:107.18299866;stroke-linecap:round;stroke-linejoin:round;stroke-miterlimit:4;stroke-dasharray:none;stroke-dashoffset:0;stroke-opacity:1" />
      <path
         sodipodi:nodetypes="ccccc"
         inkscape:connector-curvature="0"
         id="rect4166"
         d="m 21.554841,901.47764 30.052303,-0.0485 c 1.414231,2.38847 3.018842,6.39976 4.665178,10.41296 l -35.62117,0.64382 c 0.238002,-3.41653 0.499405,-6.92665 0.903689,-11.0083 z"
         style="opacity:1;fill:#cccccc;fill-opacity:1;stroke:none;stroke-width:107.18299866;stroke-linecap:round;stroke-linejoin:round;stroke-miterlimit:4;stroke-dasharray:none;stroke-dashoffset:0;stroke-opacity:1" />
      <path
         sodipodi:nodetypes="ccccc"
         inkscape:connector-curvature="0"
         id="rect4177"
         d="m 327.80258,784.01904 c 20.4024,-1.69247 47.51097,-0.44436 81.31728,8.5863 36.52736,22.35987 118.69442,61.89585 73.99367,72.98352 L 343.45994,857.2551 Z"
         style="opacity:1;fill:#00ffff;fill-opacity:1;stroke:#000000;stroke-width:2.3829999;stroke-linecap:round;stroke-linejoin:round;stroke-miterlimit:4;stroke-dasharray:none;stroke-dashoffset:0;stroke-opacity:1" />
      <rect
         transform="matrix(0.99995244,0.00975291,-0.00975291,0.99995244,0,0)"
         rx="12.142858"
         ry="12.142858"
         y="938.55518"
         x="219.23689"
         height="13.502907"
         width="292.85715"
         id="rect4271"
         style="opacity:1;fill:#cccccc;fill-opacity:1;stroke:#000000;stroke-width:4.80000019;stroke-linecap:round;stroke-linejoin:round;stroke-miterlimit:4;stroke-dasharray:none;stroke-dashoffset:0;stroke-opacity:1" />
      <path
         sodipodi:nodetypes="ccccccc"
         inkscape:connector-curvature="0"
         id="path4180"
         d="m 506.875,841.89791 4.93097,13.58069 c 3.5299,40.93073 1.50677,81.86145 2.26015,122.79218 l -169.70563,4.04061 -5.05076,-101.01525 -18.59544,-104.21965 -0.32366,-3.98438"
         style="fill:none;fill-rule:evenodd;stroke:#000000;stroke-width:1px;stroke-linecap:butt;stroke-linejoin:miter;stroke-opacity:1" />
      <ellipse
         ry="5.5558391"
         rx="16.414978"
         cy="891.39764"
         cx="363.30084"
         id="path4182"
         style="opacity:1;fill:none;fill-opacity:1;stroke:#000000;stroke-width:2.3829999;stroke-linecap:round;stroke-linejoin:round;stroke-miterlimit:4;stroke-dasharray:none;stroke-dashoffset:0;stroke-opacity:1" />
      <path
         inkscape:connector-curvature="0"
         id="path4184"
         d="m 379.71583,891.52393 -32.57742,-0.25254"
         style="fill:none;fill-rule:evenodd;stroke:#000000;stroke-width:2;stroke-linecap:butt;stroke-linejoin:miter;stroke-miterlimit:4;stroke-dasharray:none;stroke-opacity:1" />
      <path
         sodipodi:nodetypes="ccsc"
         inkscape:connector-curvature="0"
         id="path4186-2"
         d="m 683.57147,999.97783 c -23.95375,-1.26992 -132.92172,2.90947 -149.74746,2.02027 -1.86574,-42.84661 29.90491,-78.63381 74.74746,-75.21262 41.30133,3.15102 75,32.21144 75,73.19235 z"
         style="opacity:1;fill:#000000;fill-opacity:1;stroke:#000000;stroke-width:2;stroke-linecap:round;stroke-linejoin:round;stroke-miterlimit:4;stroke-dasharray:none;stroke-dashoffset:0;stroke-opacity:1" />
      <path
         sodipodi:nodetypes="ccsc"
         inkscape:connector-curvature="0"
         id="path4186-2-2"
         d="m 206.64746,1007.3431 c -25.2521,0.6383 -139.106793,-3.0074 -152.314391,-2.8034 -5.1166,-42.00425 28.912323,-79.72733 78.556581,-79.36059 46.51971,0.34366 81.95146,39.54435 73.75781,82.16399 z"
         style="opacity:1;fill:#000000;fill-opacity:1;stroke:none;stroke-width:2;stroke-linecap:round;stroke-linejoin:round;stroke-miterlimit:4;stroke-dasharray:none;stroke-dashoffset:0;stroke-opacity:1" />
      <path
         inkscape:connector-curvature="0"
         id="path4264"
         d="m 543.2049,976.68724 -23.55701,1.14853 -323.78111,9.55854"
         style="fill:none;fill-rule:evenodd;stroke:#000000;stroke-width:0.99999994px;stroke-linecap:butt;stroke-linejoin:miter;stroke-opacity:1" />
      <path
         sodipodi:nodetypes="ccccccccc"
         inkscape:connector-curvature="0"
         id="rect4266"
         d="m 300.84052,817.46555 c 2.95185,-0.60641 4.89867,-2.51935 6.16841,-5.3125 1.41172,2.17528 2.13203,4.73466 6.41914,5.3125 -0.87753,3.53629 -0.46574,6.93445 3.34821,9.96808 -2.66001,3.18831 -3.88623,7.13125 -3.34821,12.00274 l -5.92807,3.08036 -6.65948,-3.08036 c 1.12626,-4.80836 -0.85721,-8.43207 -3.21429,-11.91345 2.55914,-2.72605 3.8508,-5.98578 3.21429,-10.05737 z"
         style="opacity:1;fill:#ffd42a;fill-opacity:1;stroke:#000000;stroke-width:0.2;stroke-linecap:round;stroke-linejoin:round;stroke-miterlimit:4;stroke-dasharray:none;stroke-dashoffset:0;stroke-opacity:1" />
      <path
         inkscape:connector-curvature="0"
         id="path4514"
         d="m 523.41003,852.25425 0.25254,5.3033 67.68022,9.59645 49.49748,9.59645 51.0127,14.64721 8.08122,4.04061 6.06092,6.06092 4.04061,9.09137 4.04061,10.6066"
         style="fill:#e6e6e6;fill-rule:evenodd;stroke:#000000;stroke-width:1px;stroke-linecap:butt;stroke-linejoin:miter;stroke-opacity:1" />
      <path
         sodipodi:nodetypes="cccc"
         inkscape:connector-curvature="0"
         id="rect4158"
         d="m 705.20319,910.79221 c 6.69805,8.74477 10.80146,16.90131 11.80916,26.59446 -9.02216,1.05452 -17.1573,0.82316 -20.46535,-1.93179 -29.0132,-22.6861 -12.12574,-39.29619 8.65619,-24.66267 z"
         style="opacity:1;fill:#ffdd55;fill-opacity:1;stroke:#000000;stroke-width:0.2;stroke-linecap:round;stroke-linejoin:round;stroke-miterlimit:4;stroke-dasharray:none;stroke-dashoffset:0;stroke-opacity:1" />
      <path
         inkscape:connector-curvature="0"
         id="path4516"
         d="m 722.5,938.50506 -71.07143,2.14286"
         style="fill:none;fill-rule:evenodd;stroke:#000000;stroke-width:1px;stroke-linecap:butt;stroke-linejoin:miter;stroke-opacity:1" />
      <path
         inkscape:connector-curvature="0"
         id="path4518"
         d="m 19.091373,927.00554 94.449267,0.50507"
         style="fill:none;fill-rule:evenodd;stroke:#000000;stroke-width:1px;stroke-linecap:butt;stroke-linejoin:miter;stroke-opacity:1" />
      <g
         transform="translate(10,134)"
         style="opacity:0.54000005"
         id="g4533">
        <path
           style="opacity:1;fill:#008000;fill-opacity:1;stroke:none;stroke-width:2;stroke-linecap:round;stroke-linejoin:round;stroke-miterlimit:4;stroke-dasharray:none;stroke-dashoffset:0;stroke-opacity:1"
           d="m 128.18926,565.1884 c 0,3.16557 46.97199,4.24353 45.99923,7.07919 -0.14669,0.4276 1.23911,3.40071 -0.8618,4.20817 -12.03507,4.62557 -53.26847,12.04202 -54.81435,14.05536 -5.09209,6.63192 -8.45823,4.83566 -17.46575,4.83566 -15.384968,0 -27.856949,-12.47198 -27.856952,-27.85695 -3e-6,-15.38497 12.47198,-27.85696 27.856952,-27.85696 15.38498,0 27.14267,10.15055 27.14267,25.53553 z"
           id="path4273"
           inkscape:connector-curvature="0"
           sodipodi:nodetypes="ssssssss" />
        <path
           style="opacity:1;fill:#f9f9f9;fill-opacity:1;stroke:none;stroke-width:2;stroke-linecap:round;stroke-linejoin:round;stroke-miterlimit:4;stroke-dasharray:none;stroke-dashoffset:0;stroke-opacity:1"
           d="m 88.189671,591.79537 23.332879,1.78571 16.5638,14.13021 8.06518,60.00205 c 30.87993,18.45138 37.93274,41.31519 43.58531,64.4383 L 63.903957,721.7945 62.988072,626.99694 c 13.437675,-34.401 16.921207,-24.00835 25.201599,-35.20157 z"
           id="rect4275"
           inkscape:connector-curvature="0"
           sodipodi:nodetypes="cccccccc" />
        <path
           transform="matrix(0.90609955,-0.42306453,0.42306453,0.90609955,0,0)"
           style="opacity:1;fill:#f9f9f9;fill-opacity:1;stroke:none;stroke-width:2;stroke-linecap:round;stroke-linejoin:round;stroke-miterlimit:4;stroke-dasharray:none;stroke-dashoffset:0;stroke-opacity:1"
           d="m -188.79828,595.88419 97.57077,11.30716 c 6.682444,0.77441 12.1429,4.48651 12.1429,10.05945 0,5.57294 -5.481644,9.12008 -12.1429,10.05946 l -99.12923,13.97935 c -6.66126,0.93939 -3.25091,-18.46587 -3.25091,-24.03881 0,-5.57294 -1.87308,-22.14102 4.80937,-21.36661 z"
           id="rect4279"
           inkscape:connector-curvature="0"
           sodipodi:nodetypes="sssssss" />
        <g
           id="g4505"
           transform="matrix(0.97565357,-0.2193174,0.2193174,0.97565357,-275.8999,90.563738)"
           style="opacity:1">
          <path
             sodipodi:nodetypes="sssssssss"
             inkscape:connector-curvature="0"
             id="rect4293"
             d="m 351.41419,569.55474 3.49163,3.02069 c 4.01238,3.47118 8.81603,2.68827 5.34147,6.92254 l -11.86988,14.4652 c -3.47457,4.23429 -4.27221,7.77245 -8.28459,4.30127 l -3.49163,-3.02068 c -4.01237,-3.47118 -2.95157,-5.13906 -1.25083,-10.78378 l 3.70591,-12.29973 c 1.70077,-5.64473 8.34555,-6.07668 12.35792,-2.60551 z"
             style="opacity:1;fill:#008000;fill-opacity:1;stroke:none;stroke-width:2;stroke-linecap:round;stroke-linejoin:round;stroke-miterlimit:4;stroke-dasharray:none;stroke-dashoffset:0;stroke-opacity:1" />
          <rect
             transform="matrix(0.81680918,0.57690793,-0.57690793,0.81680918,0,0)"
             ry="12.142901"
             rx="12.142901"
             y="239.75323"
             x="607.84912"
             height="39.630978"
             width="8.0273504"
             id="rect4295-8"
             style="opacity:1;fill:#008000;fill-opacity:1;stroke:none;stroke-width:2;stroke-linecap:round;stroke-linejoin:round;stroke-miterlimit:4;stroke-dasharray:none;stroke-dashoffset:0;stroke-opacity:1" />
          <rect
             transform="matrix(0.81680918,0.57690793,-0.57690793,0.81680918,0,0)"
             ry="12.1429"
             rx="12.1429"
             y="239.02356"
             x="620.3114"
             height="46.181198"
             width="8.1578865"
             id="rect4295-1-4"
             style="opacity:1;fill:#008000;fill-opacity:1;stroke:none;stroke-width:2;stroke-linecap:round;stroke-linejoin:round;stroke-miterlimit:4;stroke-dasharray:none;stroke-dashoffset:0;stroke-opacity:1" />
        </g>
        <circle
           style="opacity:1;fill:#ffff00;fill-opacity:1;stroke:none;stroke-width:2;stroke-linecap:round;stroke-linejoin:round;stroke-miterlimit:4;stroke-dasharray:none;stroke-dashoffset:0;stroke-opacity:1"
           id="path4495"
           cx="104.9296"
           cy="564.33228"
           r="4.1668792" />
        <path
           style="opacity:1;fill:#f9f9f9;fill-opacity:1;stroke:none;stroke-width:2;stroke-linecap:round;stroke-linejoin:round;stroke-miterlimit:4;stroke-dasharray:none;stroke-dashoffset:0;stroke-opacity:1"
           d="m 83.159016,528.7522 17.371254,-14.67564 20.09631,15.38993 7.67857,32.60933 -54.788991,-0.17857 z"
           id="rect4384"
           inkscape:connector-curvature="0"
           sodipodi:nodetypes="cccccc" />
        <path
           style="opacity:1;fill:#f2f2f2;fill-opacity:1;stroke:none;stroke-width:2;stroke-linecap:round;stroke-linejoin:round;stroke-miterlimit:4;stroke-dasharray:none;stroke-dashoffset:0;stroke-opacity:1"
           d="m 163.07265,574.78104 -1.74948,0 c -0.18156,3.53995 1.91569,3.96214 1.74948,0 z"
           id="rect4391-07-2"
           inkscape:connector-curvature="0"
           sodipodi:nodetypes="ccc" />
        <path
           style="opacity:1;fill:#f2f2f2;fill-opacity:1;stroke:none;stroke-width:2;stroke-linecap:round;stroke-linejoin:round;stroke-miterlimit:4;stroke-dasharray:none;stroke-dashoffset:0;stroke-opacity:1"
           d="m 155.0133,576.17898 -2.3166,0 c -0.2404,4.68746 2.53669,5.24651 2.3166,0 z"
           id="rect4391-07-1"
           inkscape:connector-curvature="0"
           sodipodi:nodetypes="ccc" />
        <path
           style="opacity:1;fill:#f2f2f2;fill-opacity:1;stroke:none;stroke-width:2;stroke-linecap:round;stroke-linejoin:round;stroke-miterlimit:4;stroke-dasharray:none;stroke-dashoffset:0;stroke-opacity:1"
           d="m 147.53296,576.98255 -2.69101,0 c -0.27926,5.44505 2.94667,6.09445 2.69101,0 z"
           id="rect4391-07-7"
           inkscape:connector-curvature="0"
           sodipodi:nodetypes="ccc" />
        <path
           style="opacity:1;fill:#f2f2f2;fill-opacity:1;stroke:none;stroke-width:2;stroke-linecap:round;stroke-linejoin:round;stroke-miterlimit:4;stroke-dasharray:none;stroke-dashoffset:0;stroke-opacity:1"
           d="m 139.85438,578.00167 -2.69101,0 c -0.27926,5.44505 2.94667,6.09445 2.69101,0 z"
           id="rect4391-07-8"
           inkscape:connector-curvature="0"
           sodipodi:nodetypes="ccc" />
        <path
           style="opacity:1;fill:#f2f2f2;fill-opacity:1;stroke:none;stroke-width:2;stroke-linecap:round;stroke-linejoin:round;stroke-miterlimit:4;stroke-dasharray:none;stroke-dashoffset:0;stroke-opacity:1"
           d="m 131.95392,579.03613 -2.69101,0 c -0.27926,5.44505 2.94667,6.09445 2.69101,0 z"
           id="rect4391-07-0"
           inkscape:connector-curvature="0"
           sodipodi:nodetypes="ccc" />
        <path
           style="opacity:1;fill:#f2f2f2;fill-opacity:1;stroke:none;stroke-width:2;stroke-linecap:round;stroke-linejoin:round;stroke-miterlimit:4;stroke-dasharray:none;stroke-dashoffset:0;stroke-opacity:1"
           d="m 124.99361,579.57183 -3.47562,0 c -0.36068,7.03264 3.80582,7.87138 3.47562,0 z"
           id="rect4391-07"
           inkscape:connector-curvature="0"
           sodipodi:nodetypes="ccc" />
        <path
           style="opacity:1;fill:none;fill-rule:evenodd;stroke:#000000;stroke-width:1px;stroke-linecap:butt;stroke-linejoin:miter;stroke-opacity:1"
           d="m 174.375,573.88006 -58.48214,6.33929"
           id="path4389"
           inkscape:connector-curvature="0" />
        <ellipse
           style="opacity:1;fill:#ff0000;fill-opacity:1;stroke:none;stroke-width:2;stroke-linecap:round;stroke-linejoin:round;stroke-miterlimit:4;stroke-dasharray:none;stroke-dashoffset:0;stroke-opacity:1"
           id="path4497"
           cx="105.05586"
           cy="564.96362"
           rx="1.5152289"
           ry="1.2626907" />
        <ellipse
           style="opacity:1;fill:#000000;fill-opacity:1;stroke:none;stroke-width:2;stroke-linecap:round;stroke-linejoin:round;stroke-miterlimit:4;stroke-dasharray:none;stroke-dashoffset:0;stroke-opacity:1"
           id="path4520"
           cx="169.70563"
           cy="572.3819"
           rx="0.82074893"
           ry="0.66291261" />
      </g>
      <g
         transform="translate(-57.774763,276.51554)"
         id="g4185">
        <path
           style="opacity:1;fill:#cccccc;fill-opacity:1;stroke:none;stroke-width:2;stroke-linecap:round;stroke-linejoin:round;stroke-miterlimit:4;stroke-dasharray:none;stroke-dashoffset:0;stroke-opacity:1"
           d="m 527.62182,559.68566 c 6.45718,1.45612 11.79305,0.47022 24.08333,15.19144 2.7126,4.54697 0.2216,10.90571 -6.51789,10.90571 l -20.42258,0 c -7.34642,0 -10.38506,-7.18729 -10.71433,-13.13786 -0.32646,-5.89958 6.19086,-13.95686 13.57147,-12.95929 z"
           id="rect4179"
           inkscape:connector-curvature="0"
           sodipodi:nodetypes="ccsssc" />
        <path
           style="opacity:1;fill:#6c5353;fill-opacity:1;stroke:none;stroke-width:2;stroke-linecap:round;stroke-linejoin:round;stroke-miterlimit:4;stroke-dasharray:none;stroke-dashoffset:0;stroke-opacity:1"
           d="m 517.24464,569.96748 23.57143,0 c 1.12026,2.74623 0.89471,5.26817 0,7.67857 l -23.57143,0 c -0.58068,-2.55952 -1.07092,-5.11905 0,-7.67857 z"
           id="rect4182"
           inkscape:connector-curvature="0"
           sodipodi:nodetypes="ccccc" />
      </g>
      <path
         sodipodi:nodetypes="ccccc"
         inkscape:connector-curvature="0"
         id="rect4181"
         d="m 590.46468,926.23164 c 10.90963,-1.39879 21.92536,-1.13466 33.07064,1.15976 l 0,87.3633 -33.24742,0 z"
         style="opacity:1;fill:#4d4d4d;fill-opacity:1;stroke:none;stroke-width:0.2;stroke-linecap:round;stroke-linejoin:round;stroke-miterlimit:4;stroke-dasharray:none;stroke-dashoffset:0;stroke-opacity:1" />
      <path
         sodipodi:nodetypes="ccccc"
         inkscape:connector-curvature="0"
         id="rect4181-0"
         d="m 113.75875,926.34261 c 10.93674,-1.23472 22.0754,-2.06635 33.57616,-0.16311 l 0,89.7229 -33.62852,0 z"
         style="opacity:1;fill:#4d4d4d;fill-opacity:1;stroke:none;stroke-width:0.2;stroke-linecap:round;stroke-linejoin:round;stroke-miterlimit:4;stroke-dasharray:none;stroke-dashoffset:0;stroke-opacity:1" />
      <path
         inkscape:connector-curvature="0"
         id="path4199"
         d="m 590.53467,944.35491 32.70368,-15.2028"
         style="fill:none;fill-rule:evenodd;stroke:url(#linearGradient4207);stroke-width:1px;stroke-linecap:butt;stroke-linejoin:miter;stroke-opacity:1" />
      <path
         inkscape:connector-curvature="0"
         id="path4199-2"
         d="m 590.09272,960.44159 32.70368,-15.2028"
         style="fill:none;fill-rule:evenodd;stroke:url(#linearGradient4207-4);stroke-width:1px;stroke-linecap:butt;stroke-linejoin:miter;stroke-opacity:1" />
      <path
         inkscape:connector-curvature="0"
         id="path4199-0"
         d="m 590.62306,976.70505 32.70368,-15.2028"
         style="fill:none;fill-rule:evenodd;stroke:url(#linearGradient4207-40);stroke-width:1px;stroke-linecap:butt;stroke-linejoin:miter;stroke-opacity:1" />
      <path
         inkscape:connector-curvature="0"
         id="path4199-4"
         d="m 590.79984,993.14528 32.70368,-15.2028"
         style="fill:none;fill-rule:evenodd;stroke:url(#linearGradient4207-1);stroke-width:1px;stroke-linecap:butt;stroke-linejoin:miter;stroke-opacity:1" />
      <path
         inkscape:connector-curvature="0"
         id="path4199-00"
         d="m 590.62305,1009.5855 32.70368,-15.20279"
         style="fill:none;fill-rule:evenodd;stroke:url(#linearGradient4207-43);stroke-width:1px;stroke-linecap:butt;stroke-linejoin:miter;stroke-opacity:1" />
      <path
         inkscape:connector-curvature="0"
         id="path4199-5"
         d="m 113.9447,941.79165 32.70368,-15.2028"
         style="fill:none;fill-rule:evenodd;stroke:url(#linearGradient4207-0);stroke-width:1px;stroke-linecap:butt;stroke-linejoin:miter;stroke-opacity:1" />
      <path
         inkscape:connector-curvature="0"
         id="path4199-5-7"
         d="m 114.03309,958.05511 32.70368,-15.2028"
         style="fill:none;fill-rule:evenodd;stroke:url(#linearGradient4207-0-4);stroke-width:1px;stroke-linecap:butt;stroke-linejoin:miter;stroke-opacity:1" />
      <path
         inkscape:connector-curvature="0"
         id="path4199-5-8"
         d="m 114.03309,974.49534 32.70368,-15.2028"
         style="fill:none;fill-rule:evenodd;stroke:url(#linearGradient4207-0-2);stroke-width:1px;stroke-linecap:butt;stroke-linejoin:miter;stroke-opacity:1" />
      <path
         inkscape:connector-curvature="0"
         id="path4199-5-71"
         d="m 114.12148,990.6704 32.70368,-15.2028"
         style="fill:none;fill-rule:evenodd;stroke:url(#linearGradient4207-0-21);stroke-width:1px;stroke-linecap:butt;stroke-linejoin:miter;stroke-opacity:1" />
      <path
         inkscape:connector-curvature="0"
         id="path4199-5-77"
         d="m 114.20987,1007.199 32.70368,-15.20277"
         style="fill:none;fill-rule:evenodd;stroke:url(#linearGradient4207-0-5);stroke-width:1px;stroke-linecap:butt;stroke-linejoin:miter;stroke-opacity:1" />
    </g>
  </g>
</svg>
