<?xml version="1.0" encoding="UTF-8" standalone="no"?>
<!-- Created with Inkscape (http://www.inkscape.org/) -->

<svg
   xmlns:dc="http://purl.org/dc/elements/1.1/"
   xmlns:cc="http://creativecommons.org/ns#"
   xmlns:rdf="http://www.w3.org/1999/02/22-rdf-syntax-ns#"
   xmlns:svg="http://www.w3.org/2000/svg"
   xmlns="http://www.w3.org/2000/svg"
   xmlns:sodipodi="http://sodipodi.sourceforge.net/DTD/sodipodi-0.dtd"
   xmlns:inkscape="http://www.inkscape.org/namespaces/inkscape"
   width="1000"
   height="1000"
   viewBox="0 0 1000 1000"
   id="svg2"
   version="1.1"
   inkscape:version="0.91 r13725"
   sodipodi:docname="aglogo.svg"
   inkscape:export-filename="C:\Users\Q7W5\Desktop\aglogo.png"
   inkscape:export-xdpi="46.080002"
   inkscape:export-ydpi="46.080002">
  <sodipodi:namedview
     showguides="false"
     id="base"
     pagecolor="#ffffff"
     bordercolor="#666666"
     borderopacity="1.0"
     inkscape:pageopacity="0.0"
     inkscape:pageshadow="2"
     inkscape:zoom="0.24748737"
     inkscape:cx="-840.61011"
     inkscape:cy="251.69561"
     inkscape:document-units="px"
     inkscape:current-layer="layer3"
     showgrid="false"
     inkscape:window-width="1366"
     inkscape:window-height="706"
     inkscape:window-x="-8"
     inkscape:window-y="-8"
     inkscape:window-maximized="1"
     inkscape:snap-nodes="true"
     inkscape:object-paths="true"
     inkscape:snap-intersection-paths="true"
     inkscape:object-nodes="true"
     inkscape:guide-bbox="true"
     inkscape:snap-smooth-nodes="true"
     inkscape:snap-midpoints="true"
     units="px" />
  <defs
     id="defs4">
    <clipPath
       clipPathUnits="userSpaceOnUse"
       id="clipPath9427">
      <circle
         r="89.90358"
         cy="154.33696"
         cx="432.59174"
         id="circle9429"
         style="display:inline;opacity:1;fill:#009688;fill-opacity:1;fill-rule:nonzero;stroke:none;stroke-width:20.20000076;stroke-linecap:round;stroke-linejoin:round;stroke-miterlimit:4;stroke-dasharray:none;stroke-dashoffset:0;stroke-opacity:1" />
    </clipPath>
    <clipPath
       clipPathUnits="userSpaceOnUse"
       id="clipPath9427-9">
      <circle
         r="89.90358"
         cy="154.33696"
         cx="432.59174"
         id="circle9429-6"
         style="display:inline;opacity:1;fill:#009688;fill-opacity:1;fill-rule:nonzero;stroke:none;stroke-width:20.20000076;stroke-linecap:round;stroke-linejoin:round;stroke-miterlimit:4;stroke-dasharray:none;stroke-dashoffset:0;stroke-opacity:1" />
    </clipPath>
    <clipPath
       clipPathUnits="userSpaceOnUse"
       id="clipPath9427-7">
      <circle
         r="89.90358"
         cy="154.33696"
         cx="432.59174"
         id="circle9429-7"
         style="display:inline;opacity:1;fill:#009688;fill-opacity:1;fill-rule:nonzero;stroke:none;stroke-width:20.20000076;stroke-linecap:round;stroke-linejoin:round;stroke-miterlimit:4;stroke-dasharray:none;stroke-dashoffset:0;stroke-opacity:1" />
    </clipPath>
    <clipPath
       clipPathUnits="userSpaceOnUse"
       id="clipPath5552">
      <g
         id="g5554"
         transform="matrix(2.1998315,0,0,2.1998315,36.957064,-1521.2999)">
        <g
           id="g5556">
          <circle
             style="display:inline;opacity:1;fill:#ff2a2a;fill-opacity:1;fill-rule:nonzero;stroke:none;stroke-width:20.20000076;stroke-linecap:round;stroke-linejoin:round;stroke-miterlimit:4;stroke-dasharray:none;stroke-dashoffset:0;stroke-opacity:1"
             id="circle5558"
             cx="89.90358"
             cy="877.90662"
             r="89.90358" />
          <g
             id="g5560"
             transform="matrix(0.64184592,0,0,0.64184592,-95.737604,404.40028)">
            <rect
               ry="19.353542"
               y="807.1095"
               x="247.30881"
               height="38.707085"
               width="83.842659"
               id="rect5562"
               style="opacity:1;fill:#ffffff;fill-opacity:1;fill-rule:nonzero;stroke:#ffffff;stroke-width:0.0009609;stroke-linecap:round;stroke-linejoin:round;stroke-miterlimit:4;stroke-dasharray:none;stroke-dashoffset:0;stroke-opacity:1" />
            <g
               style="fill:#5677fc;fill-opacity:1;stroke:#5677fc;stroke-opacity:1"
               transform="translate(-1.8469903,2.7616043)"
               id="g5564">
              <rect
                 style="opacity:1;fill:#5677fc;fill-opacity:1;fill-rule:nonzero;stroke:#5677fc;stroke-width:2.00099993;stroke-linecap:round;stroke-linejoin:round;stroke-miterlimit:4;stroke-dasharray:none;stroke-dashoffset:0;stroke-opacity:1"
                 id="rect5566"
                 width="3.2143142"
                 height="16.071571"
                 x="822.0943"
                 y="-279.10724"
                 ry="1.6071571"
                 transform="matrix(0,1,-1,0,0,0)" />
              <rect
                 style="opacity:1;fill:#5677fc;fill-opacity:1;fill-rule:nonzero;stroke:#5677fc;stroke-width:2.00099993;stroke-linecap:round;stroke-linejoin:round;stroke-miterlimit:4;stroke-dasharray:none;stroke-dashoffset:0;stroke-opacity:1"
                 id="rect5568"
                 width="3.2143142"
                 height="16.071571"
                 x="269.46429"
                 y="815.66565"
                 ry="1.6071571" />
            </g>
            <g
               transform="translate(-1.0434189,2.1294044)"
               id="g5570">
              <path
                 style="opacity:1;fill:#e51c23;fill-opacity:1;fill-rule:nonzero;stroke:none;stroke-width:2.00099993;stroke-linecap:round;stroke-linejoin:round;stroke-miterlimit:4;stroke-dasharray:none;stroke-dashoffset:0;stroke-opacity:1"
                 d="m 306.69343,824.33363 a 3.2833234,3.2833234 0 0 1 -3.28333,3.28332 3.2833234,3.2833234 0 0 1 -3.28332,-3.28332 3.2833234,3.2833234 0 0 1 3.28332,-3.28333 3.2833234,3.2833234 0 0 1 3.28333,3.28333 z"
                 id="path5572"
                 inkscape:connector-curvature="0" />
              <path
                 style="opacity:1;fill:#ff9800;fill-opacity:1;fill-rule:nonzero;stroke:none;stroke-width:2.00099993;stroke-linecap:round;stroke-linejoin:round;stroke-miterlimit:4;stroke-dasharray:none;stroke-dashoffset:0;stroke-opacity:1"
                 d="m 313.26008,830.90029 a 3.2833234,3.2833234 0 0 1 -3.28333,3.28332 3.2833234,3.2833234 0 0 1 -3.28332,-3.28332 3.2833234,3.2833234 0 0 1 3.28332,-3.28333 3.2833234,3.2833234 0 0 1 3.28333,3.28333 z"
                 id="path5574"
                 inkscape:connector-curvature="0" />
              <path
                 style="opacity:1;fill:#5677fc;fill-opacity:1;fill-rule:nonzero;stroke:none;stroke-width:2.00099993;stroke-linecap:round;stroke-linejoin:round;stroke-miterlimit:4;stroke-dasharray:none;stroke-dashoffset:0;stroke-opacity:1"
                 d="m 313.26008,817.76698 a 3.2833234,3.2833234 0 0 1 -3.28333,3.28333 3.2833234,3.2833234 0 0 1 -3.28332,-3.28333 3.2833234,3.2833234 0 0 1 3.28332,-3.28332 3.2833234,3.2833234 0 0 1 3.28333,3.28332 z"
                 id="path5576"
                 inkscape:connector-curvature="0" />
              <path
                 style="opacity:1;fill:#259b24;fill-opacity:1;fill-rule:nonzero;stroke:none;stroke-width:2.00099993;stroke-linecap:round;stroke-linejoin:round;stroke-miterlimit:4;stroke-dasharray:none;stroke-dashoffset:0;stroke-opacity:1"
                 d="m 319.82673,824.33364 a 3.2833234,3.2833234 0 0 1 -3.28333,3.28332 3.2833234,3.2833234 0 0 1 -3.28332,-3.28332 3.2833234,3.2833234 0 0 1 3.28332,-3.28333 3.2833234,3.2833234 0 0 1 3.28333,3.28333 z"
                 id="path5578"
                 inkscape:connector-curvature="0" />
            </g>
          </g>
        </g>
      </g>
    </clipPath>
  </defs>
  <metadata
     id="metadata7">
    <rdf:RDF>
      <cc:Work
         rdf:about="">
        <dc:format>image/svg+xml</dc:format>
        <dc:type
           rdf:resource="http://purl.org/dc/dcmitype/StillImage" />
        <dc:title />
      </cc:Work>
    </rdf:RDF>
  </metadata>
  <g
     inkscape:label="Vrstva 1"
     inkscape:groupmode="layer"
     id="layer1"
     transform="translate(0,-52.36216)">
    <g
       transform="matrix(5.5615136,0,0,5.5615138,0,-4330.1275)"
       id="g5526">
      <g
         id="g5528">
        <circle
           r="89.90358"
           cy="877.90662"
           cx="89.90358"
           id="circle5530"
           style="display:inline;opacity:1;fill:#ff2a2a;fill-opacity:1;fill-rule:nonzero;stroke:none;stroke-width:20.20000076;stroke-linecap:round;stroke-linejoin:round;stroke-miterlimit:4;stroke-dasharray:none;stroke-dashoffset:0;stroke-opacity:1" />
      </g>
    </g>
    <g
       transform="matrix(2.5281544,0,0,2.5281544,-93.433165,-484.04648)"
       style="font-style:normal;font-variant:normal;font-weight:bold;font-stretch:normal;font-size:180px;line-height:125%;font-family:Quicksand;-inkscape-font-specification:'Quicksand Bold';letter-spacing:0px;word-spacing:0px;fill:#ffffff;fill-opacity:1;stroke:none;stroke-width:1px;stroke-linecap:butt;stroke-linejoin:miter;stroke-opacity:1"
       id="flowRoot3492"
       clip-path="url(#clipPath5552)">
      <g
         id="g5095"
         style="fill:#000000;fill-opacity:1;opacity:0.22">
        <path
           inkscape:connector-curvature="0"
           d="m 203.22773,468.44677 c 0.48829,1.34279 1.24563,2.4993 2.1878,3.44148 L 912.52231,1178.995 c -0.94217,-0.9421 -1.69951,-2.0987 -2.1878,-3.4414 z"
           id="path5097"
           style="fill:#000000;fill-opacity:1" />
        <path
           inkscape:connector-curvature="0"
           d="m 205.41553,471.88825 c 1.8364,1.83639 4.37499,2.85852 6.9922,2.85852 l 707.10678,707.10683 c -2.61721,0 -5.1558,-1.0222 -6.9922,-2.8586 z"
           id="path5099"
           style="fill:#000000;fill-opacity:1" />
        <path
           inkscape:connector-curvature="0"
           d="m 212.40773,474.74677 c 1.26,0 2.52,-0.18 3.42,-0.54 l 707.10678,707.10683 c -0.9,0.36 -2.16,0.54 -3.42,0.54 z"
           id="path5101"
           style="fill:#000000;fill-opacity:1" />
        <path
           inkscape:connector-curvature="0"
           d="m 215.82773,474.20677 c 5.22,-1.98 7.74,-7.74 5.94,-12.96 l 707.10678,707.10683 c 1.8,5.22 -0.72,10.98 -5.94,12.96 z"
           id="path5103"
           style="fill:#000000;fill-opacity:1" />
        <path
           inkscape:connector-curvature="0"
           d="m 221.76773,461.24677 -39.78,-106.02 707.10678,707.10683 39.78,106.02 z"
           id="path5105"
           style="fill:#000000;fill-opacity:1" />
        <path
           inkscape:connector-curvature="0"
           d="m 181.98773,355.22677 c -0.54,-1.32 -1.32,-2.48 -2.27333,-3.43333 l 707.10678,707.10676 c 0.95333,0.9534 1.73333,2.1134 2.27333,3.4334 z"
           id="path5107"
           style="fill:#000000;fill-opacity:1" />
        <path
           inkscape:connector-curvature="0"
           d="m 179.7144,351.79344 c -1.90667,-1.90667 -4.50667,-2.98667 -7.26667,-2.86667 l 707.10678,707.10683 c 2.76,-0.12 5.36,0.96 7.26667,2.8666 z"
           id="path5109"
           style="fill:#000000;fill-opacity:1" />
        <path
           inkscape:connector-curvature="0"
           d="m 172.44773,348.92677 c -3.96,-0.18 -7.92,2.34 -9.54,6.3 l 707.10678,707.10683 c 1.62,-3.96 5.58,-6.48 9.54,-6.3 z"
           id="path5111"
           style="fill:#000000;fill-opacity:1" />
        <path
           inkscape:connector-curvature="0"
           d="m 162.90773,355.22677 -39.78,106.02 707.10678,707.10683 39.78,-106.02 z"
           id="path5113"
           style="fill:#000000;fill-opacity:1" />
        <path
           inkscape:connector-curvature="0"
           d="m 123.12773,461.24677 c -1.32375,3.83887 -0.31108,7.96979 2.39365,10.67453 l 707.10679,707.1068 c -2.70474,-2.7048 -3.71741,-6.8357 -2.39366,-10.6745 z"
           id="path5115"
           style="fill:#000000;fill-opacity:1" />
        <path
           inkscape:connector-curvature="0"
           d="m 125.52138,471.9213 c 0.9731,0.9731 2.16522,1.76159 3.54635,2.28547 l 707.10678,707.10683 c -1.38113,-0.5239 -2.57325,-1.3124 -3.54634,-2.2855 z"
           id="path5117"
           style="fill:#000000;fill-opacity:1" />
        <path
           inkscape:connector-curvature="0"
           d="m 129.06773,474.20677 c 1.08,0.36 2.16,0.54 3.42,0.54 l 707.10678,707.10683 c -1.26,0 -2.34,-0.18 -3.42,-0.54 z"
           id="path5119"
           style="fill:#000000;fill-opacity:1" />
        <path
           inkscape:connector-curvature="0"
           d="m 132.48773,474.74677 c 3.96,0 7.74,-2.34 9.36,-6.3 l 707.10678,707.10683 c -1.62,3.96 -5.4,6.3 -9.36,6.3 z"
           id="path5121"
           style="fill:#000000;fill-opacity:1" />
        <path
           inkscape:connector-curvature="0"
           d="m 141.84773,468.44677 8.82,-23.4 707.10678,707.10683 -8.82,23.4 z"
           id="path5123"
           style="fill:#000000;fill-opacity:1" />
        <path
           inkscape:connector-curvature="0"
           d="m 150.66773,445.04677 43.74,0 707.10678,707.10683 -43.74,0 z"
           id="path5125"
           style="fill:#000000;fill-opacity:1" />
        <path
           inkscape:connector-curvature="0"
           d="m 194.40773,445.04677 8.82,23.4 707.10678,707.10683 -8.82,-23.4 z"
           id="path5127"
           style="fill:#000000;fill-opacity:1" />
        <path
           inkscape:connector-curvature="0"
           d="m 157.86773,425.24677 14.58,-38.7 707.10678,707.10683 -14.58,38.7 z"
           id="path5129"
           style="fill:#000000;fill-opacity:1" />
        <path
           inkscape:connector-curvature="0"
           d="m 172.44773,386.54677 14.58,38.7 707.10678,707.10683 -14.58,-38.7 z"
           id="path5131"
           style="fill:#000000;fill-opacity:1" />
        <path
           inkscape:connector-curvature="0"
           d="m 187.02773,425.24677 -29.16,0 707.10678,707.10683 29.16,0 z"
           id="path5133"
           style="fill:#000000;fill-opacity:1" />
      </g>
      <path
         inkscape:connector-curvature="0"
         id="path4412"
         d="m 203.22773,468.44677 c 1.44,3.96 5.22,6.3 9.18,6.3 1.26,0 2.52,-0.18 3.42,-0.54 5.22,-1.98 7.74,-7.74 5.94,-12.96 l -39.78,-106.02 c -1.62,-3.96 -5.4,-6.48 -9.54,-6.3 -3.96,-0.18 -7.92,2.34 -9.54,6.3 l -39.78,106.02 c -1.8,5.22 0.72,10.98 5.94,12.96 1.08,0.36 2.16,0.54 3.42,0.54 3.96,0 7.74,-2.34 9.36,-6.3 l 8.82,-23.4 43.74,0 8.82,23.4 z m -45.36,-43.2 14.58,-38.7 14.58,38.7 -29.16,0 z" />
      <g
         id="g5138"
         style="fill:#000000;fill-opacity:1;opacity:0.22">
        <path
           inkscape:connector-curvature="0"
           d="m 301.72992,474.74677 c 15.3,0 29.52,-5.22 40.86,-14.04 l 707.10678,707.10683 c -11.34,8.82 -25.56,14.04 -40.86,14.04 z"
           id="path5140"
           style="fill:#000000;fill-opacity:1" />
        <path
           inkscape:connector-curvature="0"
           d="m 342.58992,460.70677 c 1.8,-1.26 2.88,-2.7 3.42,-4.32 l 707.10678,707.10683 c -0.54,1.62 -1.62,3.06 -3.42,4.32 z"
           id="path5142"
           style="fill:#000000;fill-opacity:1" />
        <path
           inkscape:connector-curvature="0"
           d="m 346.00992,456.38677 c 0,0 0,-0.18 0,-0.18 l 707.10678,707.10683 c 0,0 0,0.18 0,0.18 z"
           id="path5144"
           style="fill:#000000;fill-opacity:1" />
        <path
           inkscape:connector-curvature="0"
           d="m 346.00992,456.20677 c 0.18,-0.36 0.18,-0.54 0.36,-0.9 l 707.10678,707.10683 c -0.18,0.36 -0.18,0.54 -0.36,0.9 z"
           id="path5146"
           style="fill:#000000;fill-opacity:1" />
        <path
           inkscape:connector-curvature="0"
           d="m 346.36992,455.30677 c 0.18,-1.08 0.54,-1.8 0.54,-3.06 l 707.10678,707.10683 c 0,1.26 -0.36,1.98 -0.54,3.06 z"
           id="path5148"
           style="fill:#000000;fill-opacity:1" />
        <path
           inkscape:connector-curvature="0"
           d="m 346.90992,452.24677 0,-39.78 707.10678,707.10683 0,39.78 z"
           id="path5150"
           style="fill:#000000;fill-opacity:1" />
        <path
           inkscape:connector-curvature="0"
           d="m 346.90992,412.46677 c 0,-2.79009 -1.09809,-5.2423 -2.8851,-7.02932 l 707.10678,707.10675 c 1.787,1.787 2.8851,4.2393 2.8851,7.0294 z"
           id="path5152"
           style="fill:#000000;fill-opacity:1" />
        <path
           inkscape:connector-curvature="0"
           d="m 344.02482,405.43745 c -1.9022,-1.90219 -4.58499,-3.05068 -7.5549,-3.05068 l 707.10678,707.10683 c 2.9699,0 5.6527,1.1484 7.5549,3.0506 z"
           id="path5154"
           style="fill:#000000;fill-opacity:1" />
        <path
           inkscape:connector-curvature="0"
           d="m 336.46992,402.38677 c 0,0 0,0 -0.18,0 l 707.10678,707.10683 c 0.18,0 0.18,0 0.18,0 z"
           id="path5156"
           style="fill:#000000;fill-opacity:1" />
        <path
           inkscape:connector-curvature="0"
           d="m 336.28992,402.38677 c 0,0 0,0 -0.18,0 l 707.10678,707.10683 c 0.18,0 0.18,0 0.18,0 z"
           id="path5158"
           style="fill:#000000;fill-opacity:1" />
        <path
           inkscape:connector-curvature="0"
           d="m 336.10992,402.38677 -35.46,0 707.10678,707.10683 35.46,0 z"
           id="path5160"
           style="fill:#000000;fill-opacity:1" />
        <path
           inkscape:connector-curvature="0"
           d="m 300.64992,402.38677 c -5.58,0 -10.26,4.32 -10.26,10.08 L 997.4967,1119.5736 c 0,-5.76 4.68,-10.08 10.26,-10.08 z"
           id="path5162"
           style="fill:#000000;fill-opacity:1" />
        <path
           inkscape:connector-curvature="0"
           d="m 290.38992,412.46677 c 0,5.58 4.68,10.26 10.26,10.26 l 707.10678,707.10683 c -5.58,0 -10.26,-4.68 -10.26,-10.26 z"
           id="path5164"
           style="fill:#000000;fill-opacity:1" />
        <path
           inkscape:connector-curvature="0"
           d="m 300.64992,422.72677 25.74,0 707.10678,707.10683 -25.74,0 z"
           id="path5166"
           style="fill:#000000;fill-opacity:1" />
        <path
           inkscape:connector-curvature="0"
           d="m 326.38992,422.72677 0,24.66 707.10678,707.10683 0,-24.66 z"
           id="path5168"
           style="fill:#000000;fill-opacity:1" />
        <path
           inkscape:connector-curvature="0"
           d="m 326.38992,447.38677 c -7.2,4.14 -15.66,6.84 -24.66,6.84 l 707.10678,707.10683 c 9,0 17.46,-2.7 24.66,-6.84 z"
           id="path5170"
           style="fill:#000000;fill-opacity:1" />
        <path
           inkscape:connector-curvature="0"
           d="m 301.72992,454.22677 c -12.78483,0 -23.99316,-4.72951 -32.06979,-12.80614 l 707.10678,707.10677 c 8.07663,8.0766 19.28496,12.8062 32.06979,12.8062 z"
           id="path5172"
           style="fill:#000000;fill-opacity:1" />
        <path
           inkscape:connector-curvature="0"
           d="m 269.66013,441.42063 c -0.11066,-0.11066 -0.22073,-0.22195 -0.33021,-0.33386 L 976.4367,1148.1936 c 0.10948,0.1119 0.21955,0.2232 0.33021,0.3338 z"
           id="path5174"
           style="fill:#000000;fill-opacity:1" />
        <path
           inkscape:connector-curvature="0"
           d="m 269.32992,441.08677 c -0.24191,-0.23162 -0.48103,-0.46559 -0.71731,-0.70187 l 707.10678,707.1068 c 0.23628,0.2363 0.4754,0.4702 0.71731,0.7019 z"
           id="path5176"
           style="fill:#000000;fill-opacity:1" />
        <path
           inkscape:connector-curvature="0"
           d="m 268.61261,440.3849 c -8.0268,-8.02681 -12.78269,-18.71784 -12.78269,-30.25813 L 962.9367,1117.2336 c 0,11.5402 4.75589,22.2313 12.78269,30.2581 z"
           id="path5178"
           style="fill:#000000;fill-opacity:1" />
        <path
           inkscape:connector-curvature="0"
           d="m 255.82992,410.12677 c 0,-12.24 5.04,-23.22 13.5,-31.32 L 976.4367,1085.9136 c -8.46,8.1 -13.5,19.08 -13.5,31.32 z"
           id="path5180"
           style="fill:#000000;fill-opacity:1" />
        <path
           inkscape:connector-curvature="0"
           d="m 269.32992,378.80677 c 8.1,-8.28 19.44,-13.14 32.4,-13.14 l 707.10678,707.10683 c -12.96,0 -24.3,4.86 -32.4,13.14 z"
           id="path5182"
           style="fill:#000000;fill-opacity:1" />
        <path
           inkscape:connector-curvature="0"
           d="m 301.72992,365.66677 c 10.8,0 20.7,3.78 28.44,9.72 l 707.10678,707.10683 c -7.74,-5.94 -17.64,-9.72 -28.44,-9.72 z"
           id="path5184"
           style="fill:#000000;fill-opacity:1" />
        <path
           inkscape:connector-curvature="0"
           d="m 330.16992,375.38677 c 4.5,3.6 11.16,2.7 14.58,-1.62 l 707.10678,707.10683 c -3.42,4.32 -10.08,5.22 -14.58,1.62 z"
           id="path5186"
           style="fill:#000000;fill-opacity:1" />
        <path
           inkscape:connector-curvature="0"
           d="m 344.74992,373.76677 c 3.1106,-4.0929 2.79639,-9.97266 -0.80721,-13.57626 l 707.10679,707.10679 c 3.6036,3.6036 3.9178,9.4834 0.8072,13.5763 z"
           id="path5188"
           style="fill:#000000;fill-opacity:1" />
        <path
           inkscape:connector-curvature="0"
           d="m 343.94271,360.19051 c -0.35843,-0.35843 -0.74941,-0.69434 -1.17279,-1.00374 l 707.10678,707.10683 c 0.4234,0.3093 0.8144,0.6453 1.1728,1.0037 z"
           id="path5190"
           style="fill:#000000;fill-opacity:1" />
        <path
           inkscape:connector-curvature="0"
           d="m 342.76992,359.18677 c -11.16,-8.82 -25.74,-14.04 -41.04,-14.04 l 707.10678,707.10683 c 15.3,0 29.88,5.22 41.04,14.04 z"
           id="path5192"
           style="fill:#000000;fill-opacity:1" />
        <path
           inkscape:connector-curvature="0"
           d="m 301.72992,345.14677 c -36.54,0 -66.42,28.8 -66.42,64.98 L 942.4167,1117.2336 c 0,-36.18 29.88,-64.98 66.42,-64.98 z"
           id="path5194"
           style="fill:#000000;fill-opacity:1" />
        <path
           inkscape:connector-curvature="0"
           d="m 235.30992,410.12677 c 0,17.62046 7.1583,33.4729 18.75216,45.06676 L 961.16886,1162.3003 C 949.575,1150.7065 942.4167,1134.854 942.4167,1117.2336 Z"
           id="path5196"
           style="fill:#000000;fill-opacity:1" />
        <path
           inkscape:connector-curvature="0"
           d="m 254.06208,455.19353 c 12.09332,12.09332 29.0126,19.55324 47.66784,19.55324 l 707.10678,707.10683 c -18.65524,0 -35.57452,-7.46 -47.66784,-19.5533 z"
           id="path5198"
           style="fill:#000000;fill-opacity:1" />
        <path
           inkscape:connector-curvature="0"
           d="m 301.72992,474.74677 c 0,0 0,0 0,0 l 707.10678,707.10683 c 0,0 0,0 0,0 z"
           id="path5200"
           style="fill:#000000;fill-opacity:1" />
      </g>
      <path
         inkscape:connector-curvature="0"
         id="path4414"
         d="m 301.72992,474.74677 c 15.3,0 29.52,-5.22 40.86,-14.04 1.8,-1.26 2.88,-2.7 3.42,-4.32 0,0 0,-0.18 0,-0.18 0.18,-0.36 0.18,-0.54 0.36,-0.9 0.18,-1.08 0.54,-1.8 0.54,-3.06 l 0,-39.78 c 0,-5.76 -4.68,-10.08 -10.44,-10.08 0,0 0,0 -0.18,0 0,0 0,0 -0.18,0 l -35.46,0 c -5.58,0 -10.26,4.32 -10.26,10.08 0,5.58 4.68,10.26 10.26,10.26 l 25.74,0 0,24.66 c -7.2,4.14 -15.66,6.84 -24.66,6.84 -12.96,0 -24.3,-4.86 -32.4,-13.14 -8.46,-8.1 -13.5,-19.08 -13.5,-30.96 0,-12.24 5.04,-23.22 13.5,-31.32 8.1,-8.28 19.44,-13.14 32.4,-13.14 10.8,0 20.7,3.78 28.44,9.72 4.5,3.6 11.16,2.7 14.58,-1.62 3.42,-4.5 2.7,-11.16 -1.98,-14.58 -11.16,-8.82 -25.74,-14.04 -41.04,-14.04 -36.54,0 -66.42,28.8 -66.42,64.98 0,36 29.88,64.62 66.42,64.62 0,0 0,0 0,0 z" />
    </g>
    <g
       id="g3508">
      <g
         transform="matrix(2.5281544,0,0,2.5281544,-93.433165,-473.12425)"
         style="font-style:normal;font-variant:normal;font-weight:bold;font-stretch:normal;font-size:180px;line-height:125%;font-family:Quicksand;-inkscape-font-specification:'Quicksand Bold';letter-spacing:0px;word-spacing:0px;opacity:0.09090899;fill:#ffffff;fill-opacity:1;stroke:none;stroke-width:1px;stroke-linecap:butt;stroke-linejoin:miter;stroke-opacity:1"
         id="flowRoot3510" />
      <g
         transform="matrix(2.5281544,0,0,2.5281544,-93.433165,-473.12425)"
         style="font-style:normal;font-variant:normal;font-weight:bold;font-stretch:normal;font-size:180px;line-height:125%;font-family:Quicksand;-inkscape-font-specification:'Quicksand Bold';letter-spacing:0px;word-spacing:0px;opacity:0.09090899;fill:#ffffff;fill-opacity:1;stroke:none;stroke-width:1px;stroke-linecap:butt;stroke-linejoin:miter;stroke-opacity:1"
         id="flowRoot3519" />
      <g
         transform="matrix(2.5281544,0,0,2.5281544,-93.433165,-473.12425)"
         style="font-style:normal;font-variant:normal;font-weight:bold;font-stretch:normal;font-size:180px;line-height:125%;font-family:Quicksand;-inkscape-font-specification:'Quicksand Bold';letter-spacing:0px;word-spacing:0px;opacity:0.09090899;fill:#ffffff;fill-opacity:1;stroke:none;stroke-width:1px;stroke-linecap:butt;stroke-linejoin:miter;stroke-opacity:1"
         id="flowRoot3528" />
      <g
         transform="matrix(2.5281544,0,0,2.5281544,-93.433165,-473.12425)"
         style="font-style:normal;font-variant:normal;font-weight:bold;font-stretch:normal;font-size:180px;line-height:125%;font-family:Quicksand;-inkscape-font-specification:'Quicksand Bold';letter-spacing:0px;word-spacing:0px;opacity:0.09090899;fill:#ffffff;fill-opacity:1;stroke:none;stroke-width:1px;stroke-linecap:butt;stroke-linejoin:miter;stroke-opacity:1"
         id="flowRoot3537" />
      <g
         transform="matrix(2.5281544,0,0,2.5281544,-93.433165,-473.12425)"
         style="font-style:normal;font-variant:normal;font-weight:bold;font-stretch:normal;font-size:180px;line-height:125%;font-family:Quicksand;-inkscape-font-specification:'Quicksand Bold';letter-spacing:0px;word-spacing:0px;opacity:0.09090899;fill:#ffffff;fill-opacity:1;stroke:none;stroke-width:1px;stroke-linecap:butt;stroke-linejoin:miter;stroke-opacity:1"
         id="flowRoot3546" />
      <g
         transform="matrix(2.5281544,0,0,2.5281544,-93.433165,-473.12425)"
         style="font-style:normal;font-variant:normal;font-weight:bold;font-stretch:normal;font-size:180px;line-height:125%;font-family:Quicksand;-inkscape-font-specification:'Quicksand Bold';letter-spacing:0px;word-spacing:0px;opacity:0.09090899;fill:#ffffff;fill-opacity:1;stroke:none;stroke-width:1px;stroke-linecap:butt;stroke-linejoin:miter;stroke-opacity:1"
         id="flowRoot3555" />
      <g
         transform="matrix(2.5281544,0,0,2.5281544,-93.433165,-473.12425)"
         style="font-style:normal;font-variant:normal;font-weight:bold;font-stretch:normal;font-size:180px;line-height:125%;font-family:Quicksand;-inkscape-font-specification:'Quicksand Bold';letter-spacing:0px;word-spacing:0px;opacity:0.09090899;fill:#ffffff;fill-opacity:1;stroke:none;stroke-width:1px;stroke-linecap:butt;stroke-linejoin:miter;stroke-opacity:1"
         id="flowRoot3564" />
      <g
         transform="matrix(2.5281544,0,0,2.5281544,-93.433165,-473.12425)"
         style="font-style:normal;font-variant:normal;font-weight:bold;font-stretch:normal;font-size:180px;line-height:125%;font-family:Quicksand;-inkscape-font-specification:'Quicksand Bold';letter-spacing:0px;word-spacing:0px;opacity:0.09090899;fill:#ffffff;fill-opacity:1;stroke:none;stroke-width:1px;stroke-linecap:butt;stroke-linejoin:miter;stroke-opacity:1"
         id="flowRoot3573" />
      <g
         transform="matrix(2.5281544,0,0,2.5281544,-93.433165,-473.12425)"
         style="font-style:normal;font-variant:normal;font-weight:bold;font-stretch:normal;font-size:180px;line-height:125%;font-family:Quicksand;-inkscape-font-specification:'Quicksand Bold';letter-spacing:0px;word-spacing:0px;opacity:0.09090899;fill:#ffffff;fill-opacity:1;stroke:none;stroke-width:1px;stroke-linecap:butt;stroke-linejoin:miter;stroke-opacity:1"
         id="flowRoot3582" />
      <g
         transform="matrix(2.5281544,0,0,2.5281544,-93.433165,-473.12425)"
         style="font-style:normal;font-variant:normal;font-weight:bold;font-stretch:normal;font-size:180px;line-height:125%;font-family:Quicksand;-inkscape-font-specification:'Quicksand Bold';letter-spacing:0px;word-spacing:0px;opacity:0.09090899;fill:#ffffff;fill-opacity:1;stroke:none;stroke-width:1px;stroke-linecap:butt;stroke-linejoin:miter;stroke-opacity:1"
         id="flowRoot3591" />
    </g>
  </g>
  <g
     inkscape:groupmode="layer"
     id="layer3"
     inkscape:label="Gamepad"
     style="display:inline"
     transform="translate(0,-52.36216)">
    <g
       id="g9550"
       transform="matrix(4.1177046,0,0,4.1177046,-690.96428,-2526.1662)">
      <rect
         ry="19.353542"
         y="807.1095"
         x="247.30881"
         height="38.707085"
         width="83.842659"
         id="rect9432"
         style="opacity:1;fill:#ffffff;fill-opacity:1;fill-rule:nonzero;stroke:#ffffff;stroke-width:0.0009609;stroke-linecap:round;stroke-linejoin:round;stroke-miterlimit:4;stroke-dasharray:none;stroke-dashoffset:0;stroke-opacity:1" />
      <g
         style="fill:#5677fc;fill-opacity:1;stroke:#5677fc;stroke-opacity:1"
         transform="translate(-1.8469903,2.7616043)"
         id="g9453">
        <rect
           style="opacity:1;fill:#5677fc;fill-opacity:1;fill-rule:nonzero;stroke:#5677fc;stroke-width:2.00099993;stroke-linecap:round;stroke-linejoin:round;stroke-miterlimit:4;stroke-dasharray:none;stroke-dashoffset:0;stroke-opacity:1"
           id="rect9436"
           width="3.2143142"
           height="16.071571"
           x="822.0943"
           y="-279.10724"
           ry="1.6071571"
           transform="matrix(0,1,-1,0,0,0)" />
        <rect
           style="opacity:1;fill:#5677fc;fill-opacity:1;fill-rule:nonzero;stroke:#5677fc;stroke-width:2.00099993;stroke-linecap:round;stroke-linejoin:round;stroke-miterlimit:4;stroke-dasharray:none;stroke-dashoffset:0;stroke-opacity:1"
           id="rect9436-9"
           width="3.2143142"
           height="16.071571"
           x="269.46429"
           y="815.66565"
           ry="1.6071571" />
      </g>
      <g
         transform="translate(-1.0434189,2.1294044)"
         id="g9544">
        <path
           style="opacity:1;fill:#e51c23;fill-opacity:1;fill-rule:nonzero;stroke:none;stroke-width:2.00099993;stroke-linecap:round;stroke-linejoin:round;stroke-miterlimit:4;stroke-dasharray:none;stroke-dashoffset:0;stroke-opacity:1"
           d="m 306.69343,824.33363 a 3.2833234,3.2833234 0 0 1 -3.28333,3.28332 3.2833234,3.2833234 0 0 1 -3.28332,-3.28332 3.2833234,3.2833234 0 0 1 3.28332,-3.28333 3.2833234,3.2833234 0 0 1 3.28333,3.28333 z"
           id="path9459-0"
           inkscape:connector-curvature="0" />
        <path
           style="opacity:1;fill:#ffeb3b;fill-opacity:1;fill-rule:nonzero;stroke:none;stroke-width:2.00099993;stroke-linecap:round;stroke-linejoin:round;stroke-miterlimit:4;stroke-dasharray:none;stroke-dashoffset:0;stroke-opacity:1"
           d="m 313.26008,830.90029 a 3.2833234,3.2833234 0 0 1 -3.28333,3.28332 3.2833234,3.2833234 0 0 1 -3.28332,-3.28332 3.2833234,3.2833234 0 0 1 3.28332,-3.28333 3.2833234,3.2833234 0 0 1 3.28333,3.28333 z"
           id="path9459-9"
           inkscape:connector-curvature="0" />
        <path
           style="opacity:1;fill:#5677fc;fill-opacity:1;fill-rule:nonzero;stroke:none;stroke-width:2.00099993;stroke-linecap:round;stroke-linejoin:round;stroke-miterlimit:4;stroke-dasharray:none;stroke-dashoffset:0;stroke-opacity:1"
           d="m 313.26008,817.76698 a 3.2833234,3.2833234 0 0 1 -3.28333,3.28333 3.2833234,3.2833234 0 0 1 -3.28332,-3.28333 3.2833234,3.2833234 0 0 1 3.28332,-3.28332 3.2833234,3.2833234 0 0 1 3.28333,3.28332 z"
           id="path9459-1"
           inkscape:connector-curvature="0" />
        <path
           style="opacity:1;fill:#259b24;fill-opacity:1;fill-rule:nonzero;stroke:none;stroke-width:2.00099993;stroke-linecap:round;stroke-linejoin:round;stroke-miterlimit:4;stroke-dasharray:none;stroke-dashoffset:0;stroke-opacity:1"
           d="m 319.82673,824.33364 a 3.2833234,3.2833234 0 0 1 -3.28333,3.28332 3.2833234,3.2833234 0 0 1 -3.28332,-3.28332 3.2833234,3.2833234 0 0 1 3.28332,-3.28333 3.2833234,3.2833234 0 0 1 3.28333,3.28333 z"
           id="path9459-9-0"
           inkscape:connector-curvature="0" />
      </g>
    </g>
    <g
       transform="matrix(4.1177046,0,0,4.1177046,-690.96428,-2526.1662)"
       id="g5677">
      <rect
         style="opacity:1;fill:#ffffff;fill-opacity:1;fill-rule:nonzero;stroke:#ffffff;stroke-width:0.0009609;stroke-linecap:round;stroke-linejoin:round;stroke-miterlimit:4;stroke-dasharray:none;stroke-dashoffset:0;stroke-opacity:1"
         id="rect5679"
         width="83.842659"
         height="38.707085"
         x="247.30881"
         y="807.1095"
         ry="19.353542" />
      <g
         id="g5681"
         transform="translate(-1.8469903,2.7616043)"
         style="fill:#5677fc;fill-opacity:1;stroke:#5677fc;stroke-opacity:1">
        <rect
           transform="matrix(0,1,-1,0,0,0)"
           ry="1.6071571"
           y="-279.10724"
           x="822.0943"
           height="16.071571"
           width="3.2143142"
           id="rect5683"
           style="opacity:1;fill:#5677fc;fill-opacity:1;fill-rule:nonzero;stroke:#5677fc;stroke-width:2.00099993;stroke-linecap:round;stroke-linejoin:round;stroke-miterlimit:4;stroke-dasharray:none;stroke-dashoffset:0;stroke-opacity:1" />
        <rect
           ry="1.6071571"
           y="815.66565"
           x="269.46429"
           height="16.071571"
           width="3.2143142"
           id="rect5685"
           style="opacity:1;fill:#5677fc;fill-opacity:1;fill-rule:nonzero;stroke:#5677fc;stroke-width:2.00099993;stroke-linecap:round;stroke-linejoin:round;stroke-miterlimit:4;stroke-dasharray:none;stroke-dashoffset:0;stroke-opacity:1" />
      </g>
      <g
         id="g5687"
         transform="translate(-1.0434189,2.1294044)">
        <path
           inkscape:connector-curvature="0"
           id="path5689"
           d="m 306.69343,824.33363 a 3.2833234,3.2833234 0 0 1 -3.28333,3.28332 3.2833234,3.2833234 0 0 1 -3.28332,-3.28332 3.2833234,3.2833234 0 0 1 3.28332,-3.28333 3.2833234,3.2833234 0 0 1 3.28333,3.28333 z"
           style="opacity:1;fill:#e51c23;fill-opacity:1;fill-rule:nonzero;stroke:none;stroke-width:2.00099993;stroke-linecap:round;stroke-linejoin:round;stroke-miterlimit:4;stroke-dasharray:none;stroke-dashoffset:0;stroke-opacity:1" />
        <path
           inkscape:connector-curvature="0"
           id="path5691"
           d="m 313.26008,830.90029 a 3.2833234,3.2833234 0 0 1 -3.28333,3.28332 3.2833234,3.2833234 0 0 1 -3.28332,-3.28332 3.2833234,3.2833234 0 0 1 3.28332,-3.28333 3.2833234,3.2833234 0 0 1 3.28333,3.28333 z"
           style="opacity:1;fill:#ffeb3b;fill-opacity:1;fill-rule:nonzero;stroke:none;stroke-width:2.00099993;stroke-linecap:round;stroke-linejoin:round;stroke-miterlimit:4;stroke-dasharray:none;stroke-dashoffset:0;stroke-opacity:1" />
        <path
           inkscape:connector-curvature="0"
           id="path5693"
           d="m 313.26008,817.76698 a 3.2833234,3.2833234 0 0 1 -3.28333,3.28333 3.2833234,3.2833234 0 0 1 -3.28332,-3.28333 3.2833234,3.2833234 0 0 1 3.28332,-3.28332 3.2833234,3.2833234 0 0 1 3.28333,3.28332 z"
           style="opacity:1;fill:#5677fc;fill-opacity:1;fill-rule:nonzero;stroke:none;stroke-width:2.00099993;stroke-linecap:round;stroke-linejoin:round;stroke-miterlimit:4;stroke-dasharray:none;stroke-dashoffset:0;stroke-opacity:1" />
        <path
           inkscape:connector-curvature="0"
           id="path5695"
           d="m 319.82673,824.33364 a 3.2833234,3.2833234 0 0 1 -3.28333,3.28332 3.2833234,3.2833234 0 0 1 -3.28332,-3.28332 3.2833234,3.2833234 0 0 1 3.28332,-3.28333 3.2833234,3.2833234 0 0 1 3.28333,3.28333 z"
           style="opacity:1;fill:#259b24;fill-opacity:1;fill-rule:nonzero;stroke:none;stroke-width:2.00099993;stroke-linecap:round;stroke-linejoin:round;stroke-miterlimit:4;stroke-dasharray:none;stroke-dashoffset:0;stroke-opacity:1" />
      </g>
    </g>
  </g>
</svg>
