<?xml version="1.0" encoding="UTF-8" standalone="no"?>
<!-- Created with Inkscape (http://www.inkscape.org/) -->

<svg
   xmlns:dc="http://purl.org/dc/elements/1.1/"
   xmlns:cc="http://creativecommons.org/ns#"
   xmlns:rdf="http://www.w3.org/1999/02/22-rdf-syntax-ns#"
   xmlns:svg="http://www.w3.org/2000/svg"
   xmlns="http://www.w3.org/2000/svg"
   xmlns:sodipodi="http://sodipodi.sourceforge.net/DTD/sodipodi-0.dtd"
   xmlns:inkscape="http://www.inkscape.org/namespaces/inkscape"
   width="210mm"
   height="297mm"
   viewBox="0 0 744.09448819 1052.3622047"
   id="svg2"
   version="1.1"
   inkscape:version="0.91 r13725"
   sodipodi:docname="airship.svg"
   inkscape:export-filename="C:\Users\Q7W5\Programovanie\Git\Race\Assets\Graphics\vzduchlodOK.png"
   inkscape:export-xdpi="234.96001"
   inkscape:export-ydpi="234.96001">
  <defs
     id="defs4">
    <pattern
       y="0"
       x="0"
       height="6"
       width="6"
       patternUnits="userSpaceOnUse"
       id="EMFhbasepattern" />
  </defs>
  <sodipodi:namedview
     id="base"
     pagecolor="#ffffff"
     bordercolor="#666666"
     borderopacity="1.0"
     inkscape:pageopacity="0.0"
     inkscape:pageshadow="2"
     inkscape:zoom="0.7"
     inkscape:cx="70.611712"
     inkscape:cy="125.26337"
     inkscape:document-units="px"
     inkscape:current-layer="g3367"
     showgrid="false"
     inkscape:window-width="1366"
     inkscape:window-height="706"
     inkscape:window-x="-8"
     inkscape:window-y="-8"
     inkscape:window-maximized="1" />
  <metadata
     id="metadata7">
    <rdf:RDF>
      <cc:Work
         rdf:about="">
        <dc:format>image/svg+xml</dc:format>
        <dc:type
           rdf:resource="http://purl.org/dc/dcmitype/StillImage" />
        <dc:title />
      </cc:Work>
    </rdf:RDF>
  </metadata>
  <g
     inkscape:label="Vrstva 1"
     inkscape:groupmode="layer"
     id="layer1">
    <g
       id="g4233"
       transform="matrix(1.0704786,0,0,1.0704786,-9.4566612,-64.397171)"
       inkscape:export-xdpi="235"
       inkscape:export-ydpi="235">
      <g
         id="g3395">
        <g
           id="g3364">
          <path
             style="fill:#333333;fill-opacity:1;fill-rule:nonzero;stroke:none"
             d="m 256.26306,996.0425 108.87778,0.31514 c -5.98753,12.71036 -5.72492,27.25906 -21.63914,38.97146 l -72.47991,-0.2102 c -9.82164,-10.6095 -11.81747,-25.3682 -14.75873,-39.07647 z"
             id="path4141"
             inkscape:connector-curvature="0" />
          <path
             style="fill:#ffd800;fill-opacity:1;fill-rule:nonzero;stroke:none"
             d="m 701.28068,908.43623 c 0,22.47948 -32.98393,41.12486 -96.95525,57.03836 -64.02452,15.86172 -153.78422,31.77594 -244.22672,31.77594 -90.49502,0 -168.54227,-0.78783 -233.35393,-12.97299 C 62.773124,972.19745 18.917394,937.48098 18.917394,908.43623 c 0,-22.47929 25.99833,-49.00277 90.022376,-64.91687 63.97131,-15.91412 160.66392,-19.90576 251.15894,-19.90576 90.4425,0 174.26718,19.85326 238.23919,35.76733 64.02385,15.91407 102.94278,26.57601 102.94278,49.0553 z"
             id="path4143"
             inkscape:connector-curvature="0" />
          <path
             style="fill:#ffd800;fill-opacity:1;fill-rule:nonzero;stroke:none"
             d="m 585.94267,824.19133 c 41.43931,-3.8341 50.73573,-1.52313 64.39149,0 l 1.73323,49.52808 -83.98227,-20.64107 z"
             id="path4145"
             inkscape:connector-curvature="0" />
          <path
             style="fill:#ffd800;fill-opacity:1;fill-rule:nonzero;stroke:none"
             d="m 584.68214,960.64326 72.42738,-6.30266 -1.05043,40.7565 -52.46897,4.20179 c -28.04684,-18.01511 -38.3937,-31.82844 -18.90798,-38.65563 z"
             id="path4147"
             inkscape:connector-curvature="0" />
          <path
             style="fill:#ffd800;fill-opacity:1;fill-rule:nonzero;stroke:none"
             d="m 13.980354,905.17984 20.43099,-26.31332 c 1.20803,-1.52316 7.72069,-8.14088 7.45808,-6.25008 l -4.41186,32.61593 c -0.21017,1.8908 -0.9454,2.94123 -0.84036,4.88456 l 1.57566,32.24861 c 0.10497,1.8908 -7.61562,-6.82787 -8.71859,-8.40353 L 13.087484,910.0644 c -1.10297,-1.57567 -0.31514,-3.3614 0.89287,-4.88456 z"
             id="path4149"
             inkscape:connector-curvature="0" />
          <path
             style="fill:#00ffff;fill-opacity:1;fill-rule:nonzero;stroke:none"
             d="m 269.49865,1003.028 80.9885,0 c 1.8908,0 3.46647,1.5231 3.46647,3.4664 l 0,1.7858 c 0,1.9433 -1.57567,3.4665 -3.46647,3.4665 l -80.9885,0 c -1.8908,0 -3.46646,-1.5232 -3.46646,-3.4665 l 0,-1.7858 c 0,-1.9433 1.57566,-3.4664 3.46646,-3.4664 z"
             id="path4151"
             inkscape:connector-curvature="0" />
          <path
             style="fill:#00ffff;fill-opacity:1;fill-rule:nonzero;stroke:none"
             d="m 270.54909,1016.9989 57.14414,0 c 1.94331,0 3.46647,1.5756 3.46647,3.4664 l 0,1.103 c 0,1.9433 -1.52316,3.519 -3.46647,3.519 l -57.14414,0 c -1.8908,0 -3.46647,-1.5757 -3.46647,-3.519 l 0,-1.103 c 0,-1.8908 1.57567,-3.4664 3.46647,-3.4664 z"
             id="path4153"
             inkscape:connector-curvature="0" />
          <path
             style="fill:#333333;fill-opacity:1;fill-rule:nonzero;stroke:none"
             d="m 632.94931,822.4056 17.75251,1.4706 1.20801,47.47971 -18.96052,0 z"
             id="path4155"
             inkscape:connector-curvature="0" />
          <path
             style="fill:#4d4d4d;fill-opacity:1;fill-rule:evenodd;stroke:none"
             d="M 12.719844,907.75343 C 206.42023,1033.2807 725.75741,984.06745 700.86049,908.3837 431.21373,875.18996 171.28289,853.91868 12.719844,907.75343 173.12116,778.18228 725.96751,844.88496 700.86049,908.22613 472.60052,928.44718 179.73895,958.12219 12.719844,907.75343 Z"
             id="path4157"
             inkscape:connector-curvature="0" />
          <path
             style="fill:#333333;fill-opacity:1;fill-rule:nonzero;stroke:none"
             d="m 639.72467,955.81123 17.43738,-1.52314 -0.9454,41.17668 -16.70205,1.05043 z"
             id="path4159"
             inkscape:connector-curvature="0" />
          <path
             style="fill:#1a1a1a;fill-opacity:1;fill-rule:nonzero;stroke:none"
             d="m 274.43574,1026.4528 0.89287,0 c 0.9454,0 1.73323,0.7879 1.73323,1.7858 l 0,3.6766 c 0,0.9454 -0.78783,1.7332 -1.73323,1.7332 l -0.89287,0 c -0.9454,0 -1.73323,-0.7878 -1.73323,-1.7332 l 0,-3.6766 c 0,-0.9979 0.78783,-1.7858 1.73323,-1.7858 z"
             id="path4161"
             inkscape:connector-curvature="0" />
          <path
             style="fill:#ffcc00;fill-opacity:1;fill-rule:nonzero;stroke:none"
             d="m 383.83873,1022.4086 -24.84298,3.8342 -1.4181,-7.038 z"
             id="path4163"
             inkscape:connector-curvature="0" />
          <path
             style="fill:#ffff00;fill-opacity:1;fill-rule:nonzero;stroke:none"
             d="m 385.51943,1028.5537 -26.20855,-3.4664 -2.1009,6.1976 z"
             id="path4165"
             inkscape:connector-curvature="0" />
          <path
             style="fill:#aa0000;fill-opacity:1;fill-rule:nonzero;stroke:none"
             d="m 396.12892,1025.0873 -38.6038,4.3593 -3.72907,-7.6157 z"
             id="path4167"
             inkscape:connector-curvature="0" />
          <path
             style="fill:#1a1a1a;fill-opacity:1;fill-rule:nonzero;stroke:none"
             d="m 340.61369,1018.417 18.22449,0 c 2.99376,0 5.40977,2.3635 5.40977,5.2522 l 0,3.519 c 0,2.8887 -2.41601,5.2522 -5.40977,5.2522 l -18.22449,0 c -2.99377,0 -5.40979,-2.3635 -5.40979,-5.2522 l 0,-3.519 c 0,-2.8887 2.41602,-5.2522 5.40979,-5.2522 z"
             id="path4169"
             inkscape:connector-curvature="0" />
          <g
             id="g3367">
            <path
               inkscape:connector-curvature="0"
               id="path4171"
               d="m 196.67315,916.52463 0,-3.99167 -7.98336,0 -2.5736,3.99167 -7.87832,0 15.54658,-24.00262 c 1.05043,-1.628 2.52106,-2.46834 4.35933,-2.46834 1.4181,0 2.62541,0.52521 3.62334,1.57567 1.05043,0.9977 1.57566,2.2057 1.57566,3.57129 l 0,9.40147 -6.66963,0 0,-4.41187 -3.7816,5.72492 10.45123,0 0,10.60947 -6.66963,0 z"
               style="fill:#000000;fill-opacity:1;fill-rule:nonzero;stroke:none" />
            <path
               inkscape:connector-curvature="0"
               id="path4175"
               d="m 217.87258,900.66294 0,-6.6178 0.8929,0 4.41186,6.6178 -5.30476,0 z m -7.87832,15.86169 0,-15.86169 -2.67863,0 0,-6.6178 2.67863,0 0,-7.98316 6.56529,4.46439 0,25.99826 -6.56529,0 z"
               style="fill:#000000;fill-opacity:1;fill-rule:nonzero;stroke:none" />
            <path
               inkscape:connector-curvature="0"
               id="path4177"
               d="m 225.51282,900.66294 0,-3.36143 c 0,-0.84034 0.31513,-1.62817 0.99793,-2.25844 0.63026,-0.68279 1.4181,-0.99793 2.31097,-0.99793 l 13.23558,0 c 0.89287,0 1.68071,0.31514 2.31097,0.99793 0.6828,0.63027 0.99793,1.36557 0.99793,2.25844 l 0,3.36143 -19.85338,0 z m 16.54448,15.86169 -13.23558,0 c -0.89287,0 -1.68071,-0.31514 -2.31097,-0.99791 -0.6828,-0.63026 -0.99793,-1.4181 -0.99793,-2.31099 l 0,-11.23973 6.61779,0 0,7.93083 6.6178,0 0,-7.93083 6.61779,0 0,11.23973 c 0,0.89289 -0.31513,1.68073 -0.99793,2.31099 -0.63026,0.68277 -1.4181,0.99791 -2.31097,0.99791 z"
               style="fill:#000000;fill-opacity:1;fill-rule:nonzero;stroke:none" />
            <path
               inkscape:connector-curvature="0"
               id="path4179"
               d="m 260.93729,916.52463 0,-15.86169 -13.23559,0 0,-6.6178 16.54449,0 c 0.89289,0 1.68072,0.31514 2.31099,0.9454 0.68277,0.63027 0.99791,1.4181 0.99791,2.31097 l 0,19.22312 -6.6178,0 z m -13.23559,0 0,-14.54863 6.67033,0 0,14.54863 -6.67033,0 z"
               style="fill:#000000;fill-opacity:1;fill-rule:nonzero;stroke:none" />
            <path
               inkscape:connector-curvature="0"
               id="path4181"
               d="m 269.89057,900.66294 0,-3.36143 c 0,-0.84034 0.31513,-1.62817 0.99791,-2.25844 0.63026,-0.68279 1.41809,-0.99793 2.31099,-0.99793 l 13.23487,0 c 0.9454,0 1.73323,0.31514 2.3635,0.99793 0.63026,0.63027 0.94539,1.36557 0.94539,2.25844 l 0,3.36143 -19.85266,0 z m 16.54377,15.86169 -13.23487,0 c -0.8929,0 -1.68073,-0.31514 -2.31099,-0.99791 -0.68278,-0.63026 -0.99791,-1.4181 -0.99791,-2.31099 l 0,-11.23973 6.66961,0 0,7.93083 6.61779,0 0,-7.93083 6.56526,0 0,11.23973 c 0,0.89289 -0.31513,1.68073 -0.94539,2.31099 -0.6828,0.68277 -1.47063,0.99791 -2.3635,0.99791 z"
               style="fill:#000000;fill-opacity:1;fill-rule:nonzero;stroke:none" />
            <path
               inkscape:connector-curvature="0"
               id="path4183"
               d="m 310.61906,916.52463 0,-15.86169 -18.54034,0 0,-6.6178 21.90174,0 c 0.8929,0 1.6282,0.31514 2.25847,0.99793 0.68279,0.63027 0.99793,1.36557 0.99793,2.25844 l 0,19.22312 -6.6178,0 z m -9.24392,0 0,-14.54863 6.6178,0 0,14.54863 -6.6178,0 z m -9.29642,0 0,-14.54863 6.67032,0 0,14.54863 -6.67032,0 z"
               style="fill:#000000;fill-opacity:1;fill-rule:nonzero;stroke:none" />
            <path
               inkscape:connector-curvature="0"
               id="path4189"
               d="m 340.22242,896.67124 0,-3.30889 c 0,-0.89287 0.31513,-1.68051 0.9979,-2.31077 0.63027,-0.68277 1.4181,-0.99791 2.31099,-0.99791 l 13.44566,0 4.41187,6.61757 -21.16642,0 z m 17.91005,19.85339 -14.60116,0 c -0.89289,0 -1.68072,-0.31514 -2.31099,-0.99791 -0.68277,-0.63026 -0.9979,-1.4181 -0.9979,-2.31099 l 0,-15.23142 6.6703,0 0,11.92252 7.87832,0 0,-3.30889 -2.1534,0 -4.41186,-6.6178 13.18306,0 0,13.23559 c 0,0.89289 -0.31514,1.68073 -0.9454,2.31099 -0.63027,0.68277 -1.4181,0.99791 -2.31097,0.99791 z"
               style="fill:#000000;fill-opacity:1;fill-rule:nonzero;stroke:none" />
            <path
               inkscape:connector-curvature="0"
               id="path4191"
               d="m 365.59039,900.66294 4.46437,-6.6178 12.08012,0 c 0.9454,0 1.73323,0.31514 2.3635,0.99793 0.63026,0.63027 0.9454,1.36557 0.9454,2.25844 l 0,3.36143 -19.85339,0 z m 3.36141,15.86169 c -0.9454,0 -1.73324,-0.31514 -2.3635,-0.99791 -0.68277,-0.63026 -0.99791,-1.4181 -0.99791,-2.31099 l 0,-7.93083 c 0,-0.8929 0.31514,-1.68073 0.99791,-2.3635 0.63026,-0.63027 1.4181,-0.9454 2.3635,-0.9454 l 4.14926,0 4.46439,6.56526 -5.30476,0 0,1.36557 6.6178,0 0,-7.93083 6.56529,0 0,14.54863 -16.49198,0 z"
               style="fill:#000000;fill-opacity:1;fill-rule:nonzero;stroke:none" />
            <path
               inkscape:connector-curvature="0"
               id="path4193"
               d="m 406.18986,916.52463 0,-15.86169 -18.54032,0 0,-6.6178 21.90174,0 c 0.89287,0 1.68071,0.31514 2.31097,0.99793 0.63027,0.63027 0.9454,1.36557 0.9454,2.25844 l 0,19.22312 -6.61779,0 z m -9.2439,0 0,-14.54863 6.6178,0 0,14.54863 -6.6178,0 z m -9.29642,0 0,-14.54863 6.67032,0 0,14.54863 -6.67032,0 z"
               style="fill:#000000;fill-opacity:1;fill-rule:nonzero;stroke:none" />
            <path
               inkscape:connector-curvature="0"
               id="path4195"
               d="m 430.92751,908.54126 -4.20176,0 -4.41186,-6.56526 11.86999,0 0,3.3089 c 0,0.89287 -0.31513,1.6807 -0.9979,2.31097 -0.63027,0.63026 -1.3656,0.94539 -2.25847,0.94539 z m 0.21018,7.98337 -13.49822,0 c -0.89287,0 -1.6807,-0.31514 -2.31097,-0.99791 -0.68279,-0.63026 -0.99793,-1.4181 -0.99793,-2.31099 l 0,-15.91422 c 0,-0.84034 0.31514,-1.62817 0.99793,-2.25844 0.63027,-0.68279 1.4181,-0.99793 2.31097,-0.99793 l 13.28812,0 c 0.89287,0 1.62819,0.31514 2.25846,0.99793 0.68277,0.63027 0.99791,1.36557 0.99791,2.25844 l 0,3.36143 -13.18306,0 0,9.24389 14.54865,0 -4.41186,6.6178 z"
               style="fill:#000000;fill-opacity:1;fill-rule:nonzero;stroke:none" />
            <path
               inkscape:connector-curvature="0"
               id="path4197"
               d="m 439.54114,900.66294 0,-3.36143 c 0,-0.84034 0.31514,-1.62817 0.9454,-2.25844 0.6828,-0.68279 1.47063,-0.99793 2.3635,-0.99793 l 12.08012,0 4.46437,6.6178 -19.85339,0 z m 16.54449,15.86169 -13.44566,0 -4.41186,-6.6178 11.29226,0 -8.5086,-7.93083 9.50653,0 c 2.1534,1.83827 4.25429,3.62403 6.40769,5.4623 1.6282,1.6282 2.46854,2.88873 2.46854,3.7816 l 0,1.99583 c 0,0.78783 -0.36764,1.57567 -1.05044,2.25846 -0.68279,0.6828 -1.47063,1.05044 -2.25846,1.05044 z"
               style="fill:#000000;fill-opacity:1;fill-rule:nonzero;stroke:none" />
          </g>
        </g>
      </g>
    </g>
  </g>
</svg>
