<?xml version="1.0" encoding="UTF-8" standalone="no"?>
<!-- Created with Inkscape (http://www.inkscape.org/) -->

<svg
   xmlns:dc="http://purl.org/dc/elements/1.1/"
   xmlns:cc="http://creativecommons.org/ns#"
   xmlns:rdf="http://www.w3.org/1999/02/22-rdf-syntax-ns#"
   xmlns:svg="http://www.w3.org/2000/svg"
   xmlns="http://www.w3.org/2000/svg"
   xmlns:sodipodi="http://sodipodi.sourceforge.net/DTD/sodipodi-0.dtd"
   xmlns:inkscape="http://www.inkscape.org/namespaces/inkscape"
   width="700"
   height="700"
   viewBox="0 0 700.00001 700.00001"
   id="svg3482"
   version="1.1"
   inkscape:version="0.91 r13725"
   sodipodi:docname="challengeButton.svg"
   inkscape:export-filename="C:\Users\Q7W5\Programovanie\Git\Race\Assets\Graphics\challengeButton.png"
   inkscape:export-xdpi="90"
   inkscape:export-ydpi="90">
  <defs
     id="defs3484" />
  <sodipodi:namedview
     id="base"
     pagecolor="#ffffff"
     bordercolor="#666666"
     borderopacity="1.0"
     inkscape:pageopacity="0.0"
     inkscape:pageshadow="2"
     inkscape:zoom="0.49497474"
     inkscape:cx="214.44212"
     inkscape:cy="447.65514"
     inkscape:document-units="px"
     inkscape:current-layer="layer1"
     showgrid="false"
     inkscape:window-width="1366"
     inkscape:window-height="706"
     inkscape:window-x="-8"
     inkscape:window-y="-8"
     inkscape:window-maximized="1"
     units="px" />
  <metadata
     id="metadata3487">
    <rdf:RDF>
      <cc:Work
         rdf:about="">
        <dc:format>image/svg+xml</dc:format>
        <dc:type
           rdf:resource="http://purl.org/dc/dcmitype/StillImage" />
        <dc:title />
      </cc:Work>
    </rdf:RDF>
  </metadata>
  <g
     inkscape:label="Layer 1"
     inkscape:groupmode="layer"
     id="layer1"
     transform="translate(0,-352.36216)">
    <g
       id="g3562"
       transform="matrix(2.6702998,0,0,2.6702998,-286.21351,-1588.6962)">
      <g
         id="g3347"
         transform="matrix(0.64726631,0,0,0.64726631,9.3348829,531.9307)">
        <circle
           cy="503.72968"
           cx="353.67294"
           id="path4146"
           style="fill:#f7e041;fill-opacity:1;stroke:#e91222;stroke-width:37.29980087;stroke-linejoin:miter;stroke-miterlimit:4;stroke-dasharray:none;stroke-dashoffset:0;stroke-opacity:1"
           r="183.8501" />
      </g>
    </g>
    <g
       transform="matrix(9.149817,0,0,9.149817,176.24956,528.61627)"
       id="g3"
       style="fill:#e91222;fill-opacity:1">
      <path
         inkscape:connector-curvature="0"
         d="M 21.553,2.322 C 15.45,3.435 9.956,6.693 2.608,3.406 c 0.096,0.333 0.189,0.667 0.283,1 l -1.75,0 -0.141,-0.5 -1,0 8.988,31.75 1,0 -4.01,-14.167 1.75,0 c 0.109,0.39 0.221,0.778 0.33,1.168 C 15.405,25.942 20.9,22.684 27,21.571 25.186,15.155 23.369,8.738 21.553,2.322 Z M 9.796,5.831 c 2.07,-0.046 4.032,-0.473 5.971,-0.983 0.521,1.833 1.039,3.667 1.559,5.5 -1.938,0.51 -3.901,0.937 -5.973,0.983 C 10.834,9.497 10.314,7.664 9.796,5.831 Z M 5.766,20.739 1.354,5.156 l 1.75,0 c 1.472,5.194 2.941,10.389 4.412,15.583 l -1.75,0 z M 7.173,15.991 C 6.665,14.199 6.156,12.408 5.651,10.616 c 2.046,0.751 3.951,1.005 5.773,0.964 0.507,1.792 1.015,3.583 1.521,5.375 -1.82,0.041 -3.726,-0.213 -5.772,-0.964 z m 13.478,6.107 c -1.938,0.511 -3.9,0.937 -5.972,0.982 -0.519,-1.834 -1.038,-3.667 -1.558,-5.5 2.069,-0.046 4.032,-0.473 5.973,-0.983 0.519,1.835 1.039,3.667 1.557,5.501 z m 3.388,-7.463 c -1.729,0.375 -3.414,0.889 -5.121,1.337 -0.508,-1.792 -1.016,-3.583 -1.521,-5.375 1.706,-0.449 3.395,-0.962 5.12,-1.337 0.506,1.792 1.014,3.583 1.522,5.375 z M 23.227,5.446 c 0.096,0.333 0.189,0.667 0.283,1 0.787,-0.118 1.584,-0.195 2.398,-0.213 0.52,1.833 1.037,3.667 1.557,5.5 -0.813,0.018 -1.611,0.095 -2.396,0.213 0.591,2.083 1.181,4.167 1.771,6.25 0.785,-0.118 1.584,-0.195 2.396,-0.213 0.521,1.833 1.039,3.667 1.56,5.5 -2.07,0.045 -4.033,0.473 -5.974,0.981 -0.121,-0.432 -0.243,-0.86 -0.364,-1.291 -2.018,0.529 -4.008,1.15 -6.068,1.525 0.217,0.766 0.434,1.529 0.649,2.293 C 25.14,25.878 30.636,22.62 37.979,25.905 36.165,19.489 34.346,13.072 32.53,6.655 29.11,5.128 26.094,5.015 23.227,5.446 Z m 11.606,12.876 c -2.046,-0.751 -3.95,-1.005 -5.772,-0.964 -0.508,-1.792 -1.016,-3.583 -1.521,-5.375 1.82,-0.041 3.727,0.213 5.771,0.964 0.506,1.792 1.015,3.583 1.522,5.375 z"
         id="path5"
         style="fill:#e91222;fill-opacity:1" />
    </g>
  </g>
</svg>
