<?xml version="1.0" encoding="UTF-8" standalone="no"?>
<!-- Created with Inkscape (http://www.inkscape.org/) -->

<svg
   xmlns:dc="http://purl.org/dc/elements/1.1/"
   xmlns:cc="http://creativecommons.org/ns#"
   xmlns:rdf="http://www.w3.org/1999/02/22-rdf-syntax-ns#"
   xmlns:svg="http://www.w3.org/2000/svg"
   xmlns="http://www.w3.org/2000/svg"
   xmlns:sodipodi="http://sodipodi.sourceforge.net/DTD/sodipodi-0.dtd"
   xmlns:inkscape="http://www.inkscape.org/namespaces/inkscape"
   width="700"
   height="700"
   viewBox="0 0 700.00001 700.00001"
   id="svg3482"
   version="1.1"
   inkscape:version="0.91 r13725"
   sodipodi:docname="facebookButton.svg"
   inkscape:export-filename="C:\Users\Q7W5\Programovanie\Git\Race\Assets\Graphics\facebookButton.png"
   inkscape:export-xdpi="64.290001"
   inkscape:export-ydpi="64.290001">
  <defs
     id="defs3484" />
  <sodipodi:namedview
     id="base"
     pagecolor="#ffffff"
     bordercolor="#666666"
     borderopacity="1.0"
     inkscape:pageopacity="0.0"
     inkscape:pageshadow="2"
     inkscape:zoom="0.49497474"
     inkscape:cx="-692.09745"
     inkscape:cy="152.93471"
     inkscape:document-units="px"
     inkscape:current-layer="layer1"
     showgrid="false"
     inkscape:window-width="1366"
     inkscape:window-height="706"
     inkscape:window-x="-8"
     inkscape:window-y="-8"
     inkscape:window-maximized="1"
     units="px" />
  <metadata
     id="metadata3487">
    <rdf:RDF>
      <cc:Work
         rdf:about="">
        <dc:format>image/svg+xml</dc:format>
        <dc:type
           rdf:resource="http://purl.org/dc/dcmitype/StillImage" />
        <dc:title />
      </cc:Work>
    </rdf:RDF>
  </metadata>
  <g
     inkscape:label="Layer 1"
     inkscape:groupmode="layer"
     id="layer1"
     transform="translate(0,-352.36216)">
    <g
       id="g3562"
       transform="matrix(2.6702998,0,0,2.6702998,-286.21351,-1588.6962)">
      <g
         id="g3347"
         transform="matrix(0.64726631,0,0,0.64726631,9.3348829,531.9307)">
        <circle
           cy="503.72968"
           cx="353.67294"
           id="path4146"
           style="fill:#f7e041;fill-opacity:1;stroke:#e91222;stroke-width:37.29980087;stroke-linejoin:miter;stroke-miterlimit:4;stroke-dasharray:none;stroke-dashoffset:0;stroke-opacity:1"
           r="183.8501" />
      </g>
    </g>
    <g
       style="display:inline;fill:#e91222;fill-opacity:1;stroke:#e91222;stroke-width:10.81385803;stroke-linecap:round;stroke-linejoin:round;stroke-miterlimit:4;stroke-dasharray:none;stroke-opacity:1"
       id="g3"
       transform="matrix(1.530135,0,0,1.530135,123.00263,481.36398)">
      <path
         style="fill:#e91222;fill-opacity:1;stroke:#e91222;stroke-width:10.81385803;stroke-linecap:round;stroke-linejoin:round;stroke-miterlimit:4;stroke-dasharray:none;stroke-opacity:1"
         id="path5"
         d="m 167.172,288.861 -62.16,0 0,-129.514 -34.243,0 0,-59.48 34.242,0 0,-33.4 C 105.011,35.804 124.195,0 178.284,0 c 19.068,0 33.066,1.787 33.651,1.864 l 5.739,0.746 -1.382,55.663 -6.324,-0.058 c -0.013,0 -14.223,-0.135 -29.724,-0.135 -11.536,0 -13.066,2.847 -13.066,14.171 l 0,27.629 50.913,0 -2.821,59.48 -48.086,0 0,129.501 -0.012,0 z m -49.314,-12.854 36.453,0 0,-129.507 48.677,0 1.607,-33.779 -50.284,0 0,-40.483 c 0,-13.368 3.078,-27.025 25.919,-27.025 9.178,0 17.899,0.045 23.509,0.09 l 0.778,-31.292 c -5.675,-0.508 -15.116,-1.157 -26.247,-1.157 -44.544,0 -60.419,27.693 -60.419,53.613 l 0,46.254 -34.241,0 0,33.779 34.242,0 0,129.507 0.006,0 z"
         inkscape:connector-curvature="0" />
    </g>
  </g>
</svg>
