<?xml version="1.0" encoding="UTF-8" standalone="no"?>
<!-- Created with Inkscape (http://www.inkscape.org/) -->

<svg
   xmlns:dc="http://purl.org/dc/elements/1.1/"
   xmlns:cc="http://creativecommons.org/ns#"
   xmlns:rdf="http://www.w3.org/1999/02/22-rdf-syntax-ns#"
   xmlns:svg="http://www.w3.org/2000/svg"
   xmlns="http://www.w3.org/2000/svg"
   xmlns:sodipodi="http://sodipodi.sourceforge.net/DTD/sodipodi-0.dtd"
   xmlns:inkscape="http://www.inkscape.org/namespaces/inkscape"
   width="210mm"
   height="297mm"
   viewBox="0 0 744.09448819 1052.3622047"
   id="svg2"
   version="1.1"
   inkscape:version="0.91 r13725"
   sodipodi:docname="guma minca.svg">
  <defs
     id="defs4" />
  <sodipodi:namedview
     id="base"
     pagecolor="#ffffff"
     bordercolor="#666666"
     borderopacity="1.0"
     inkscape:pageopacity="0.0"
     inkscape:pageshadow="2"
     inkscape:zoom="0.98994949"
     inkscape:cx="366.39268"
     inkscape:cy="652.34332"
     inkscape:document-units="px"
     inkscape:current-layer="layer1"
     showgrid="false"
     inkscape:window-width="1600"
     inkscape:window-height="837"
     inkscape:window-x="-8"
     inkscape:window-y="-8"
     inkscape:window-maximized="1" />
  <metadata
     id="metadata7">
    <rdf:RDF>
      <cc:Work
         rdf:about="">
        <dc:format>image/svg+xml</dc:format>
        <dc:type
           rdf:resource="http://purl.org/dc/dcmitype/StillImage" />
        <dc:title></dc:title>
      </cc:Work>
    </rdf:RDF>
  </metadata>
  <g
     inkscape:label="Vrstva 1"
     inkscape:groupmode="layer"
     id="layer1">
    <g
       id="g4187"
       transform="translate(-54.548239,-129.29953)">
      <ellipse
         ry="178.31514"
         rx="182.5108"
         cy="427.11728"
         cx="391.80981"
         id="path4146"
         style="fill:#ffb300;fill-opacity:1;stroke:none;stroke-width:23.79999924;stroke-linejoin:miter;stroke-miterlimit:4;stroke-dasharray:none;stroke-dashoffset:0;stroke-opacity:1" />
      <ellipse
         ry="186.05"
         rx="186.04999"
         cy="425.50562"
         cx="389.22565"
         id="path4136"
         style="fill:none;fill-opacity:1;stroke:#ffb300;stroke-width:27.90000153;stroke-linejoin:miter;stroke-miterlimit:4;stroke-dasharray:none;stroke-dashoffset:0;stroke-opacity:1" />
      <circle
         inkscape:export-ydpi="235"
         inkscape:export-xdpi="235"
         r="202.14999"
         cy="425.50562"
         cx="389.22565"
         id="path4223"
         style="fill:none;fill-opacity:1;stroke:#f01700;stroke-width:15.10000038;stroke-linejoin:miter;stroke-miterlimit:4;stroke-dasharray:none;stroke-dashoffset:0;stroke-opacity:1" />
    </g>
    <g
       id="g4192"
       transform="translate(-51.726958,-118.83552)"
       style="stroke:#000000;stroke-opacity:1">
      <path
         sodipodi:nodetypes="sssssssss"
         inkscape:connector-curvature="0"
         id="rect4147"
         d="m 274.04991,430.75562 102.71688,21.48339 c 7.85327,1.64253 4.60808,-3.89454 3.82405,4.09031 l -9.45395,96.28351 c -0.78402,7.98491 -4.56498,5.57089 -12.37665,3.74079 L 237.44698,527.93203 c -7.81169,-1.8302 -5.86046,-5.90269 -2.96486,-13.38531 l 31.28455,-80.84236 c 2.89561,-7.48253 0.42997,-4.59127 8.28324,-2.94874 z"
         style="fill:#d35f5f;fill-opacity:1;stroke:#000000;stroke-width:0.99999994;stroke-linejoin:miter;stroke-miterlimit:4;stroke-dasharray:none;stroke-dashoffset:0;stroke-opacity:1" />
      <path
         sodipodi:nodetypes="sssssssss"
         inkscape:connector-curvature="0"
         id="rect4150"
         d="m 424.30407,272.74213 101.24694,25.86145 c 3.40095,0.86871 3.72278,4.24586 1.16375,6.85332 l -143.5302,146.24652 c -2.55904,2.60746 -1.99655,1.76014 -5.43088,1.03446 L 272.49824,430.49702 c -3.43431,-0.72569 -5.9945,-0.57158 -3.49128,-3.23268 L 412.53717,274.68171 c 2.50322,-2.66103 8.36594,-2.80829 11.7669,-1.93958 z"
         style="fill:#d35f5f;fill-opacity:1;stroke:#000000;stroke-width:0.99999994;stroke-linejoin:miter;stroke-miterlimit:4;stroke-dasharray:none;stroke-dashoffset:0;stroke-opacity:1" />
      <path
         sodipodi:nodetypes="sssssssss"
         inkscape:connector-curvature="0"
         id="rect4153"
         d="m 529.27229,303.91753 10.73495,46.63139 c 0.78748,3.42069 0.67069,8.21236 -1.71013,10.9835 L 371.27838,555.93365 c -2.38082,2.77111 -0.81941,1.90875 -0.47666,-1.58473 l 8.15391,-83.10704 c 0.34275,-3.4934 0.98386,-16.05248 3.53881,-18.66397 L 526.13645,305.75767 c 2.55496,-2.61146 2.34838,-5.26081 3.13584,-1.84014 z"
         style="fill:#d35f5f;fill-opacity:1;stroke:#000000;stroke-width:0.99999994;stroke-linejoin:miter;stroke-miterlimit:4;stroke-dasharray:none;stroke-dashoffset:0;stroke-opacity:1" />
      <path
         sodipodi:nodetypes="sssssssss"
         inkscape:connector-curvature="0"
         id="rect4158"
         d="m 421.45931,272.09564 104.09174,26.63727 c 3.40057,0.87026 3.72049,4.11428 1.16376,6.72399 l -68.66175,70.08452 c -2.55674,2.60974 -2.82391,2.87651 -6.2067,1.93961 L 346.33223,348.25759 c -3.38278,-0.93692 -1.59289,-1.73049 0.90516,-4.39645 l 63.48948,-67.75702 c 2.49806,-2.66593 7.33187,-4.87872 10.73244,-4.00848 z"
         style="fill:#cccccc;fill-opacity:1;stroke:#000000;stroke-width:0.99999994;stroke-linejoin:miter;stroke-miterlimit:4;stroke-dasharray:none;stroke-dashoffset:0;stroke-opacity:1" />
      <path
         sodipodi:nodetypes="sssssssss"
         inkscape:connector-curvature="0"
         id="rect4163"
         d="m 457.79785,375.45837 68.86734,-69.84971 c 2.46443,-2.49952 1.48385,-7.25106 2.30571,-3.69122 l 11.52064,49.90015 c 0.82185,3.55981 0.35231,7.4171 -1.94721,10.06918 L 466.7032,444.742 c -2.29952,2.65207 -1.414,2.1455 -1.90823,-1.47436 L 456.185,380.20597 c -0.49423,-3.61986 -0.85157,-2.24803 1.61285,-4.7476 z"
         style="fill:#cccccc;fill-opacity:1;stroke:#000000;stroke-width:0.99999994;stroke-linejoin:miter;stroke-miterlimit:4;stroke-dasharray:none;stroke-dashoffset:0;stroke-opacity:1" />
      <path
         sodipodi:nodetypes="sssssss"
         inkscape:connector-curvature="0"
         id="path4166"
         d="m 372.42998,537.51909 c -0.76368,0.98473 8.42375,-84.09288 7.18908,-84.26187 -1.23467,-0.16901 -85.76488,-17.04764 -86.23587,-18.20141 -0.47099,-1.15376 86.22404,16.46606 86.98772,15.48129 0.76369,-0.98477 52.40296,-50.67778 53.63763,-50.50879 1.23468,0.169 -52.45216,51.81858 -51.98117,52.97234 0.47097,1.15377 -8.83369,83.5337 -9.59739,84.51844 z"
         inkscape:transform-center-y="-5.7719273"
         inkscape:transform-center-x="2.0786488"
         style="fill:#b3b3b3;fill-opacity:1;stroke:#000000;stroke-width:0.99999994;stroke-linejoin:miter;stroke-miterlimit:4;stroke-dasharray:none;stroke-dashoffset:0;stroke-opacity:1" />
    </g>
  </g>
</svg>
