<?xml version="1.0" encoding="UTF-8" standalone="no"?>
<!-- Created with Inkscape (http://www.inkscape.org/) -->

<svg
   xmlns:dc="http://purl.org/dc/elements/1.1/"
   xmlns:cc="http://creativecommons.org/ns#"
   xmlns:rdf="http://www.w3.org/1999/02/22-rdf-syntax-ns#"
   xmlns:svg="http://www.w3.org/2000/svg"
   xmlns="http://www.w3.org/2000/svg"
   xmlns:sodipodi="http://sodipodi.sourceforge.net/DTD/sodipodi-0.dtd"
   xmlns:inkscape="http://www.inkscape.org/namespaces/inkscape"
   width="700"
   height="700"
   viewBox="0 0 700.00001 700.00001"
   id="svg3482"
   version="1.1"
   inkscape:version="0.91 r13725"
   sodipodi:docname="shopButton.svg"
   inkscape:export-filename="C:\Users\Q7W5\Programovanie\Git\Race\Assets\InkScapeGraphics\shopButton.png"
   inkscape:export-xdpi="90"
   inkscape:export-ydpi="90">
  <defs
     id="defs3484" />
  <sodipodi:namedview
     id="base"
     pagecolor="#ffffff"
     bordercolor="#666666"
     borderopacity="1.0"
     inkscape:pageopacity="0.0"
     inkscape:pageshadow="2"
     inkscape:zoom="0.69999999"
     inkscape:cx="130.49894"
     inkscape:cy="337.0708"
     inkscape:document-units="px"
     inkscape:current-layer="g3562"
     showgrid="false"
     inkscape:window-width="1366"
     inkscape:window-height="706"
     inkscape:window-x="-8"
     inkscape:window-y="-8"
     inkscape:window-maximized="1"
     units="px" />
  <metadata
     id="metadata3487">
    <rdf:RDF>
      <cc:Work
         rdf:about="">
        <dc:format>image/svg+xml</dc:format>
        <dc:type
           rdf:resource="http://purl.org/dc/dcmitype/StillImage" />
        <dc:title />
      </cc:Work>
    </rdf:RDF>
  </metadata>
  <g
     inkscape:label="Layer 1"
     inkscape:groupmode="layer"
     id="layer1"
     transform="translate(0,-352.36216)">
    <g
       id="g3562"
       transform="matrix(2.6702998,0,0,2.6702998,-286.21351,-1588.6962)">
      <g
         id="g3347"
         transform="matrix(0.64726631,0,0,0.64726631,9.3348829,531.9307)">
        <circle
           cy="503.72968"
           cx="353.67294"
           id="path4146"
           style="fill:#f7e041;fill-opacity:1;stroke:#e91222;stroke-width:37.29980087;stroke-linejoin:miter;stroke-miterlimit:4;stroke-dasharray:none;stroke-dashoffset:0;stroke-opacity:1"
           r="183.8501" />
      </g>
      <g
         transform="matrix(0.63805432,0,0,0.63805432,181.14577,800.86826)"
         id="g3"
         style="fill:#e91222;fill-opacity:1">
        <path
           inkscape:connector-curvature="0"
           style="fill:#e91222;fill-opacity:1"
           d="M 155.78,101.592 C 152.749,79.145 140.374,62.783 125.128,62.783 l -71.238,0 c -15.257,0 -27.627,16.355 -30.664,38.803 -11.003,5.567 -16.707,17.107 -16.707,30.479 0,10.293 3.371,19.488 9.923,25.729 l 0,21.218 26.403,0 0,-12.9 93.322,0 0,12.9 26.403,0 0,-21.218 c 6.546,-6.241 9.923,-15.436 9.923,-25.729 -0.006,-13.366 -5.71,-24.912 -16.713,-30.473 z M 53.884,70.707 l 71.232,0 c 10.036,0 18.82,11.898 22.089,27.997 -1.635,-0.304 -3.371,-0.477 -5.155,-0.567 0,-0.036 0.012,-0.066 0.012,-0.095 0,-9.344 -7.596,-16.946 -16.946,-16.946 -9.35,0 -16.946,7.602 -16.946,16.946 l -69.036,0 c -2.608,0 -5.054,0.227 -7.357,0.656 3.275,-16.099 12.065,-27.991 22.107,-27.991 z m 82.898,27.341 -23.313,0 c 0,-6.438 5.233,-11.665 11.665,-11.665 6.415,-10e-4 11.648,5.226 11.648,11.665 z M 35.184,143.133 c -6.098,0 -11.057,-4.947 -11.057,-11.063 0,-6.104 4.958,-11.063 11.057,-11.063 6.11,0 11.069,4.953 11.069,11.063 -10e-4,6.129 -4.953,11.063 -11.069,11.063 z m 86.436,-1.963 -64.246,0 c -1.462,0 -2.643,-1.187 -2.643,-2.643 0,-1.45 1.181,-2.631 2.643,-2.631 l 64.245,0 c 1.462,0 2.643,1.181 2.643,2.631 0.001,1.456 -1.18,2.643 -2.642,2.643 z m 0,-9.684 -64.246,0 c -1.462,0 -2.643,-1.187 -2.643,-2.643 0,-1.456 1.181,-2.631 2.643,-2.631 l 64.245,0 c 1.462,0 2.643,1.181 2.643,2.631 0.001,1.456 -1.18,2.643 -2.642,2.643 z m 22.196,11.647 c -6.104,0 -11.063,-4.947 -11.063,-11.063 0,-6.104 4.958,-11.063 11.063,-11.063 6.098,0 11.063,4.953 11.063,11.063 -0.006,6.129 -4.964,11.063 -11.063,11.063 z M 131.089,32.734 c 3.789,6.062 10.466,10.126 18.145,10.132 8.407,0 15.603,-4.887 19.118,-11.934 l -14.267,-0.006 c -5.054,0.012 -9.147,-4.236 -9.147,-9.499 0.006,-5.233 4.099,-9.481 9.141,-9.493 l 14.261,0 C 164.85,4.887 157.642,0.006 149.222,0 141.555,-0.006 134.878,4.069 131.083,10.144 l -90.225,0 C 37.696,6.504 33.095,4.171 27.904,4.171 18.363,4.165 10.63,11.892 10.636,21.439 c 0,9.523 7.727,17.25 17.256,17.262 5.191,0 9.792,-2.357 12.966,-5.967 0,0 90.231,0 90.231,0 z m -107.726,-3.419 -4.547,-7.87 4.553,-7.864 9.076,-0.012 4.547,7.876 -4.541,7.87 -9.088,0 z"
           id="path5" />
      </g>
      <g
         transform="matrix(0.68230992,0,0,0.68230992,177.40246,797.28756)"
         id="g7"
         style="fill:#e91222;fill-opacity:1" />
      <g
         transform="matrix(0.68230992,0,0,0.68230992,177.40246,797.28756)"
         id="g9"
         style="fill:#e91222;fill-opacity:1" />
      <g
         transform="matrix(0.68230992,0,0,0.68230992,177.40246,797.28756)"
         id="g11"
         style="fill:#e91222;fill-opacity:1" />
      <g
         transform="matrix(0.68230992,0,0,0.68230992,177.40246,797.28756)"
         id="g13"
         style="fill:#e91222;fill-opacity:1" />
      <g
         transform="matrix(0.68230992,0,0,0.68230992,177.40246,797.28756)"
         id="g15"
         style="fill:#e91222;fill-opacity:1" />
      <g
         transform="matrix(0.68230992,0,0,0.68230992,177.40246,797.28756)"
         id="g17"
         style="fill:#e91222;fill-opacity:1" />
      <g
         transform="matrix(0.68230992,0,0,0.68230992,177.40246,797.28756)"
         id="g19"
         style="fill:#e91222;fill-opacity:1" />
      <g
         transform="matrix(0.68230992,0,0,0.68230992,177.40246,797.28756)"
         id="g21"
         style="fill:#e91222;fill-opacity:1" />
      <g
         transform="matrix(0.68230992,0,0,0.68230992,177.40246,797.28756)"
         id="g23"
         style="fill:#e91222;fill-opacity:1" />
      <g
         transform="matrix(0.68230992,0,0,0.68230992,177.40246,797.28756)"
         id="g25"
         style="fill:#e91222;fill-opacity:1" />
      <g
         transform="matrix(0.68230992,0,0,0.68230992,177.40246,797.28756)"
         id="g27"
         style="fill:#e91222;fill-opacity:1" />
      <g
         transform="matrix(0.68230992,0,0,0.68230992,177.40246,797.28756)"
         id="g29"
         style="fill:#e91222;fill-opacity:1" />
      <g
         transform="matrix(0.68230992,0,0,0.68230992,177.40246,797.28756)"
         id="g31"
         style="fill:#e91222;fill-opacity:1" />
      <g
         transform="matrix(0.68230992,0,0,0.68230992,177.40246,797.28756)"
         id="g33"
         style="fill:#e91222;fill-opacity:1" />
      <g
         transform="matrix(0.68230992,0,0,0.68230992,177.40246,797.28756)"
         id="g35"
         style="fill:#e91222;fill-opacity:1" />
    </g>
  </g>
</svg>
