<?xml version="1.0" encoding="UTF-8" standalone="no"?>
<!-- Created with Inkscape (http://www.inkscape.org/) -->

<svg
   xmlns:dc="http://purl.org/dc/elements/1.1/"
   xmlns:cc="http://creativecommons.org/ns#"
   xmlns:rdf="http://www.w3.org/1999/02/22-rdf-syntax-ns#"
   xmlns:svg="http://www.w3.org/2000/svg"
   xmlns="http://www.w3.org/2000/svg"
   xmlns:sodipodi="http://sodipodi.sourceforge.net/DTD/sodipodi-0.dtd"
   xmlns:inkscape="http://www.inkscape.org/namespaces/inkscape"
   width="210mm"
   height="297mm"
   viewBox="0 0 744.09448819 1052.3622047"
   id="svg2"
   version="1.1"
   inkscape:version="0.91 r13725"
   sodipodi:docname="KolesoRapid.svg">
  <defs
     id="defs4" />
  <sodipodi:namedview
     id="base"
     pagecolor="#ffffff"
     bordercolor="#666666"
     borderopacity="1.0"
     inkscape:pageopacity="0.0"
     inkscape:pageshadow="2"
     inkscape:zoom="0.49497475"
     inkscape:cx="345.08163"
     inkscape:cy="627.95182"
     inkscape:document-units="px"
     inkscape:current-layer="layer1"
     showgrid="false"
     showguides="true"
     inkscape:guide-bbox="true"
     inkscape:window-width="1600"
     inkscape:window-height="837"
     inkscape:window-x="-8"
     inkscape:window-y="-8"
     inkscape:window-maximized="1" />
  <metadata
     id="metadata7">
    <rdf:RDF>
      <cc:Work
         rdf:about="">
        <dc:format>image/svg+xml</dc:format>
        <dc:type
           rdf:resource="http://purl.org/dc/dcmitype/StillImage" />
        <dc:title></dc:title>
      </cc:Work>
    </rdf:RDF>
  </metadata>
  <g
     inkscape:label="Vrstva 1"
     inkscape:groupmode="layer"
     id="layer1">
    <path
       sodipodi:type="star"
       style="fill:#b3b3b3;fill-opacity:1;stroke:#000000;stroke-width:121.92565918;stroke-miterlimit:4;stroke-dasharray:none;stroke-dashoffset:0;stroke-opacity:1"
       id="path4343"
       sodipodi:sides="59"
       sodipodi:cx="372.59515"
       sodipodi:cy="702.28833"
       sodipodi:r1="322.23038"
       sodipodi:r2="321.77371"
       sodipodi:arg1="0.59210304"
       sodipodi:arg2="0.64535037"
       inkscape:flatsided="true"
       inkscape:rounded="3.46945e-018"
       inkscape:randomized="0"
       d="m 639.97186,882.12745 -20.63046,27.40158 -23.42621,25.05346 -25.95651,22.42147 -28.19271,19.53544 -30.10949,16.42807 -31.68511,13.13453 -32.90173,9.6923 -33.74555,6.14 -34.20702,2.5184 -34.28092,-1.1319 -33.96641,-4.7693 -33.26702,-8.3527 L 245.41199,998.35734 214.6623,983.16131 185.70206,964.78287 158.85938,943.43027 134.43842,919.34543 112.71587,892.80125 93.937855,864.09848 78.317139,833.56234 66.030711,801.53881 57.21778,768.39074 51.978201,734.49369 50.37134,700.23175 l 2.044063,-34.23864 5.671828,-33.8274 9.235329,-33.03289 12.694188,-31.86409 16.00922,-30.33427 19.142862,-28.46074 22.0596,-26.26474 24.7264,-23.77116 27.11304,-21.00823 29.19248,-18.00728 30.94115,-14.80229 32.33925,-11.42959 33.37093,-7.92739 34.02452,-4.33536 34.29257,-0.69422 34.1721,2.95479 33.66442,6.57032 32.77533,10.1114 31.51488,13.53793 29.89734,16.81106 27.94106,19.89372 25.6682,22.75096 23.1045,25.35044 20.27902,27.66268 17.22378,29.6615 13.97338,31.32423 10.56465,32.63205 7.03623,33.57014 3.42807,34.12786 -0.21891,34.29891 -3.86342,34.08132 -7.46416,33.4776 -10.98032,32.49454 -14.37207,31.14332 z"
       inkscape:transform-center-x="0.15273136"
       inkscape:transform-center-y="0.04814468"
       transform="matrix(0.87968376,0,0,0.87848639,40.825578,-108.82209)" />
    <path
       style="fill:#333333;fill-opacity:1;stroke:none;stroke-width:2;stroke-miterlimit:4;stroke-dasharray:none;stroke-opacity:1"
       d="m 373.71768,278.18586 -22.56956,0.58773 -22.40298,2.79559 -22.0212,4.97992 -21.42693,7.11301 -20.62668,9.1792 -19.62833,11.15754 -18.43977,13.02697 -17.07413,14.77175 -15.54315,16.37488 -13.86395,17.81795 -12.05091,19.09307 -10.12117,20.18065 -8.09426,21.07665 -5.99005,21.76801 -3.82676,22.24948 -1.62803,22.51841 0.58773,22.56956 2.79561,22.40428 4.97989,22.0212 7.113,21.42692 9.17922,20.62665 11.15753,19.62709 13.02697,18.43978 14.77176,17.07406 16.37359,15.54444 17.81924,13.86392 19.09179,12.051 20.18196,10.12113 21.07664,8.09427 21.76803,5.99007 22.24946,3.82675 22.51841,1.62807 22.56958,-0.58778 22.40296,-2.79689 22.0212,-4.9786 21.42824,-7.11299 20.62667,-9.17929 19.62704,-11.15747 18.43976,-13.02698 17.07411,-14.77173 15.54446,-16.3749 13.86395,-17.8193 12.04962,-19.09179 10.12245,-20.1806 8.0943,-21.07664 5.98872,-21.76801 3.82807,-22.2508 1.62804,-22.5184 -0.58773,-22.56957 -2.79693,-22.40294 -4.97857,-22.02122 -7.113,-21.42692 -9.18053,-20.62666 -11.15624,-19.62835 -13.02696,-18.43978 -14.77176,-17.0728 -16.37487,-15.54444 -17.81927,-13.86394 -19.09177,-12.05094 -20.18064,-10.12113 -21.07666,-8.0943 -21.76802,-5.99004 -22.25078,-3.82676 -22.51841,-1.62804 z m 2.01637,27.46944 19.81593,1.69363 19.55487,3.62736 19.1049,5.52695 18.47126,7.37145 3.80183,1.96912 -88.07303,149.02554 -88.13466,-149.12785 17.39684,-7.47248 18.95532,-6.0189 19.45387,-4.13111 19.76608,-2.20527 19.88679,-0.25844 z m 106.53378,35.11638 4.75032,3.08554 15.53659,12.41695 14.24439,13.87967 12.81443,15.20994 11.26247,16.39191 9.60166,17.41652 7.84767,18.27448 6.01888,18.95533 4.13243,19.45517 1.94552,17.43227 -173.1602,-1.76187 85.00584,-150.75591 z m -227.69503,0.0369 84.98486,150.71915 -173.03033,1.76055 1.04557,-12.24247 3.62733,-19.55484 5.52694,-19.10491 7.37277,-18.47126 9.14643,-17.66051 10.83482,-16.67791 12.41693,-15.53529 13.87969,-14.24439 15.20993,-12.81444 8.98506,-6.17368 z m -88.17536,182.27249 173.16022,1.76184 -85.00583,150.7572 -4.75164,-3.08684 -15.53528,-12.41692 -14.24437,-13.87972 -12.81446,-15.20986 -11.26248,-16.39198 -9.60165,-17.4165 -7.84768,-18.27446 -6.0189,-18.95534 -4.1324,-19.45518 -1.94553,-17.43224 z m 403.89487,0.002 -1.04687,12.24375 -3.62605,19.55356 -5.52694,19.10621 -7.37276,18.47126 -9.14774,17.65923 -10.8335,16.67787 -12.41825,15.53663 -13.87968,14.24305 -15.20863,12.81572 -8.98505,6.17374 -84.98485,-150.72048 173.03032,-1.76054 z m -201.8825,18.41877 88.13469,149.12786 -17.39683,7.47254 -18.95536,6.0188 -19.45385,4.13242 -19.76607,2.20525 -19.8868,0.25716 -19.81592,-1.69363 -19.55488,-3.62729 -19.1049,-5.52569 -18.47127,-7.37276 -3.80182,-1.9691 88.07301,-149.02556 z"
       id="path4153"
       inkscape:connector-curvature="0" />
    <circle
       style="opacity:1;fill:#333333;fill-opacity:1;stroke:none;stroke-width:107.18299866;stroke-linecap:round;stroke-linejoin:round;stroke-miterlimit:4;stroke-dasharray:none;stroke-dashoffset:0;stroke-opacity:1"
       id="path4160"
       cx="368.40982"
       cy="508.18585"
       r="175" />
    <path
       sodipodi:type="star"
       style="fill:#808080;fill-opacity:1;stroke:none;stroke-width:2;stroke-miterlimit:4;stroke-dasharray:none;stroke-opacity:1"
       id="path4212"
       sodipodi:sides="64"
       sodipodi:cx="365.44763"
       sodipodi:cy="697.8645"
       sodipodi:r1="71.411285"
       sodipodi:r2="71.325264"
       sodipodi:arg1="0.62182429"
       sodipodi:arg2="0.67091167"
       inkscape:flatsided="true"
       inkscape:rounded="3.46945e-018"
       inkscape:randomized="0"
       d="m 423.49195,739.46293 -4.35686,5.48903 -4.8739,5.03555 -5.344,4.53358 -5.76263,3.98794 -6.12577,3.40391 -6.42992,2.78708 -6.67214,2.14342 -6.8501,1.47912 -6.96209,0.80057 -7.00704,0.1143 -6.9845,-0.57305 -6.89471,-1.25489 -6.73849,-1.92466 -6.51741,-2.57587 -6.23354,-3.20228 -5.88964,-3.79786 -5.48903,-4.35686 -5.03556,-4.8739 -4.53358,-5.344 -3.98794,-5.76263 -3.40391,-6.12577 -2.78708,-6.42992 -2.14342,-6.67214 -1.47912,-6.8501 -0.80056,-6.96209 -0.11431,-7.00704 0.57305,-6.9845 1.2549,-6.8947 1.92465,-6.7385 2.57587,-6.51741 3.20229,-6.23354 3.79786,-5.88964 4.35685,-5.48903 4.8739,-5.03556 5.344,-4.53358 5.76264,-3.98794 6.12577,-3.40391 6.42991,-2.78708 6.67214,-2.14342 6.8501,-1.47912 6.9621,-0.80056 7.00704,-0.11431 6.9845,0.57305 6.8947,1.2549 6.7385,1.92465 6.5174,2.57587 6.23354,3.20229 5.88965,3.79786 5.48903,4.35685 5.03555,4.8739 4.53358,5.344 3.98794,5.76264 3.40391,6.12577 2.78708,6.42991 2.14342,6.67214 1.47912,6.8501 0.80057,6.9621 0.1143,7.00704 -0.57305,6.9845 -1.25489,6.8947 -1.92466,6.7385 -2.57587,6.5174 -3.20228,6.23354 z"
       transform="matrix(0.89612335,0,0,0.92134433,40.923664,-134.78765)" />
    <path
       sodipodi:type="star"
       style="fill:#4d4d4d;fill-opacity:1;stroke:none;stroke-width:2;stroke-miterlimit:4;stroke-dasharray:none;stroke-opacity:1"
       id="path4220"
       sodipodi:sides="64"
       sodipodi:cx="366.57596"
       sodipodi:cy="700.42126"
       sodipodi:r1="24.777664"
       sodipodi:r2="24.74782"
       sodipodi:arg1="0.67474094"
       sodipodi:arg2="0.72382833"
       inkscape:flatsided="true"
       inkscape:rounded="3.46945e-018"
       inkscape:randomized="0"
       d="m 385.92406,715.89975 -1.61032,1.82191 -1.78115,1.6553 -1.93482,1.47275 -2.06985,1.27601 -2.18496,1.06698 -2.27903,0.84769 -2.35113,0.62021 -2.40061,0.38678 -2.42695,0.14962 -2.42994,-0.089 -2.40951,-0.32673 -2.36589,-0.56134 -2.29947,-0.79053 -2.21091,-1.01211 -2.10107,-1.22394 -1.97098,-1.42399 -1.82191,-1.61032 -1.6553,-1.78115 -1.47275,-1.93482 -1.27601,-2.06986 -1.06698,-2.18496 -0.84768,-2.27902 -0.62022,-2.35113 -0.38678,-2.40061 -0.14962,-2.42696 0.089,-2.42993 0.32674,-2.40952 0.56133,-2.36588 0.79053,-2.29947 1.01211,-2.21092 1.22394,-2.10106 1.42399,-1.97098 1.61033,-1.82191 1.78114,-1.6553 1.93482,-1.47275 2.06986,-1.27601 2.18496,-1.06698 2.27902,-0.84769 2.35114,-0.62021 2.4006,-0.38678 2.42696,-0.14962 2.42994,0.089 2.40951,0.32673 2.36588,0.56134 2.29948,0.79053 2.21091,1.01211 2.10106,1.22394 1.97098,1.42399 1.82192,1.61032 1.6553,1.78115 1.47274,1.93482 1.27601,2.06986 1.06699,2.18496 0.84768,2.27902 0.62022,2.35113 0.38678,2.40061 0.14961,2.42696 -0.089,2.42993 -0.32673,2.40952 -0.56133,2.36588 -0.79053,2.29947 -1.01211,2.21092 -1.22395,2.10106 z"
       transform="matrix(0.89612335,0,0,0.92134433,39.912545,-137.1433)" />
    <path
       sodipodi:type="star"
       style="fill:#1a1a1a;fill-opacity:1;stroke:none;stroke-width:2;stroke-miterlimit:4;stroke-dasharray:none;stroke-opacity:1"
       id="path4226-2-0"
       sodipodi:sides="6"
       sodipodi:cx="358.19214"
       sodipodi:cy="745.75116"
       sodipodi:r1="12.719372"
       sodipodi:r2="12.704049"
       sodipodi:arg1="0.87887494"
       sodipodi:arg2="1.4024737"
       inkscape:flatsided="true"
       inkscape:rounded="3.46945e-018"
       inkscape:randomized="0"
       d="m 366.30733,755.54535 -12.53962,2.13086 -8.11518,-9.79419 4.42442,-11.92505 12.53961,-2.13086 8.11519,9.79419 z"
       transform="matrix(1.1728501,0,0,1.2058594,-52.244242,-434.66202)" />
    <ellipse
       style="fill:none;fill-opacity:1;stroke:#000000;stroke-width:12.28603363;stroke-linejoin:miter;stroke-miterlimit:4;stroke-dasharray:24.57206919, 12.28603458;stroke-dashoffset:0;stroke-opacity:1"
       id="path4417"
       cx="368.40982"
       cy="508.18585"
       rx="335.21429"
       ry="335.21414" />
    <path
       sodipodi:type="star"
       style="fill:#1a1a1a;fill-opacity:1;stroke:none;stroke-width:2;stroke-miterlimit:4;stroke-dasharray:none;stroke-opacity:1"
       id="path4226-2-0-3"
       sodipodi:sides="6"
       sodipodi:cx="358.19214"
       sodipodi:cy="745.75116"
       sodipodi:r1="12.719372"
       sodipodi:r2="12.704049"
       sodipodi:arg1="0.87887494"
       sodipodi:arg2="1.4024737"
       inkscape:flatsided="true"
       inkscape:rounded="3.46945e-018"
       inkscape:randomized="0"
       d="m 366.30733,755.54535 -12.53962,2.13086 -8.11518,-9.79419 4.42442,-11.92505 12.53961,-2.13086 8.11519,9.79419 z"
       transform="matrix(1.1728501,0,0,1.2058594,-10.105685,-391.90884)" />
    <path
       sodipodi:type="star"
       style="fill:#1a1a1a;fill-opacity:1;stroke:none;stroke-width:2;stroke-miterlimit:4;stroke-dasharray:none;stroke-opacity:1"
       id="path4226-2-0-9"
       sodipodi:sides="6"
       sodipodi:cx="358.19214"
       sodipodi:cy="745.75116"
       sodipodi:r1="12.719372"
       sodipodi:r2="12.704049"
       sodipodi:arg1="0.87887494"
       sodipodi:arg2="1.4024737"
       inkscape:flatsided="true"
       inkscape:rounded="3.46945e-018"
       inkscape:randomized="0"
       d="m 366.30733,755.54535 -12.53962,2.13086 -8.11518,-9.79419 4.42442,-11.92505 12.53961,-2.13086 8.11519,9.79419 z"
       transform="matrix(1.1728501,0,0,1.2058594,-94.478057,-391.40376)" />
    <path
       sodipodi:type="star"
       style="fill:#1a1a1a;fill-opacity:1;stroke:none;stroke-width:2;stroke-miterlimit:4;stroke-dasharray:none;stroke-opacity:1"
       id="path4226-2-0-5"
       sodipodi:sides="6"
       sodipodi:cx="358.19214"
       sodipodi:cy="745.75116"
       sodipodi:r1="12.719372"
       sodipodi:r2="12.704049"
       sodipodi:arg1="0.87887494"
       sodipodi:arg2="1.4024737"
       inkscape:flatsided="true"
       inkscape:rounded="3.46945e-018"
       inkscape:randomized="0"
       d="m 366.30733,755.54535 -12.53962,2.13086 -8.11518,-9.79419 4.42442,-11.92505 12.53961,-2.13086 8.11519,9.79419 z"
       transform="matrix(1.1728501,0,0,1.2058594,-50.81997,-348.69456)" />
  </g>
</svg>
