<?xml version="1.0" encoding="UTF-8" standalone="no"?>
<!-- Created with Inkscape (http://www.inkscape.org/) -->

<svg
   xmlns:dc="http://purl.org/dc/elements/1.1/"
   xmlns:cc="http://creativecommons.org/ns#"
   xmlns:rdf="http://www.w3.org/1999/02/22-rdf-syntax-ns#"
   xmlns:svg="http://www.w3.org/2000/svg"
   xmlns="http://www.w3.org/2000/svg"
   xmlns:sodipodi="http://sodipodi.sourceforge.net/DTD/sodipodi-0.dtd"
   xmlns:inkscape="http://www.inkscape.org/namespaces/inkscape"
   width="210mm"
   height="297mm"
   viewBox="0 0 744.09448819 1052.3622047"
   id="svg2"
   version="1.1"
   inkscape:version="0.91 r13725"
   sodipodi:docname="koleso2.svg">
  <defs
     id="defs4" />
  <sodipodi:namedview
     id="base"
     pagecolor="#ffffff"
     bordercolor="#666666"
     borderopacity="1.0"
     inkscape:pageopacity="0.0"
     inkscape:pageshadow="2"
     inkscape:zoom="0.7"
     inkscape:cx="190.1894"
     inkscape:cy="759.24926"
     inkscape:document-units="px"
     inkscape:current-layer="layer1"
     showgrid="false"
     inkscape:window-width="1600"
     inkscape:window-height="837"
     inkscape:window-x="-8"
     inkscape:window-y="-8"
     inkscape:window-maximized="1" />
  <metadata
     id="metadata7">
    <rdf:RDF>
      <cc:Work
         rdf:about="">
        <dc:format>image/svg+xml</dc:format>
        <dc:type
           rdf:resource="http://purl.org/dc/dcmitype/StillImage" />
        <dc:title></dc:title>
      </cc:Work>
    </rdf:RDF>
  </metadata>
  <g
     inkscape:label="Vrstva 1"
     inkscape:groupmode="layer"
     id="layer1">
    <path
       sodipodi:type="star"
       style="opacity:1;fill:#666666;fill-opacity:1;stroke:none;stroke-width:22.89999962;stroke-linecap:round;stroke-linejoin:miter;stroke-miterlimit:4;stroke-dasharray:none;stroke-dashoffset:0;stroke-opacity:1"
       id="path4136"
       sodipodi:sides="10"
       sodipodi:cx="157.14285"
       sodipodi:cy="295.21936"
       sodipodi:r1="100.59645"
       sodipodi:r2="558.86914"
       sodipodi:arg1="-0.12815967"
       sodipodi:arg2="0.1859996"
       inkscape:flatsided="false"
       inkscape:rounded="0.07"
       inkscape:randomized="-4.8572257e-017"
       d="m 256.91429,282.36222 c 4.15337,32.23016 455.46784,84.27208 449.45827,116.20824 -6.00958,31.93617 -445.37141,-83.62461 -460.95568,-55.10857 -15.58426,28.51604 318.94734,335.89483 295.31388,358.19939 C 517.0973,723.96584 229.57104,372.2248 200.20179,386.13456 c -29.36924,13.90976 60.5998,459.21716 28.36963,463.37053 -32.23016,4.15338 -58.0956,-449.4148 -90.03177,-455.42438 C 106.60349,388.07114 -82.355161,801.21487 -110.8712,785.6306 -139.38724,770.04634 106.28786,387.89865 83.983304,364.26519 61.678743,340.63173 -334.03181,563.80492 -347.94156,534.43568 -361.85132,505.06644 61.524786,340.30666 57.371415,308.0765 53.218044,275.84634 -398.09643,223.80442 -392.08685,191.86826 -386.07727,159.93209 53.284559,275.49287 68.868824,246.97683 84.45309,218.46079 -250.07851,-88.917996 -226.44506,-111.22256 -202.8116,-133.52712 84.71467,218.21392 114.08391,204.30416 143.45315,190.3944 53.48412,-254.913 85.714281,-259.06637 c 32.230159,-4.15338 58.095609,449.4148 90.031769,455.42438 31.93617,6.00958 220.89482,-407.13415 249.41085,-391.54989 28.51604,15.58427 -217.15906,397.73196 -194.8545,421.36541 C 252.60696,249.80699 648.31751,26.633798 662.22727,56.00304 676.13703,85.372281 252.76092,250.13206 256.91429,282.36222 Z"
       transform="matrix(0.91026732,0,0,0.90201569,-30.18494,96.069688)" />
    <circle
       style="opacity:1;fill:none;fill-opacity:1;stroke:#666666;stroke-width:58.29999924;stroke-linecap:round;stroke-linejoin:miter;stroke-miterlimit:4;stroke-dasharray:none;stroke-dashoffset:0;stroke-opacity:1"
       id="path4138"
       cx="112.85706"
       cy="362.36218"
       r="395.85001" />
    <circle
       style="opacity:1;fill:none;fill-opacity:1;stroke:#191414;stroke-width:75.19999695;stroke-linecap:round;stroke-linejoin:miter;stroke-miterlimit:4;stroke-dasharray:none;stroke-dashoffset:0;stroke-opacity:1"
       id="path4138-1"
       cx="112.85706"
       cy="362.36218"
       r="457.99286" />
    <circle
       style="opacity:1;fill:none;fill-opacity:1;stroke:#191414;stroke-width:67;stroke-linecap:round;stroke-linejoin:miter;stroke-miterlimit:4;stroke-dasharray:134, 67, 33.50000000000000000, 67;stroke-dashoffset:0;stroke-opacity:1"
       id="path4138-1-5"
       cx="112.85706"
       cy="362.36218"
       r="485.13571" />
    <circle
       style="opacity:1;fill:none;fill-opacity:1;stroke:#191414;stroke-width:6.5999999;stroke-linecap:round;stroke-linejoin:miter;stroke-miterlimit:4;stroke-dasharray:none;stroke-dashoffset:0;stroke-opacity:1"
       id="path4170"
       cx="112.85706"
       cy="362.36218"
       r="46.700001" />
    <path
       sodipodi:type="star"
       style="opacity:1;fill:#000000;fill-opacity:1;stroke:none;stroke-width:6.5999999;stroke-linecap:round;stroke-linejoin:miter;stroke-miterlimit:4;stroke-dasharray:none;stroke-dashoffset:0;stroke-opacity:1"
       id="path4172"
       sodipodi:sides="5"
       sodipodi:cx="68.555588"
       sodipodi:cy="388.63824"
       sodipodi:r1="17.011658"
       sodipodi:r2="13.76272"
       sodipodi:arg1="0.62024949"
       sodipodi:arg2="1.248568"
       inkscape:flatsided="true"
       inkscape:rounded="0.07"
       inkscape:randomized="-4.85723e-017"
       d="m 82.398543,398.52607 c -0.813668,1.13914 -17.634307,6.75495 -18.969127,6.33311 -1.33482,-0.42183 -11.873637,-14.68383 -11.884932,-16.08367 -0.0113,-1.39984 10.295997,-15.83005 11.623836,-16.27337 1.327839,-0.44332 18.236912,4.90032 19.068857,6.02618 0.831945,1.12585 0.975035,18.85861 0.161366,19.99775 z"
       inkscape:transform-center-x="1.313238"
       inkscape:transform-center-y="0.040675593"
       transform="translate(-26.697827,-36.068717)" />
    <path
       sodipodi:type="star"
       style="opacity:1;fill:#000000;fill-opacity:1;stroke:none;stroke-width:6.5999999;stroke-linecap:round;stroke-linejoin:miter;stroke-miterlimit:4;stroke-dasharray:none;stroke-dashoffset:0;stroke-opacity:1"
       id="path4172-2"
       sodipodi:sides="5"
       sodipodi:cx="68.555588"
       sodipodi:cy="388.63824"
       sodipodi:r1="17.011658"
       sodipodi:r2="13.76272"
       sodipodi:arg1="0.62024949"
       sodipodi:arg2="1.248568"
       inkscape:flatsided="true"
       inkscape:rounded="0.07"
       inkscape:randomized="-4.85723e-017"
       d="m 82.398543,398.52607 c -0.813668,1.13914 -17.634307,6.75495 -18.969127,6.33311 -1.33482,-0.42183 -11.873637,-14.68383 -11.884932,-16.08367 -0.0113,-1.39984 10.295997,-15.83005 11.623836,-16.27337 1.327839,-0.44332 18.236912,4.90032 19.068857,6.02618 0.831945,1.12585 0.975035,18.85861 0.161366,19.99775 z"
       inkscape:transform-center-x="1.313238"
       inkscape:transform-center-y="0.040675593"
       transform="translate(30.74245,-97.466656)" />
    <path
       sodipodi:type="star"
       style="opacity:1;fill:#000000;fill-opacity:1;stroke:none;stroke-width:6.5999999;stroke-linecap:round;stroke-linejoin:miter;stroke-miterlimit:4;stroke-dasharray:none;stroke-dashoffset:0;stroke-opacity:1"
       id="path4172-26"
       sodipodi:sides="5"
       sodipodi:cx="68.555588"
       sodipodi:cy="388.63824"
       sodipodi:r1="17.011658"
       sodipodi:r2="13.76272"
       sodipodi:arg1="0.62024949"
       sodipodi:arg2="1.248568"
       inkscape:flatsided="true"
       inkscape:rounded="0.07"
       inkscape:randomized="-4.85723e-017"
       d="m 82.398543,398.52607 c -0.813668,1.13914 -17.634307,6.75495 -18.969127,6.33311 -1.33482,-0.42183 -11.873637,-14.68383 -11.884932,-16.08367 -0.0113,-1.39984 10.295997,-15.83005 11.623836,-16.27337 1.327839,-0.44332 18.236912,4.90032 19.068857,6.02618 0.831945,1.12585 0.975035,18.85861 0.161366,19.99775 z"
       inkscape:transform-center-x="1.313238"
       inkscape:transform-center-y="0.040675593"
       transform="translate(103.47343,-63.626546)" />
    <path
       sodipodi:type="star"
       style="opacity:1;fill:#000000;fill-opacity:1;stroke:none;stroke-width:6.5999999;stroke-linecap:round;stroke-linejoin:miter;stroke-miterlimit:4;stroke-dasharray:none;stroke-dashoffset:0;stroke-opacity:1"
       id="path4172-9"
       sodipodi:sides="5"
       sodipodi:cx="68.555588"
       sodipodi:cy="388.63824"
       sodipodi:r1="17.011658"
       sodipodi:r2="13.76272"
       sodipodi:arg1="0.62024949"
       sodipodi:arg2="1.248568"
       inkscape:flatsided="true"
       inkscape:rounded="0.07"
       inkscape:randomized="-4.85723e-017"
       d="m 82.398543,398.52607 c -0.813668,1.13914 -17.634307,6.75495 -18.969127,6.33311 -1.33482,-0.42183 -11.873637,-14.68383 -11.884932,-16.08367 -0.0113,-1.39984 10.295997,-15.83005 11.623836,-16.27337 1.327839,-0.44332 18.236912,4.90032 19.068857,6.02618 0.831945,1.12585 0.975035,18.85861 0.161366,19.99775 z"
       inkscape:transform-center-x="1.313238"
       inkscape:transform-center-y="0.040675593"
       transform="translate(104.6569,14.992038)" />
    <path
       sodipodi:type="star"
       style="opacity:1;fill:#000000;fill-opacity:1;stroke:none;stroke-width:6.5999999;stroke-linecap:round;stroke-linejoin:miter;stroke-miterlimit:4;stroke-dasharray:none;stroke-dashoffset:0;stroke-opacity:1"
       id="path4172-3"
       sodipodi:sides="5"
       sodipodi:cx="68.555588"
       sodipodi:cy="388.63824"
       sodipodi:r1="17.011658"
       sodipodi:r2="13.76272"
       sodipodi:arg1="0.62024949"
       sodipodi:arg2="1.248568"
       inkscape:flatsided="true"
       inkscape:rounded="0.07"
       inkscape:randomized="-4.85723e-017"
       d="m 82.398543,398.52607 c -0.813668,1.13914 -17.634307,6.75495 -18.969127,6.33311 -1.33482,-0.42183 -11.873637,-14.68383 -11.884932,-16.08367 -0.0113,-1.39984 10.295997,-15.83005 11.623836,-16.27337 1.327839,-0.44332 18.236912,4.90032 19.068857,6.02618 0.831945,1.12585 0.975035,18.85861 0.161366,19.99775 z"
       inkscape:transform-center-x="1.313238"
       inkscape:transform-center-y="0.040675593"
       transform="translate(13.569857,37.893785)" />
  </g>
</svg>
