<?xml version="1.0" encoding="UTF-8" standalone="no"?>
<!-- Created with Inkscape (http://www.inkscape.org/) -->

<svg
   xmlns:osb="http://www.openswatchbook.org/uri/2009/osb"
   xmlns:dc="http://purl.org/dc/elements/1.1/"
   xmlns:cc="http://creativecommons.org/ns#"
   xmlns:rdf="http://www.w3.org/1999/02/22-rdf-syntax-ns#"
   xmlns:svg="http://www.w3.org/2000/svg"
   xmlns="http://www.w3.org/2000/svg"
   xmlns:sodipodi="http://sodipodi.sourceforge.net/DTD/sodipodi-0.dtd"
   xmlns:inkscape="http://www.inkscape.org/namespaces/inkscape"
   width="204mm"
   height="204mm"
   viewBox="0 0 722.83463 722.83451"
   id="svg2"
   version="1.1"
   inkscape:version="0.91 r13725"
   sodipodi:docname="koleso1.svg">
  <defs
     id="defs4">
    <linearGradient
       id="linearGradient4419"
       osb:paint="solid">
      <stop
         style="stop-color:#000000;stop-opacity:1;"
         offset="0"
         id="stop4421" />
    </linearGradient>
  </defs>
  <sodipodi:namedview
     id="base"
     pagecolor="#ffffff"
     bordercolor="#666666"
     borderopacity="1.0"
     inkscape:pageopacity="0.0"
     inkscape:pageshadow="2"
     inkscape:zoom="0.461378"
     inkscape:cx="21.899669"
     inkscape:cy="503.04974"
     inkscape:document-units="px"
     inkscape:current-layer="layer1"
     showgrid="false"
     inkscape:object-paths="true"
     inkscape:window-width="1600"
     inkscape:window-height="837"
     inkscape:window-x="-8"
     inkscape:window-y="-8"
     inkscape:window-maximized="1"
     units="px" />
  <metadata
     id="metadata7">
    <rdf:RDF>
      <cc:Work
         rdf:about="">
        <dc:format>image/svg+xml</dc:format>
        <dc:type
           rdf:resource="http://purl.org/dc/dcmitype/StillImage" />
        <dc:title></dc:title>
      </cc:Work>
    </rdf:RDF>
  </metadata>
  <g
     inkscape:label="Vrstva 1"
     inkscape:groupmode="layer"
     id="layer1"
     transform="translate(0,-329.52775)">
    <path
       sodipodi:type="star"
       style="fill:#4d4d4d;fill-opacity:1;stroke:#000000;stroke-width:152.52546692;stroke-miterlimit:4;stroke-dasharray:none;stroke-dashoffset:0;stroke-opacity:1"
       id="path4343"
       sodipodi:sides="59"
       sodipodi:cx="372.59515"
       sodipodi:cy="702.28833"
       sodipodi:r1="322.23038"
       sodipodi:r2="321.77371"
       sodipodi:arg1="0.59210304"
       sodipodi:arg2="0.64535037"
       inkscape:flatsided="true"
       inkscape:rounded="3.46945e-018"
       inkscape:randomized="0"
       d="m 639.97186,882.12745 -20.63046,27.40158 -23.42621,25.05346 -25.95651,22.42147 -28.19271,19.53544 -30.10949,16.42807 -31.68511,13.13453 -32.90173,9.6923 -33.74555,6.14 -34.20702,2.5184 -34.28092,-1.1319 -33.96641,-4.7693 -33.26702,-8.3527 L 245.41199,998.35734 214.6623,983.16131 185.70206,964.78287 158.85938,943.43027 134.43842,919.34543 112.71587,892.80125 93.937855,864.09848 78.317139,833.56234 66.030711,801.53881 57.21778,768.39074 51.978201,734.49369 50.37134,700.23175 l 2.044063,-34.23864 5.671828,-33.8274 9.235329,-33.03289 12.694188,-31.86409 16.00922,-30.33427 19.142862,-28.46074 22.0596,-26.26474 24.7264,-23.77116 27.11304,-21.00823 29.19248,-18.00728 30.94115,-14.80229 32.33925,-11.42959 33.37093,-7.92739 34.02452,-4.33536 34.29257,-0.69422 34.1721,2.95479 33.66442,6.57032 32.77533,10.1114 31.51488,13.53793 29.89734,16.81106 27.94106,19.89372 25.6682,22.75096 23.1045,25.35044 20.27902,27.66268 17.22378,29.6615 13.97338,31.32423 10.56465,32.63205 7.03623,33.57014 3.42807,34.12786 -0.21891,34.29891 -3.86342,34.08132 -7.46416,33.4776 -10.98032,32.49454 -14.37207,31.14332 z"
       inkscape:transform-center-x="0.15273136"
       inkscape:transform-center-y="0.04814468"
       transform="matrix(0.87968376,0,0,0.87848639,25.350022,95.195943)" />
    <path
       style="fill:#999999;fill-opacity:1;stroke:none;stroke-width:2;stroke-miterlimit:4;stroke-dasharray:none;stroke-opacity:1"
       d="m 358.11947,487.20618 -22.07891,0.57495 -21.91596,2.73482 -21.54248,4.87166 -20.96113,6.95838 -20.17827,8.97966 -19.20163,10.91497 -18.03891,12.74378 -16.70295,14.45063 -15.20525,16.0189 -13.56256,17.4306 -11.78894,18.67801 -9.90114,19.74194 -7.9183,20.61846 -5.85983,21.29479 -3.74357,21.7658 -1.59264,22.02888 0.57495,22.07892 2.73484,21.91722 4.87163,21.54248 6.95837,20.96112 8.97967,20.17824 10.91498,19.20042 12.74377,18.03891 14.45063,16.70289 16.01765,15.20652 17.43187,13.56252 18.67674,11.78903 19.74322,9.9011 20.61846,7.91831 21.29481,5.85985 21.76578,3.74356 22.02888,1.59268 22.07893,-0.575 21.91594,-2.73609 21.54248,-4.87037 20.96241,-6.95836 20.17827,-8.97974 19.20036,-10.91492 18.0389,-12.74378 16.70293,-14.4506 15.20654,-16.01893 13.56256,-17.43192 11.78767,-18.67675 9.9024,-19.74189 7.91833,-20.61846 5.85853,-21.29479 3.74485,-21.76708 1.59265,-22.02887 -0.57495,-22.07894 -2.73613,-21.91592 -4.87034,-21.54249 -6.95837,-20.96112 -8.98095,-20.17826 -10.91371,-19.20164 -12.74377,-18.03891 -14.45064,-16.70166 -16.01889,-15.20652 -17.4319,-13.56255 -18.67673,-11.78895 -19.74193,-9.90112 -20.61847,-7.91833 -21.2948,-5.85983 -21.76707,-3.74356 -22.02888,-1.59265 z m 1.97253,26.87228 19.38515,1.65681 19.12977,3.5485 18.68958,5.4068 18.06971,7.2112 3.71918,1.92632 -86.1584,145.78585 -86.21869,-145.88594 17.01865,-7.31003 18.54325,-5.88805 19.03096,-4.04131 19.33638,-2.15733 19.45446,-0.25282 z m 104.21783,34.35298 4.64706,3.01846 15.19884,12.14701 13.93472,13.57795 12.53586,14.87928 11.01763,16.03557 9.39293,17.0379 7.67707,17.87721 5.88804,18.54326 4.04259,19.03223 1.90323,17.0533 -169.39585,-1.72356 83.15788,-147.47861 z m -222.74513,0.036 83.13736,147.44266 -169.2688,1.72227 1.02284,-11.97632 3.54848,-19.12975 5.40679,-18.68958 7.21249,-18.06971 8.94759,-17.27659 10.59928,-16.31535 12.147,-15.19756 13.57796,-13.93472 14.87928,-12.53588 8.78973,-6.03947 z m -86.2585,178.31005 169.39586,1.72354 -83.15788,147.47987 -4.64834,-3.01973 -15.19756,-12.14699 -13.93471,-13.57798 -12.53588,-14.87922 -11.01765,-16.03563 -9.39291,-17.03788 -7.67708,-17.87719 -5.88805,-18.54327 -4.04257,-19.03224 -1.90323,-17.05328 z m 395.11454,0.002 -1.02412,11.97759 -3.54721,19.12849 -5.40679,18.69085 -7.21249,18.06971 -8.94887,17.27534 -10.59799,16.3153 -12.14829,15.19888 -13.57795,13.93341 -14.878,12.53712 -8.78973,6.03953 -83.13735,-147.44395 169.26879,-1.72227 z m -197.49375,18.01837 86.21872,145.88595 -17.01864,7.31009 -18.54328,5.88796 -19.03095,4.04258 -19.33637,2.15732 -19.45448,0.25156 -19.38514,-1.65681 -19.12977,-3.54843 -18.68957,-5.40557 -18.06973,-7.21248 -3.71917,-1.9263 86.15838,-145.78587 z"
       id="path4153"
       inkscape:connector-curvature="0" />
    <path
       sodipodi:type="star"
       style="fill:#808080;fill-opacity:1;stroke:none;stroke-width:2;stroke-miterlimit:4;stroke-dasharray:none;stroke-opacity:1"
       id="path4212"
       sodipodi:sides="64"
       sodipodi:cx="365.44763"
       sodipodi:cy="697.8645"
       sodipodi:r1="71.411285"
       sodipodi:r2="71.325264"
       sodipodi:arg1="0.62182429"
       sodipodi:arg2="0.67091167"
       inkscape:flatsided="true"
       inkscape:rounded="3.46945e-018"
       inkscape:randomized="0"
       d="m 423.49195,739.46293 -4.35686,5.48903 -4.8739,5.03555 -5.344,4.53358 -5.76263,3.98794 -6.12577,3.40391 -6.42992,2.78708 -6.67214,2.14342 -6.8501,1.47912 -6.96209,0.80057 -7.00704,0.1143 -6.9845,-0.57305 -6.89471,-1.25489 -6.73849,-1.92466 -6.51741,-2.57587 -6.23354,-3.20228 -5.88964,-3.79786 -5.48903,-4.35686 -5.03556,-4.8739 -4.53358,-5.344 -3.98794,-5.76263 -3.40391,-6.12577 -2.78708,-6.42992 -2.14342,-6.67214 -1.47912,-6.8501 -0.80056,-6.96209 -0.11431,-7.00704 0.57305,-6.9845 1.2549,-6.8947 1.92465,-6.7385 2.57587,-6.51741 3.20229,-6.23354 3.79786,-5.88964 4.35685,-5.48903 4.8739,-5.03556 5.344,-4.53358 5.76264,-3.98794 6.12577,-3.40391 6.42991,-2.78708 6.67214,-2.14342 6.8501,-1.47912 6.9621,-0.80056 7.00704,-0.11431 6.9845,0.57305 6.8947,1.2549 6.7385,1.92465 6.5174,2.57587 6.23354,3.20229 5.88965,3.79786 5.48903,4.35685 5.03555,4.8739 4.53358,5.344 3.98794,5.76264 3.40391,6.12577 2.78708,6.42991 2.14342,6.67214 1.47912,6.8501 0.80057,6.9621 0.1143,7.00704 -0.57305,6.9845 -1.25489,6.8947 -1.92466,6.7385 -2.57587,6.5174 -3.20228,6.23354 z"
       transform="matrix(0.89612335,0,0,0.92134433,25.440846,69.232675)" />
    <path
       sodipodi:type="star"
       style="fill:#4d4d4d;fill-opacity:1;stroke:none;stroke-width:2;stroke-miterlimit:4;stroke-dasharray:none;stroke-opacity:1"
       id="path4220"
       sodipodi:sides="64"
       sodipodi:cx="366.57596"
       sodipodi:cy="700.42126"
       sodipodi:r1="24.777664"
       sodipodi:r2="24.74782"
       sodipodi:arg1="0.67474094"
       sodipodi:arg2="0.72382833"
       inkscape:flatsided="true"
       inkscape:rounded="3.46945e-018"
       inkscape:randomized="0"
       d="m 385.92406,715.89975 -1.61032,1.82191 -1.78115,1.6553 -1.93482,1.47275 -2.06985,1.27601 -2.18496,1.06698 -2.27903,0.84769 -2.35113,0.62021 -2.40061,0.38678 -2.42695,0.14962 -2.42994,-0.089 -2.40951,-0.32673 -2.36589,-0.56134 -2.29947,-0.79053 -2.21091,-1.01211 -2.10107,-1.22394 -1.97098,-1.42399 -1.82191,-1.61032 -1.6553,-1.78115 -1.47275,-1.93482 -1.27601,-2.06986 -1.06698,-2.18496 -0.84768,-2.27902 -0.62022,-2.35113 -0.38678,-2.40061 -0.14962,-2.42696 0.089,-2.42993 0.32674,-2.40952 0.56133,-2.36588 0.79053,-2.29947 1.01211,-2.21092 1.22394,-2.10106 1.42399,-1.97098 1.61033,-1.82191 1.78114,-1.6553 1.93482,-1.47275 2.06986,-1.27601 2.18496,-1.06698 2.27902,-0.84769 2.35114,-0.62021 2.4006,-0.38678 2.42696,-0.14962 2.42994,0.089 2.40951,0.32673 2.36588,0.56134 2.29948,0.79053 2.21091,1.01211 2.10106,1.22394 1.97098,1.42399 1.82192,1.61032 1.6553,1.78115 1.47274,1.93482 1.27601,2.06986 1.06699,2.18496 0.84768,2.27902 0.62022,2.35113 0.38678,2.40061 0.14961,2.42696 -0.089,2.42993 -0.32673,2.40952 -0.56133,2.36588 -0.79053,2.29947 -1.01211,2.21092 -1.22395,2.10106 z"
       transform="matrix(0.89612335,0,0,0.92134433,24.429726,66.877016)" />
    <path
       sodipodi:type="star"
       style="fill:#1a1a1a;fill-opacity:1;stroke:none;stroke-width:2;stroke-miterlimit:4;stroke-dasharray:none;stroke-opacity:1"
       id="path4226-2"
       sodipodi:sides="6"
       sodipodi:cx="342.75671"
       sodipodi:cy="657.70502"
       sodipodi:r1="12.719372"
       sodipodi:r2="12.704049"
       sodipodi:arg1="0.87887494"
       sodipodi:arg2="1.4024737"
       inkscape:flatsided="true"
       inkscape:rounded="3.46945e-018"
       inkscape:randomized="0"
       d="m 350.8719,667.49921 -12.53961,2.13086 -8.11519,-9.79419 4.42443,-11.92505 12.53961,-2.13087 8.11518,9.79419 z"
       transform="matrix(0.89612335,0,0,0.92134433,7.3029976,129.53316)" />
    <path
       sodipodi:type="star"
       style="fill:#1a1a1a;fill-opacity:1;stroke:none;stroke-width:2;stroke-miterlimit:4;stroke-dasharray:none;stroke-opacity:1"
       id="path4226-2-3"
       sodipodi:sides="6"
       sodipodi:cx="399.79059"
       sodipodi:cy="665.4566"
       sodipodi:r1="12.719372"
       sodipodi:r2="12.704049"
       sodipodi:arg1="0.87887494"
       sodipodi:arg2="1.4024737"
       inkscape:flatsided="true"
       inkscape:rounded="3.46945e-018"
       inkscape:randomized="0"
       d="m 407.90577,675.25079 -12.53961,2.13087 -8.11518,-9.79419 4.42442,-11.92506 12.53961,-2.13086 8.11519,9.79419 z"
       transform="matrix(0.89612335,0,0,0.92134433,8.7535517,141.3562)" />
    <path
       sodipodi:type="star"
       style="fill:#1a1a1a;fill-opacity:1;stroke:none;stroke-width:2;stroke-miterlimit:4;stroke-dasharray:none;stroke-opacity:1"
       id="path4226-2-36"
       sodipodi:sides="6"
       sodipodi:cx="409.46466"
       sodipodi:cy="720.59863"
       sodipodi:r1="12.719372"
       sodipodi:r2="12.704049"
       sodipodi:arg1="0.87887494"
       sodipodi:arg2="1.4024737"
       inkscape:flatsided="true"
       inkscape:rounded="3.46945e-018"
       inkscape:randomized="0"
       d="m 417.57985,730.39282 -12.53961,2.13087 -8.11519,-9.79419 4.42442,-11.92506 12.53962,-2.13086 8.11518,9.79419 z"
       transform="matrix(0.89612335,0,0,0.92134433,28.802708,47.744858)" />
    <path
       sodipodi:type="star"
       style="fill:#1a1a1a;fill-opacity:1;stroke:none;stroke-width:2;stroke-miterlimit:4;stroke-dasharray:none;stroke-opacity:1"
       id="path4226-2-0"
       sodipodi:sides="6"
       sodipodi:cx="358.19214"
       sodipodi:cy="745.75116"
       sodipodi:r1="12.719372"
       sodipodi:r2="12.704049"
       sodipodi:arg1="0.87887494"
       sodipodi:arg2="1.4024737"
       inkscape:flatsided="true"
       inkscape:rounded="3.46945e-018"
       inkscape:randomized="0"
       d="m 366.30733,755.54535 -12.53962,2.13086 -8.11518,-9.79419 4.42442,-11.92505 12.53961,-2.13086 8.11519,9.79419 z"
       transform="matrix(0.89612335,0,0,0.92134433,43.321619,-17.693976)" />
    <path
       sodipodi:type="star"
       style="fill:#1a1a1a;fill-opacity:1;stroke:none;stroke-width:2;stroke-miterlimit:4;stroke-dasharray:none;stroke-opacity:1"
       id="path4226-2-8"
       sodipodi:sides="6"
       sodipodi:cx="318.52853"
       sodipodi:cy="707.05499"
       sodipodi:r1="12.719372"
       sodipodi:r2="12.704049"
       sodipodi:arg1="0.87887494"
       sodipodi:arg2="1.4024737"
       inkscape:flatsided="true"
       inkscape:rounded="3.46945e-018"
       inkscape:randomized="0"
       d="m 326.64372,716.84918 -12.53961,2.13087 -8.11519,-9.79419 4.42443,-11.92506 12.53961,-2.13086 8.11518,9.79419 z"
       transform="matrix(0.89612335,0,0,0.92134433,31.723711,34.21417)" />
    <text
       xml:space="preserve"
       style="font-style:normal;font-weight:normal;font-size:40px;line-height:125%;font-family:sans-serif;letter-spacing:0px;word-spacing:0px;fill:#ffffff;fill-opacity:1;stroke:none;stroke-width:1px;stroke-linecap:butt;stroke-linejoin:miter;stroke-opacity:1"
       x="297.14285"
       y="159.50507"
       id="text4300"
       sodipodi:linespacing="125%"><tspan
         sodipodi:role="line"
         id="tspan4302"
         x="297.14285"
         y="159.50507" /></text>
    <flowRoot
       xml:space="preserve"
       id="flowRoot4332"
       style="font-style:normal;font-weight:normal;font-size:40px;line-height:125%;font-family:sans-serif;letter-spacing:0px;word-spacing:0px;fill:#000000;fill-opacity:1;stroke:none;stroke-width:1px;stroke-linecap:butt;stroke-linejoin:miter;stroke-opacity:1"
       transform="translate(0,102.75591)"><flowRegion
         id="flowRegion4334"><rect
           id="rect4336"
           width="1065.7142"
           height="804.28571"
           x="-120"
           y="-28.965105" /></flowRegion><flowPara
         id="flowPara4338"></flowPara></flowRoot>    <ellipse
       style="fill:none;fill-opacity:1;stroke:#000000;stroke-width:12.28603458;stroke-linejoin:miter;stroke-miterlimit:4;stroke-dasharray:24.57206942, 12.28603472, 6.14301736, 12.28603472;stroke-dashoffset:0;stroke-opacity:1"
       id="path4417"
       cx="352.927"
       cy="712.20618"
       rx="347.35715"
       ry="347.35699" />
  </g>
</svg>
